<svg width="1170" height="1037" viewBox="0 0 1170 1037" fill="none" xmlns="http://www.w3.org/2000/svg">
<path d="M412.5 1377C310.239 1377 211.036 1358.79 117.653 1322.89C27.4609 1288.2 -53.5591 1238.57 -123.127 1175.34C-192.696 1112.11 -247.299 1038.47 -285.462 956.49C-324.966 871.613 -345 781.446 -345 688.5C-345 595.554 -324.966 505.388 -285.462 420.51C-247.299 338.534 -192.696 264.894 -123.127 201.663C-53.5591 138.431 27.4609 88.8018 117.653 54.1147C211.036 18.2089 310.239 0 412.5 0C514.76 0 613.964 18.2089 707.347 54.1147C797.539 88.8018 878.558 138.431 948.127 201.663C1017.69 264.894 1072.3 338.534 1110.46 420.51C1149.97 505.388 1170 595.554 1170 688.5C1170 781.446 1149.97 871.613 1110.46 956.49C1072.3 1038.47 1017.69 1112.11 948.127 1175.34C878.558 1238.57 797.539 1288.2 707.347 1322.89C613.964 1358.79 514.76 1377 412.5 1377ZM412.5 1.24318C-4.42694 1.24318 -343.632 309.551 -343.632 688.5C-343.632 1067.45 -4.42694 1375.76 412.5 1375.76C829.426 1375.76 1168.63 1067.45 1168.63 688.5C1168.66 309.551 829.453 1.24318 412.5 1.24318Z" fill="url(#paint0_linear_61_1451)" fill-opacity="0.4"/>
<path d="M412.5 1376.39C364.762 1376.39 317.024 1371.73 270.413 1362.33C223.802 1352.92 178.371 1338.83 135.085 1320.52C48.4601 1283.91 -29.1805 1230.4 -92.7144 1165.66C-156.356 1100.92 -205.971 1025.01 -239.119 943.619C-272.374 862.228 -289.029 775.376 -289.243 688.549C-289.029 601.721 -272.348 514.894 -239.119 433.478C-205.971 352.087 -156.329 276.18 -92.7144 211.437C-29.1805 146.695 48.4601 93.1651 135.085 56.5767C178.371 38.2703 223.802 24.1566 270.413 14.7719C317.024 5.33834 364.762 0.682528 412.5 0.706904C364.762 0.755656 317.025 5.46022 270.467 14.9425C223.883 24.4004 178.478 38.5385 135.246 56.8936C48.7016 93.5795 -28.8051 147.134 -92.1782 211.901C-155.659 276.643 -205.139 352.55 -238.153 433.868C-271.248 515.211 -287.795 601.941 -287.876 688.622C-287.768 775.303 -271.248 862.033 -238.153 943.375C-205.139 1024.69 -155.685 1100.58 -92.1782 1165.34C-28.7783 1230.11 48.7285 1283.66 135.246 1320.35C178.478 1338.71 223.883 1352.84 270.467 1362.3C317.051 1371.64 364.789 1376.34 412.5 1376.39Z" fill="url(#paint1_linear_61_1451)" fill-opacity="0.4"/>
<path d="M412.5 1376.39C367.042 1376.44 321.557 1371.13 277.574 1360.67C233.565 1350.24 191.056 1334.68 151.123 1314.87C71.2025 1275.13 2.11743 1218.51 -52.9418 1152.72C-108.108 1086.85 -149.517 1011.77 -176.899 932.918C-204.335 854.013 -217.771 771.232 -218.093 688.5C-217.744 605.768 -204.335 522.987 -176.899 444.082C-149.517 365.226 -108.108 290.172 -52.9418 224.284C2.09061 158.493 71.1757 101.867 151.123 62.1344C191.056 42.3167 233.565 26.7648 277.574 16.3319C321.584 5.87462 367.042 0.560648 412.5 0.6094C367.042 0.755656 321.637 6.26463 277.735 16.8926C233.832 27.4961 191.485 43.2186 151.74 63.1582C72.0875 102.964 3.24323 159.517 -51.521 225.259C-106.419 291.049 -147.586 366.006 -174.754 444.691C-201.975 523.45 -215.223 606.012 -215.411 688.5C-215.223 770.988 -202.002 853.55 -174.754 932.309C-147.586 1010.99 -106.419 1085.93 -51.521 1151.74C3.27005 1217.46 72.0875 1274.04 151.74 1313.84C191.485 1333.78 233.832 1349.48 277.735 1360.11C321.637 1370.74 367.042 1376.24 412.5 1376.39Z" fill="url(#paint2_linear_61_1451)" fill-opacity="0.4"/>
<path d="M412.5 1376.39C327.162 1376.49 242.736 1350.02 173.409 1304.9C138.545 1282.54 106.898 1256.17 78.5507 1227.21C50.2032 1198.23 25.1279 1166.66 3.19 1133.41C-40.7125 1066.86 -72.2515 993.931 -93.2238 918.829C-95.6644 909.395 -98.3194 900.01 -100.599 890.528L-106.929 862.033C-108.779 852.477 -110.415 842.898 -112.185 833.342C-113.124 828.564 -113.794 823.762 -114.438 818.96L-116.449 804.53C-121.545 766.04 -124.093 727.282 -124.334 688.5C-124.093 649.718 -121.545 610.96 -116.449 572.47L-114.438 558.04C-113.794 553.238 -113.124 548.411 -112.185 543.658C-110.442 534.102 -108.779 524.523 -106.929 514.967L-100.599 486.472C-98.3462 476.99 -95.6644 467.605 -93.2238 458.171C-72.2515 383.069 -40.7125 310.136 3.19 243.589C25.1547 210.365 50.2032 178.774 78.5507 149.79C106.898 120.832 138.545 94.457 173.409 72.1042C242.736 26.9842 327.189 0.511896 412.5 0.6094C327.162 1.09692 243.219 28.1299 174.536 73.5424C139.912 95.9439 108.427 122.246 80.2675 151.18C52.1076 180.114 27.2193 211.657 5.44235 244.808C-38.1115 311.233 -69.3283 383.971 -90.0325 458.878C-92.4462 468.287 -95.0744 477.648 -97.3004 487.106L-103.523 515.528C-105.319 525.035 -106.955 534.59 -108.672 544.121C-109.583 548.874 -110.254 553.676 -110.871 558.478L-112.855 572.86C-117.817 611.228 -120.258 649.864 -120.365 688.5C-120.258 727.136 -117.79 765.772 -112.855 804.14L-110.871 818.522C-110.227 823.324 -109.583 828.101 -108.672 832.879C-106.955 842.41 -105.319 851.965 -103.523 861.472L-97.3004 889.894C-95.0744 899.328 -92.4462 908.713 -90.0325 918.122C-69.3552 993.029 -38.1384 1065.77 5.44235 1132.19C27.2193 1165.37 52.1076 1196.89 80.2675 1225.82C108.427 1254.75 139.886 1281.06 174.536 1303.46C243.219 1348.87 327.162 1375.88 412.5 1376.39Z" fill="url(#paint3_linear_61_1451)" fill-opacity="0.4"/>
<path d="M412.5 1376.39C373.237 1376.66 334.189 1367.44 299.163 1351.31C281.65 1343.21 264.996 1333.56 249.361 1322.74C233.752 1311.87 219.109 1299.87 205.351 1287.1C177.995 1261.41 154.368 1232.55 133.664 1202.2C112.986 1171.8 95.232 1139.82 79.8648 1106.94C64.5244 1074.06 51.464 1040.29 40.7365 1005.92C29.9284 971.578 21.0778 936.745 14.1853 901.595C0.319946 831.295 -6.33096 759.873 -6.43823 688.476C-6.33096 617.078 0.293152 545.657 14.1853 475.356C21.0778 440.206 29.9284 405.373 40.7365 371.027C51.464 336.681 64.5244 302.896 79.8648 270.013C95.232 237.13 112.959 205.148 133.664 174.752C154.368 144.403 177.968 115.567 205.351 89.8499C219.082 77.0769 233.752 65.0839 249.361 54.2122C265.023 43.3893 281.65 33.7364 299.163 25.6435C334.189 9.50664 373.237 0.292512 412.5 0.560648C373.237 0.804408 334.484 10.4817 299.914 26.9599C282.616 35.2233 266.229 45.0225 250.862 55.9673C235.549 66.9609 221.174 79.0514 207.711 91.8975C180.812 117.639 157.586 146.427 137.258 176.726C116.956 207.074 99.6036 239.007 84.6118 271.792C54.7624 337.461 33.7631 406.323 20.1927 476.283C6.59558 546.266 0.186035 617.371 0.266479 688.427C0.186035 759.483 6.56876 830.588 20.1927 900.571C33.7899 970.53 54.7624 1039.39 84.6118 1105.06C99.6036 1137.85 116.956 1169.78 137.258 1200.13C157.56 1230.43 180.812 1259.22 207.711 1284.96C221.147 1297.83 235.522 1309.89 250.862 1320.89C266.229 1331.81 282.616 1341.63 299.914 1349.89C334.51 1366.47 373.264 1376.15 412.5 1376.39Z" fill="url(#paint4_linear_61_1451)" fill-opacity="0.4"/>
<path d="M412.5 1376.39C394.477 1376.59 376.482 1372.71 360.042 1365.91C351.809 1362.52 344.005 1358.28 336.522 1353.67C329.013 1349.07 321.932 1343.9 315.227 1338.39C288.274 1316.3 266.954 1289.25 248.663 1260.97C230.507 1232.52 215.568 1202.52 202.561 1171.9C189.608 1141.26 178.639 1109.94 169.252 1078.25C164.559 1062.4 160.215 1046.46 156.219 1030.47C152.25 1014.46 148.763 998.368 145.491 982.231C138.974 949.957 133.717 917.488 129.587 884.897C121.3 819.716 117.331 754.12 117.143 688.524C117.331 622.929 121.273 557.333 129.587 492.151C133.717 459.561 139.001 427.092 145.491 394.818C148.763 378.681 152.276 362.593 156.219 346.578C160.215 330.587 164.532 314.645 169.252 298.801C178.639 267.112 189.608 235.789 202.561 205.148C215.568 174.532 230.507 144.501 248.663 116.078C266.954 87.8023 288.274 60.7206 315.227 38.6603C321.932 33.1514 329.013 27.9836 336.522 23.3766C344.005 18.7695 351.809 14.5525 360.042 11.1398C376.509 4.33893 394.477 0.463144 412.5 0.658152C394.451 0.901912 376.724 5.19209 360.632 12.3099C352.56 15.8444 344.916 20.1346 337.622 24.8391C330.3 29.5193 323.408 34.7602 316.891 40.3179C290.715 62.6219 270.172 89.8012 252.633 118.15C235.093 146.573 220.584 176.507 208.086 207.074C195.615 237.666 185.129 268.892 176.199 300.507C158.445 363.739 146.001 428.189 138.035 493.053C130.07 557.942 126.396 623.245 126.503 688.549C126.396 753.828 130.043 819.155 138.035 884.044C146.001 948.933 158.445 1013.36 176.199 1076.59C185.129 1108.18 195.615 1139.43 208.086 1170.02C220.584 1200.59 235.066 1230.52 252.633 1258.95C270.172 1287.3 290.715 1314.48 316.891 1336.78C323.408 1342.34 330.3 1347.58 337.622 1352.26C344.916 1356.96 352.56 1361.25 360.632 1364.79C376.751 1371.86 394.477 1376.15 412.5 1376.39Z" fill="url(#paint5_linear_61_1451)" fill-opacity="0.4"/>
<path d="M412.5 1376.39C408.343 1376.42 404.239 1375.66 400.324 1374.32C396.408 1372.98 392.869 1370.93 389.463 1368.76C382.838 1364.15 377.206 1358.45 372.218 1352.4C362.375 1340.17 354.732 1326.64 348.081 1312.82C334.805 1285.1 325.097 1256.14 316.676 1226.99C300.316 1168.51 289.482 1108.91 280.846 1049.19C263.977 929.603 257.648 808.99 257.353 688.524C257.648 568.058 263.977 447.446 280.846 327.857C289.482 268.112 300.316 208.537 316.676 150.059C325.097 120.905 334.832 91.9463 348.081 64.2308C354.732 50.4096 362.375 36.8809 372.218 24.6441C377.206 18.5989 382.812 12.8949 389.463 8.28784C392.869 6.094 396.408 4.04642 400.324 2.73011C404.213 1.41381 408.343 0.658152 412.5 0.658152C408.343 0.780032 404.293 1.65757 400.512 3.09575C396.703 4.53394 393.298 6.67902 390.053 8.92161C383.723 13.6749 378.413 19.4764 373.747 25.5948C364.44 37.9047 357.253 51.4821 351.058 65.352C338.748 93.1407 329.952 122.148 322.442 151.351C307.343 209.755 297.554 269.257 290.072 328.881C282.804 388.553 277.493 448.445 274.302 508.435C270.949 568.399 269.368 628.462 269.448 688.524C269.368 748.587 270.949 808.649 274.302 868.614C277.493 928.604 282.804 988.471 290.072 1048.17C297.554 1107.79 307.343 1167.29 322.442 1225.7C329.952 1254.88 338.748 1283.88 351.058 1311.7C357.253 1325.57 364.414 1339.14 373.747 1351.45C378.413 1357.6 383.723 1363.37 390.053 1368.13C393.298 1370.37 396.703 1372.51 400.512 1373.95C404.32 1375.37 408.37 1376.27 412.5 1376.39Z" fill="url(#paint6_linear_61_1451)" fill-opacity="0.4"/>
<path d="M412.5 1376.39L411.481 1333.39L409.228 1204.42C408.45 1147.09 407.726 1089.78 407.27 1032.45C406.653 975.113 406.519 917.805 406.144 860.473L405.768 688.5L406.144 516.527C406.519 459.195 406.653 401.887 407.27 344.555C407.726 287.222 408.423 229.914 409.228 172.582L411.481 43.6087L412.5 0.6094L413.519 43.6087L415.772 172.582C416.549 229.914 417.274 287.222 417.73 344.555C418.347 401.887 418.481 459.195 418.856 516.527L419.231 688.5L418.856 860.473C418.481 917.805 418.347 975.113 417.73 1032.45C417.274 1089.78 416.576 1147.09 415.772 1204.42L413.519 1333.39L412.5 1376.39Z" fill="url(#paint7_linear_61_1451)" fill-opacity="0.4"/>
<path d="M412.5 1377C310.239 1377 211.036 1358.79 117.653 1322.89C27.4609 1288.2 -53.5591 1238.57 -123.127 1175.34C-192.696 1112.11 -247.299 1038.47 -285.462 956.49C-324.966 871.613 -345 781.446 -345 688.5C-345 595.554 -324.966 505.388 -285.462 420.51C-247.299 338.534 -192.696 264.894 -123.127 201.663C-53.5591 138.431 27.4609 88.8018 117.653 54.1147C211.036 18.2089 310.239 0 412.5 0C514.76 0 613.964 18.2089 707.347 54.1147C797.539 88.8018 878.558 138.431 948.127 201.663C1017.69 264.894 1072.3 338.534 1110.46 420.51C1149.97 505.388 1170 595.554 1170 688.5C1170 781.446 1149.97 871.613 1110.46 956.49C1072.3 1038.47 1017.69 1112.11 948.127 1175.34C878.558 1238.57 797.539 1288.2 707.347 1322.89C613.964 1358.79 514.76 1377 412.5 1377ZM412.5 1.24318C-4.42694 1.24318 -343.632 309.551 -343.632 688.5C-343.632 1067.45 -4.42694 1375.76 412.5 1375.76C829.426 1375.76 1168.63 1067.45 1168.63 688.5C1168.66 309.551 829.453 1.24318 412.5 1.24318Z" fill="url(#paint8_linear_61_1451)" fill-opacity="0.4"/>
<path d="M412.5 1376.39C460.237 1376.34 507.975 1371.64 554.532 1362.16C601.117 1352.7 646.522 1338.56 689.754 1320.2C776.298 1283.52 853.805 1229.96 917.178 1165.2C980.659 1100.45 1030.14 1024.55 1063.15 943.229C1096.25 861.887 1112.8 775.157 1112.88 688.476C1112.77 601.795 1096.25 515.065 1063.15 433.722C1030.14 352.404 980.685 276.521 917.178 211.754C853.778 146.987 776.272 93.4332 689.754 56.7473C646.522 38.3922 601.117 24.2541 554.532 14.7962C507.948 5.31397 460.211 0.6094 412.5 0.560648C460.237 0.560648 507.975 5.21646 554.586 14.6256C601.197 24.0347 646.629 38.1241 689.915 56.4304C776.54 93.0432 854.181 146.549 917.714 211.291C981.356 276.034 1030.97 351.941 1064.12 433.332C1097.37 514.724 1114.03 601.575 1114.24 688.403C1114.03 775.23 1097.35 862.057 1064.12 943.473C1030.97 1024.86 981.329 1100.77 917.714 1165.51C854.181 1230.26 776.54 1283.79 689.915 1320.37C646.629 1338.68 601.197 1352.79 554.586 1362.18C508.002 1371.73 460.237 1376.39 412.5 1376.39Z" fill="url(#paint9_linear_61_1451)" fill-opacity="0.4"/>
<path d="M412.5 1376.39C457.958 1376.24 503.362 1370.74 547.265 1360.11C591.167 1349.5 633.514 1333.78 673.26 1313.84C752.912 1274.04 821.729 1217.48 876.52 1151.74C931.419 1085.95 972.585 1011.02 999.753 932.309C1026.97 853.55 1040.22 770.988 1040.41 688.5C1040.22 606.012 1027 523.45 999.753 444.691C972.585 366.006 931.419 291.074 876.52 225.259C821.729 159.541 752.912 102.964 673.26 63.1582C633.514 43.2186 591.167 27.5205 547.265 16.8926C503.389 6.26463 457.958 0.755656 412.5 0.6094C457.958 0.560648 503.443 5.87462 547.426 16.3319C591.436 26.7648 633.943 42.3167 673.877 62.1344C753.797 101.867 822.883 158.493 877.942 224.284C933.108 290.147 974.517 365.226 1001.9 444.082C1029.33 522.987 1042.77 605.768 1043.09 688.5C1042.74 771.232 1029.33 854.013 1001.9 932.918C974.517 1011.77 933.108 1086.83 877.942 1152.72C822.91 1218.51 753.824 1275.13 673.877 1314.87C633.943 1334.68 591.436 1350.24 547.426 1360.67C503.443 1371.13 457.985 1376.44 412.5 1376.39Z" fill="url(#paint10_linear_61_1451)" fill-opacity="0.4"/>
<path d="M412.5 1376.39C497.837 1375.9 581.781 1348.87 650.464 1303.46C685.087 1281.06 716.573 1254.75 744.733 1225.82C772.892 1196.89 797.78 1165.34 819.557 1132.19C863.111 1065.77 894.328 993.029 915.033 918.122C917.446 908.713 920.074 899.352 922.3 889.894L928.523 861.472C930.319 851.965 931.955 842.41 933.672 832.879C934.583 828.126 935.254 823.324 935.898 818.522L937.882 804.14C942.844 765.772 945.284 727.136 945.392 688.5C945.284 649.864 942.817 611.228 937.882 572.86L935.898 558.478C935.254 553.676 934.61 548.899 933.672 544.121C931.955 534.59 930.319 525.035 928.523 515.528L922.3 487.106C920.074 477.672 917.446 468.287 915.033 458.878C894.355 383.971 863.138 311.233 819.557 244.808C797.78 211.632 772.892 180.114 744.733 151.18C716.573 122.246 685.114 95.9439 650.464 73.5424C581.781 28.1299 497.837 1.09692 412.5 0.6094C497.837 0.511896 582.264 26.9842 651.591 72.1042C686.455 94.457 718.101 120.832 746.449 149.79C774.796 178.774 799.872 210.34 821.81 243.589C865.713 310.136 897.251 383.069 918.224 458.171C920.664 467.605 923.319 476.99 925.599 486.472L931.929 514.967C933.779 524.523 935.415 534.102 937.185 543.658C938.124 548.436 938.794 553.238 939.437 558.04L941.449 572.47C946.544 610.96 949.093 649.718 949.334 688.5C949.093 727.282 946.544 766.04 941.449 804.53L939.437 818.96C938.794 823.762 938.124 828.589 937.185 833.342C935.442 842.898 933.779 852.477 931.929 862.033L925.599 890.528C923.346 900.01 920.664 909.395 918.224 918.829C897.251 993.931 865.713 1066.86 821.81 1133.41C799.845 1166.64 774.796 1198.23 746.449 1227.21C718.101 1256.17 686.455 1282.54 651.591 1304.9C582.291 1350.02 497.837 1376.49 412.5 1376.39Z" fill="url(#paint11_linear_61_1451)" fill-opacity="0.4"/>
<path d="M412.5 1376.39C451.763 1376.15 490.516 1366.47 525.085 1349.99C542.384 1341.73 558.77 1331.93 574.137 1320.98C589.451 1309.99 603.826 1297.9 617.289 1285.05C644.188 1259.31 667.414 1230.52 687.742 1200.23C708.044 1169.88 725.396 1137.94 740.388 1105.16C770.237 1039.49 791.236 970.628 804.807 900.669C818.404 830.685 824.813 759.58 824.733 688.524C824.813 617.468 818.431 546.364 804.807 476.38C791.209 406.421 770.237 337.559 740.388 271.89C725.396 239.104 708.044 207.172 687.742 176.823C667.441 146.524 644.188 117.736 617.289 91.995C603.853 79.1245 589.478 67.0584 574.137 56.0648C558.77 45.1443 542.384 35.3208 525.085 27.0574C490.516 10.5792 451.763 0.901912 412.5 0.658152C451.763 0.390016 490.811 9.60414 525.836 25.7411C543.349 33.8339 560.004 43.4868 575.639 54.3097C591.248 65.1814 605.891 77.1744 619.649 89.9474C647.004 115.64 670.632 144.501 691.336 174.849C712.013 205.246 729.767 237.227 745.135 270.11C760.475 302.994 773.536 336.754 784.264 371.125C795.072 405.47 803.922 440.304 810.814 475.454C824.679 545.754 831.33 617.176 831.438 688.573C831.33 759.97 824.706 831.392 810.814 901.693C803.922 936.843 795.072 971.676 784.264 1006.02C773.536 1040.37 760.475 1074.15 745.135 1107.04C729.767 1139.92 712.04 1171.9 691.336 1202.3C670.632 1232.65 647.031 1261.48 619.649 1287.2C605.918 1299.97 591.248 1311.96 575.639 1322.84C559.977 1333.66 543.349 1343.31 525.836 1351.41C490.811 1367.44 451.763 1376.66 412.5 1376.39Z" fill="url(#paint12_linear_61_1451)" fill-opacity="0.4"/>
<path d="M412.5 1376.39C430.549 1376.15 448.276 1371.86 464.368 1364.74C472.44 1361.2 480.084 1356.91 487.379 1352.21C494.7 1347.53 501.593 1342.29 508.109 1336.73C534.285 1314.43 554.828 1287.25 572.367 1258.9C589.934 1230.48 604.416 1200.54 616.913 1169.97C629.384 1139.38 639.871 1108.16 648.801 1076.54C666.555 1013.31 678.999 948.86 686.965 883.995C694.93 819.107 698.604 753.803 698.497 688.5C698.604 623.221 694.957 557.893 686.965 493.004C678.999 428.116 666.555 363.69 648.801 300.459C639.871 268.867 629.384 237.617 616.913 207.025C604.416 176.458 589.934 146.524 572.367 118.102C554.828 89.7524 534.285 62.5732 508.109 40.2691C501.593 34.7114 494.7 29.4706 487.379 24.7904C480.084 20.0858 472.44 15.7956 464.368 12.2611C448.276 5.14333 430.549 0.85316 412.5 0.6094C430.522 0.414392 448.518 4.29017 464.958 11.0911C473.191 14.4793 480.995 18.7208 488.478 23.3278C495.987 27.9349 503.04 33.1026 509.772 38.6116C536.725 60.6962 558.046 87.7536 576.337 116.03C594.493 144.477 609.431 174.483 622.438 205.1C635.392 235.74 646.361 267.063 655.748 298.752C660.441 314.597 664.785 330.538 668.781 346.529C672.75 362.544 676.237 378.632 679.509 394.769C686.026 427.043 691.282 459.512 695.412 492.103C703.699 557.284 707.669 622.88 707.857 688.476C707.669 754.071 703.726 819.667 695.412 884.849C691.282 917.439 685.999 949.908 679.509 982.182C676.237 998.319 672.724 1014.41 668.781 1030.42C664.785 1046.41 660.468 1062.35 655.748 1078.2C646.361 1109.89 635.392 1141.21 622.438 1171.85C609.431 1202.47 594.493 1232.5 576.337 1260.92C558.046 1289.2 536.698 1316.28 509.772 1338.34C503.067 1343.85 495.987 1349.02 488.478 1353.62C480.995 1358.23 473.191 1362.45 464.958 1365.86C448.518 1372.71 430.549 1376.59 412.5 1376.39Z" fill="url(#paint13_linear_61_1451)" fill-opacity="0.4"/>
<path d="M412.5 1376.39C416.657 1376.27 420.706 1375.39 424.488 1373.95C428.296 1372.51 431.702 1370.37 434.947 1368.13C441.277 1363.37 446.587 1357.57 451.254 1351.45C460.56 1339.14 467.747 1325.57 473.942 1311.7C486.252 1283.91 495.049 1254.9 502.558 1225.7C517.657 1167.29 527.446 1107.79 534.928 1048.17C542.196 988.495 547.506 928.604 550.698 868.614C554.05 808.649 555.632 748.587 555.552 688.524C555.632 628.462 554.05 568.399 550.698 508.435C547.506 448.445 542.196 388.578 534.928 328.881C527.446 269.257 517.657 209.755 502.558 151.351C495.049 122.172 486.252 93.1651 473.942 65.352C467.747 51.4821 460.587 37.9047 451.254 25.5948C446.587 19.4764 441.277 13.6749 434.947 8.92161C431.702 6.67902 428.296 4.53394 424.488 3.09575C420.706 1.65757 416.63 0.780032 412.5 0.658152C416.657 0.633776 420.76 1.38943 424.676 2.73011C428.591 4.07079 432.131 6.11838 435.537 8.28784C442.162 12.8949 447.793 18.5989 452.782 24.6441C462.624 36.8809 470.268 50.4096 476.919 64.2308C490.194 91.9463 499.902 120.905 508.324 150.059C524.683 208.537 535.518 268.136 544.154 327.857C561.023 447.446 567.352 568.058 567.647 688.524C567.352 808.991 561.023 929.603 544.154 1049.19C535.518 1108.94 524.683 1168.51 508.324 1226.99C499.902 1256.14 490.167 1285.1 476.919 1312.82C470.268 1326.64 462.624 1340.19 452.782 1352.4C447.793 1358.45 442.188 1364.15 435.537 1368.76C432.131 1370.95 428.591 1373 424.676 1374.32C420.787 1375.66 416.657 1376.42 412.5 1376.39Z" fill="url(#paint14_linear_61_1451)" fill-opacity="0.4"/>
<path d="M412.5 1376.39L411.481 1333.39L409.228 1204.42C408.45 1147.09 407.726 1089.78 407.27 1032.45C406.653 975.113 406.519 917.805 406.144 860.473L405.768 688.5L406.144 516.527C406.519 459.195 406.653 401.887 407.27 344.555C407.726 287.222 408.423 229.914 409.228 172.582L411.481 43.6087L412.5 0.6094L413.519 43.6087L415.772 172.582C416.549 229.914 417.274 287.222 417.73 344.555C418.347 401.887 418.481 459.195 418.856 516.527L419.231 688.5L418.856 860.473C418.481 917.805 418.347 975.113 417.73 1032.45C417.274 1089.78 416.576 1147.09 415.772 1204.42L413.519 1333.39L412.5 1376.39Z" fill="url(#paint15_linear_61_1451)" fill-opacity="0.4"/>
<path d="M412.5 1377C310.239 1377 211.036 1358.79 117.653 1322.89C27.4609 1288.2 -53.5591 1238.57 -123.127 1175.34C-192.696 1112.11 -247.299 1038.47 -285.462 956.49C-324.966 871.613 -345 781.446 -345 688.5C-345 595.554 -324.966 505.388 -285.462 420.51C-247.299 338.534 -192.696 264.894 -123.127 201.663C-53.5591 138.431 27.4609 88.8018 117.653 54.1147C211.036 18.2089 310.239 0 412.5 0C514.76 0 613.964 18.2089 707.347 54.1147C797.539 88.8018 878.558 138.431 948.127 201.663C1017.69 264.894 1072.3 338.534 1110.46 420.51C1149.97 505.388 1170 595.554 1170 688.5C1170 781.446 1149.97 871.613 1110.46 956.49C1072.3 1038.47 1017.69 1112.11 948.127 1175.34C878.558 1238.57 797.539 1288.2 707.347 1322.89C613.964 1358.79 514.76 1377 412.5 1377ZM412.5 1.24318C-4.42694 1.24318 -343.632 309.551 -343.632 688.5C-343.632 1067.45 -4.42694 1375.76 412.5 1375.76C829.426 1375.76 1168.63 1067.45 1168.63 688.5C1168.66 309.551 829.453 1.24318 412.5 1.24318Z" fill="url(#paint16_linear_61_1451)" fill-opacity="0.4"/>
<path d="M-344.303 688.524C-344.303 645.135 -339.18 601.746 -328.828 559.38C-318.476 517.015 -302.975 475.722 -282.834 436.379C-242.552 357.645 -183.684 287.076 -112.453 229.329C-41.2224 171.485 42.2919 126.39 131.84 96.2608C221.388 66.0346 316.944 50.8727 412.473 50.7021C508.002 50.8971 603.531 66.0589 693.106 96.2608C782.655 126.39 866.168 171.51 937.399 229.329C1008.63 287.076 1067.52 357.645 1107.78 436.379C1127.92 475.722 1143.45 517.015 1153.77 559.38C1164.15 601.746 1169.28 645.135 1169.25 688.524C1169.2 645.135 1164.02 601.746 1153.59 559.429C1143.18 517.088 1127.63 475.819 1107.43 436.525C1067.07 357.864 1008.15 287.417 936.89 229.817C865.659 172.119 782.145 127.145 692.677 97.1383C603.182 67.0584 507.76 52.0184 412.392 51.9452C317.024 52.0428 221.603 67.0584 132.109 97.1383C42.6407 127.145 -40.8466 172.095 -112.104 229.817C-183.362 287.442 -242.284 357.888 -282.646 436.525C-302.841 475.819 -318.396 517.088 -328.801 559.429C-339.073 601.746 -344.249 645.135 -344.303 688.524Z" fill="url(#paint17_linear_61_1451)" fill-opacity="0.4"/>
<path d="M-344.303 688.524C-344.356 647.207 -338.51 605.865 -327.004 565.889C-315.526 525.888 -298.416 487.252 -276.612 450.956C-232.897 378.315 -170.597 315.523 -98.2124 265.479C-25.7477 215.338 56.8543 177.701 143.613 152.813C230.426 127.876 321.503 115.664 412.527 115.372C503.55 115.688 594.627 127.876 681.44 152.813C768.199 177.701 850.775 215.338 923.266 265.479C995.65 315.499 1057.95 378.291 1101.66 450.956C1123.47 487.252 1140.58 525.888 1152.06 565.889C1163.56 605.89 1169.41 647.207 1169.36 688.524C1169.19 647.207 1163.13 605.939 1151.44 566.035C1139.77 526.132 1122.48 487.642 1100.54 451.517C1056.74 379.12 994.524 316.571 922.193 266.771C849.809 216.873 767.368 179.456 680.769 154.739C594.117 129.997 503.282 117.955 412.527 117.785C321.771 117.955 230.936 129.973 144.284 154.739C57.7125 179.432 -24.7289 216.849 -97.1399 266.771C-169.444 316.571 -231.69 379.12 -275.485 451.517C-297.423 487.642 -314.694 526.132 -326.387 566.035C-338.081 605.914 -344.142 647.183 -344.303 688.524Z" fill="url(#paint18_linear_61_1451)" fill-opacity="0.4"/>
<path d="M-344.303 688.524C-344.41 610.96 -315.284 534.224 -265.643 471.212C-241.05 439.524 -212.032 410.76 -180.171 384.995C-148.283 359.229 -113.553 336.438 -76.9721 316.498C-3.7565 276.594 76.4857 247.928 159.115 228.866C169.494 226.648 179.819 224.235 190.252 222.163L221.603 216.41C232.116 214.728 242.656 213.241 253.169 211.632C258.425 210.779 263.708 210.17 268.992 209.585L284.869 207.757C327.216 203.125 369.858 200.809 412.527 200.59C455.195 200.809 497.838 203.125 540.185 207.757L556.061 209.585C561.345 210.17 566.655 210.779 571.885 211.632C582.398 213.217 592.938 214.728 603.451 216.41L634.802 222.163C645.234 224.21 655.559 226.648 665.938 228.866C748.567 247.928 828.81 276.594 902.025 316.498C938.579 336.462 973.337 359.229 1005.22 384.995C1037.09 410.76 1066.1 439.524 1090.7 471.212C1140.34 534.224 1169.46 610.984 1169.36 688.524C1168.82 610.96 1139.08 534.663 1089.11 472.236C1064.47 440.767 1035.53 412.149 1003.7 386.555C971.862 360.96 937.158 338.339 900.684 318.546C827.603 278.959 747.575 250.585 665.16 231.767C654.808 229.573 644.51 227.184 634.105 225.161L602.833 219.506C592.347 217.873 581.861 216.386 571.375 214.826C566.145 213.997 560.862 213.387 555.579 212.802L539.756 210.999C497.543 206.489 455.034 204.271 412.527 204.173C370.019 204.271 327.511 206.513 285.298 210.999L269.475 212.802C264.192 213.387 258.935 213.972 253.678 214.826C243.192 216.386 232.679 217.873 222.22 219.506L190.949 225.161C180.57 227.184 170.245 229.573 159.893 231.767C77.4781 250.561 -2.54965 278.935 -75.6312 318.546C-112.132 338.339 -146.808 360.96 -178.642 386.555C-210.476 412.125 -239.414 440.742 -264.06 472.236C-314.024 534.639 -343.766 610.935 -344.303 688.524Z" fill="url(#paint19_linear_61_1451)" fill-opacity="0.4"/>
<path d="M-344.303 688.524C-344.598 652.838 -334.46 617.347 -316.706 585.511C-307.802 569.594 -297.182 554.456 -285.274 540.245C-273.313 526.058 -260.118 512.749 -246.065 500.244C-217.798 475.381 -186.044 453.905 -152.655 435.087C-119.212 416.293 -84.0251 400.156 -47.8464 386.189C-11.6677 372.246 25.4763 360.375 63.291 350.624C101.079 340.801 139.403 332.757 178.076 326.492C255.422 313.89 334.001 307.844 412.553 307.747C491.106 307.844 569.686 313.865 647.032 326.492C685.704 332.757 724.028 340.801 761.816 350.624C799.604 360.375 836.775 372.246 872.954 386.189C909.133 400.156 944.319 416.269 977.762 435.087C1011.15 453.905 1042.88 475.356 1071.17 500.244C1085.23 512.725 1098.42 526.058 1110.38 540.245C1122.29 554.481 1132.91 569.594 1141.81 585.511C1159.57 617.347 1169.68 652.838 1169.41 688.524C1169.14 652.838 1158.49 617.615 1140.36 586.194C1131.27 570.471 1120.49 555.578 1108.45 541.61C1096.35 527.692 1083.05 514.626 1068.92 502.389C1040.6 477.94 1008.93 456.831 975.589 438.378C942.2 419.925 907.067 404.154 870.996 390.528C798.745 363.397 722.982 344.311 646.012 331.977C569.015 319.594 490.784 313.792 412.607 313.865C334.43 313.792 256.199 319.594 179.202 331.977C102.232 344.335 26.4688 363.397 -45.7813 390.528C-81.8527 404.154 -116.985 419.925 -150.375 438.378C-183.711 456.831 -215.384 477.965 -243.705 502.389C-257.865 514.602 -271.141 527.667 -283.236 541.61C-295.251 555.578 -306.059 570.471 -315.151 586.194C-333.387 617.615 -344.034 652.838 -344.303 688.524Z" fill="url(#paint20_linear_61_1451)" fill-opacity="0.4"/>
<path d="M-344.303 688.524C-344.517 672.144 -340.253 655.787 -332.771 640.845C-329.043 633.361 -324.376 626.268 -319.307 619.467C-314.239 612.642 -308.553 606.231 -302.492 600.113C-278.194 575.615 -248.425 556.236 -217.315 539.611C-186.018 523.109 -153.003 509.531 -119.319 497.709C-85.6073 485.935 -51.1452 475.966 -16.2807 467.434C1.15161 463.168 18.6908 459.219 36.284 455.587C53.904 451.98 71.6046 448.811 89.3587 445.837C124.867 439.914 160.59 435.136 196.447 431.382C268.161 423.85 340.33 420.242 412.5 420.072C484.669 420.242 556.839 423.825 628.553 431.382C664.41 435.136 700.132 439.938 735.64 445.837C753.395 448.811 771.095 452.004 788.715 455.587C806.308 459.219 823.848 463.144 841.28 467.434C876.145 475.966 910.607 485.935 944.318 497.709C978.003 509.531 1011.04 523.109 1042.31 539.611C1073.42 556.236 1103.19 575.615 1127.49 600.113C1133.55 606.207 1139.24 612.642 1144.31 619.467C1149.38 626.268 1154.02 633.361 1157.77 640.845C1165.25 655.812 1169.52 672.144 1169.3 688.524C1169.03 672.119 1164.31 656.007 1156.48 641.381C1152.59 634.044 1147.87 627.097 1142.7 620.467C1137.55 613.812 1131.78 607.547 1125.67 601.624C1101.13 577.833 1071.23 559.161 1040.03 543.219C1008.76 527.253 975.831 514.09 942.2 502.731C908.542 491.396 874.187 481.865 839.403 473.747C769.835 457.611 698.926 446.3 627.561 439.06C556.169 431.821 484.321 428.481 412.473 428.579C340.652 428.481 268.777 431.796 197.385 439.06C125.993 446.3 55.1111 457.611 -14.4572 473.747C-49.2145 481.865 -83.5965 491.396 -117.254 502.731C-150.885 514.09 -183.818 527.253 -215.089 543.219C-246.28 559.161 -276.183 577.833 -300.722 601.624C-306.837 607.547 -312.603 613.812 -317.752 620.467C-322.928 627.097 -327.648 634.044 -331.537 641.381C-339.314 656.007 -344.034 672.119 -344.303 688.524Z" fill="url(#paint21_linear_61_1451)" fill-opacity="0.4"/>
<path d="M-344.303 688.524C-344.33 684.746 -343.498 681.017 -342.023 677.458C-340.548 673.899 -338.295 670.681 -335.908 667.585C-330.84 661.565 -324.564 656.446 -317.913 651.912C-304.45 642.966 -289.565 636.018 -274.359 629.973C-243.866 617.907 -212.005 609.083 -179.93 601.429C-115.591 586.56 -50.019 576.712 15.6873 568.863C147.261 553.53 279.961 547.777 412.5 547.509C545.039 547.777 677.738 553.53 809.312 568.863C875.045 576.712 940.591 586.56 1004.93 601.429C1037.01 609.083 1068.87 617.932 1099.36 629.973C1114.57 636.018 1129.48 642.966 1142.91 651.912C1149.56 656.446 1155.84 661.54 1160.91 667.585C1163.32 670.681 1165.57 673.899 1167.02 677.458C1168.47 680.992 1169.3 684.746 1169.3 688.524C1169.17 684.746 1168.2 681.065 1166.62 677.628C1165.04 674.167 1162.68 671.071 1160.21 668.122C1154.98 662.369 1148.6 657.542 1141.87 653.301C1128.32 644.843 1113.39 638.31 1098.13 632.679C1067.55 621.49 1035.64 613.495 1003.53 606.67C939.277 592.946 873.812 584.049 808.213 577.248C742.56 570.642 676.666 565.816 610.665 562.915C544.69 559.868 478.608 558.43 412.527 558.503C346.445 558.43 280.363 559.868 214.389 562.915C148.387 565.816 82.5198 570.642 16.8404 577.248C-48.7587 584.049 -114.223 592.946 -178.481 606.67C-210.583 613.495 -242.498 621.49 -273.072 632.679C-288.332 638.31 -303.27 644.818 -316.813 653.301C-323.545 657.542 -329.928 662.369 -335.157 668.122C-337.625 671.071 -339.985 674.167 -341.567 677.628C-343.176 681.065 -344.169 684.746 -344.303 688.524Z" fill="url(#paint22_linear_61_1451)" fill-opacity="0.4"/>
<path d="M-344.303 688.524L-296.994 687.598L-155.095 685.551C-92.0172 684.844 -28.9658 684.185 34.1123 683.771C97.1903 683.21 160.241 683.089 223.319 682.747L412.527 682.406L601.734 682.747C664.812 683.089 727.864 683.21 790.942 683.771C854.02 684.185 917.071 684.819 980.149 685.551L1122.05 687.598L1169.36 688.524L1122.05 689.451L980.149 691.498C917.071 692.205 854.02 692.863 790.942 693.278C727.864 693.838 664.812 693.96 601.734 694.302L412.527 694.643L223.319 694.302C160.241 693.96 97.1903 693.838 34.1123 693.278C-28.9658 692.863 -92.0172 692.229 -155.095 691.498L-296.994 689.451L-344.303 688.524Z" fill="url(#paint23_linear_61_1451)" fill-opacity="0.4"/>
<path d="M412.5 1377C310.239 1377 211.036 1358.79 117.653 1322.89C27.4609 1288.2 -53.5591 1238.57 -123.127 1175.34C-192.696 1112.11 -247.299 1038.47 -285.462 956.49C-324.966 871.613 -345 781.446 -345 688.5C-345 595.554 -324.966 505.388 -285.462 420.51C-247.299 338.534 -192.696 264.894 -123.127 201.663C-53.5591 138.431 27.4609 88.8018 117.653 54.1147C211.036 18.2089 310.239 0 412.5 0C514.76 0 613.964 18.2089 707.347 54.1147C797.539 88.8018 878.558 138.431 948.127 201.663C1017.69 264.894 1072.3 338.534 1110.46 420.51C1149.97 505.388 1170 595.554 1170 688.5C1170 781.446 1149.97 871.613 1110.46 956.49C1072.3 1038.47 1017.69 1112.11 948.127 1175.34C878.558 1238.57 797.539 1288.2 707.347 1322.89C613.964 1358.79 514.76 1377 412.5 1377ZM412.5 1.24318C-4.42694 1.24318 -343.632 309.551 -343.632 688.5C-343.632 1067.45 -4.42694 1375.76 412.5 1375.76C829.426 1375.76 1168.63 1067.45 1168.63 688.5C1168.66 309.551 829.453 1.24318 412.5 1.24318Z" fill="url(#paint24_linear_61_1451)" fill-opacity="0.4"/>
<path d="M-344.303 688.524C-344.249 731.914 -339.073 775.303 -328.641 817.62C-318.235 859.961 -302.68 901.229 -282.485 940.523C-242.123 1019.18 -183.201 1089.63 -111.943 1147.23C-40.7124 1204.93 42.8012 1249.9 132.269 1279.91C221.764 1309.99 317.185 1325.03 412.553 1325.1C507.921 1325.01 603.343 1309.99 692.838 1279.91C782.306 1249.9 865.793 1204.95 937.051 1147.23C1008.31 1089.61 1067.23 1019.16 1107.59 940.523C1127.79 901.229 1143.34 859.961 1153.75 817.62C1164.18 775.279 1169.36 731.889 1169.41 688.524C1169.41 731.914 1164.29 775.303 1153.93 817.668C1143.58 860.034 1128.08 901.327 1107.94 940.67C1067.66 1019.4 1008.79 1089.97 937.56 1147.72C866.329 1205.56 782.816 1250.66 693.267 1280.79C603.719 1311.01 508.163 1326.15 412.634 1326.35C317.105 1326.15 221.576 1310.99 132.001 1280.79C42.4529 1250.66 -41.0614 1205.54 -112.292 1147.72C-183.523 1089.97 -242.418 1019.4 -282.673 940.67C-302.814 901.327 -318.342 860.034 -328.667 817.668C-339.18 775.303 -344.303 731.889 -344.303 688.524Z" fill="url(#paint25_linear_61_1451)" fill-opacity="0.4"/>
<path d="M-344.303 688.524C-344.142 729.842 -338.081 771.11 -326.387 811.014C-314.721 850.917 -297.423 889.407 -275.485 925.532C-231.69 997.929 -169.47 1060.5 -97.1399 1110.28C-24.7557 1160.18 57.7125 1197.59 144.284 1222.31C230.936 1247.05 321.771 1259.09 412.527 1259.26C503.282 1259.09 594.117 1247.08 680.769 1222.31C767.341 1197.62 849.782 1160.2 922.193 1110.28C994.497 1060.48 1056.74 997.929 1100.54 925.532C1122.48 889.407 1139.75 850.917 1151.44 811.014C1163.13 771.135 1169.19 729.842 1169.36 688.524C1169.41 729.842 1163.56 771.183 1152.06 811.16C1140.58 851.161 1123.47 889.797 1101.66 926.093C1057.95 998.733 995.65 1061.53 923.266 1111.57C850.802 1161.71 768.199 1199.35 681.44 1224.24C594.627 1249.17 503.55 1261.38 412.527 1261.68C321.503 1261.36 230.426 1249.17 143.613 1224.24C56.8543 1199.35 -25.7209 1161.71 -98.2124 1111.57C-170.597 1061.55 -232.897 998.758 -276.612 926.093C-298.416 889.797 -315.526 851.161 -327.004 811.16C-338.51 771.159 -344.356 729.842 -344.303 688.524Z" fill="url(#paint26_linear_61_1451)" fill-opacity="0.4"/>
<path d="M-344.303 688.524C-343.766 766.089 -314.024 842.386 -264.06 904.813C-239.414 936.282 -210.476 964.899 -178.642 990.494C-146.808 1016.09 -112.105 1038.71 -75.6312 1058.5C-2.54965 1098.09 77.4781 1126.46 159.893 1145.28C170.245 1147.48 180.543 1149.86 190.949 1151.89L222.22 1157.54C232.679 1159.18 243.192 1160.66 253.678 1162.22C258.908 1163.05 264.192 1163.66 269.475 1164.25L285.298 1166.05C327.511 1170.56 370.019 1172.78 412.527 1172.88C455.034 1172.78 497.543 1170.54 539.756 1166.05L555.579 1164.25C560.862 1163.66 566.118 1163.08 571.375 1162.22C581.861 1160.66 592.374 1159.18 602.833 1157.54L634.105 1151.89C644.484 1149.86 654.808 1147.48 665.16 1145.28C747.575 1126.49 827.603 1098.11 900.684 1058.5C937.185 1038.71 971.862 1016.09 1003.7 990.494C1035.53 964.899 1064.47 936.306 1089.11 904.813C1139.08 842.386 1168.82 766.089 1169.36 688.524C1169.46 766.089 1140.34 842.824 1090.7 905.836C1066.1 937.525 1037.09 966.289 1005.22 992.054C973.337 1017.82 938.606 1040.61 902.025 1060.55C828.81 1100.45 748.567 1129.12 665.938 1148.18C655.559 1150.4 645.234 1152.81 634.802 1154.89L603.451 1160.64C592.938 1162.32 582.398 1163.81 571.885 1165.42C566.628 1166.27 561.345 1166.88 556.061 1167.46L540.185 1169.29C497.838 1173.92 455.195 1176.24 412.527 1176.46C369.858 1176.24 327.216 1173.92 284.869 1169.29L268.992 1167.46C263.708 1166.88 258.398 1166.27 253.169 1165.42C242.656 1163.83 232.116 1162.32 221.603 1160.64L190.252 1154.89C179.819 1152.84 169.494 1150.4 159.115 1148.18C76.4857 1129.12 -3.7565 1100.45 -76.9721 1060.55C-113.526 1040.59 -148.283 1017.82 -180.171 992.054C-212.032 966.289 -241.05 937.525 -265.643 905.836C-315.284 842.824 -344.41 766.064 -344.303 688.524Z" fill="url(#paint27_linear_61_1451)" fill-opacity="0.4"/>
<path d="M-344.303 688.524C-344.034 724.211 -333.387 759.434 -315.258 790.855C-306.166 806.577 -295.385 821.471 -283.343 835.439C-271.248 849.357 -257.946 862.423 -243.812 874.66C-215.492 899.109 -183.818 920.218 -150.482 938.695C-117.093 957.148 -81.9601 972.919 -45.8887 986.545C26.3614 1013.68 102.125 1032.76 179.095 1045.1C256.092 1057.48 334.323 1063.28 412.5 1063.21C490.677 1063.28 568.908 1057.48 645.905 1045.1C722.875 1032.74 798.639 1013.68 870.889 986.545C906.96 972.919 942.093 957.148 975.483 938.695C1008.82 920.243 1040.49 899.109 1068.81 874.66C1082.97 862.447 1096.25 849.382 1108.34 835.439C1120.38 821.471 1131.17 806.577 1140.26 790.855C1158.39 759.434 1169.03 724.211 1169.3 688.524C1169.6 724.211 1159.46 759.702 1141.71 791.537C1132.8 807.455 1122.18 822.568 1110.27 836.804C1098.31 850.99 1085.12 864.3 1071.06 876.805C1042.8 901.668 1011.04 923.143 977.654 941.962C944.211 960.755 909.025 976.892 872.847 990.86C836.668 1004.8 799.523 1016.67 761.709 1026.42C723.921 1036.25 685.597 1044.29 646.924 1050.56C569.578 1063.16 490.999 1069.2 412.446 1069.3C333.894 1069.2 255.314 1063.18 177.969 1050.56C139.296 1044.29 100.971 1036.25 63.1836 1026.42C25.3957 1016.67 -11.7751 1004.8 -47.9538 990.86C-84.1325 976.892 -119.319 960.78 -152.762 941.962C-186.152 923.143 -217.878 901.693 -246.172 876.805C-260.225 864.324 -273.42 850.99 -285.382 836.804C-297.289 822.568 -307.909 807.455 -316.813 791.537C-334.46 759.678 -344.598 724.186 -344.303 688.524Z" fill="url(#paint28_linear_61_1451)" fill-opacity="0.4"/>
<path d="M-344.303 688.524C-344.034 704.929 -339.314 721.042 -331.483 735.668C-327.595 743.005 -322.874 749.952 -317.698 756.582C-312.549 763.237 -306.783 769.502 -300.668 775.425C-276.129 799.216 -246.226 817.888 -215.036 833.83C-183.765 849.796 -150.831 862.959 -117.201 874.318C-83.5428 885.653 -49.1876 895.184 -14.4035 903.301C55.1647 919.438 126.074 930.749 197.439 937.988C268.831 945.228 340.679 948.568 412.526 948.47C484.347 948.568 556.222 945.252 627.614 937.988C699.006 930.749 769.889 919.438 839.457 903.301C874.214 895.184 908.596 885.653 942.253 874.318C975.884 862.959 1008.82 849.796 1040.09 833.83C1071.28 817.888 1101.18 799.216 1125.72 775.425C1131.84 769.502 1137.6 763.237 1142.75 756.582C1147.93 749.952 1152.65 743.005 1156.54 735.668C1164.37 721.042 1169.09 704.929 1169.36 688.524C1169.57 704.905 1165.31 721.261 1157.82 736.204C1154.1 743.687 1149.43 750.781 1144.36 757.582C1139.29 764.407 1133.61 770.842 1127.55 776.936C1103.25 801.434 1073.48 820.813 1042.37 837.437C1011.07 853.94 978.057 867.517 944.372 879.34C910.661 891.113 876.199 901.083 841.334 909.615C823.902 913.88 806.362 917.829 788.769 921.461C771.149 925.069 753.448 928.238 735.694 931.212C700.186 937.135 664.463 941.913 628.606 945.667C556.893 953.199 484.723 956.807 412.553 956.977C340.384 956.807 268.214 953.223 196.5 945.667C160.643 941.913 124.921 937.111 89.4124 931.212C71.6583 928.238 53.9577 925.045 36.3376 921.461C18.7444 917.829 1.20529 913.905 -16.227 909.615C-51.0916 901.083 -85.5543 891.113 -119.266 879.34C-152.95 867.517 -185.991 853.94 -217.262 837.437C-248.372 820.813 -278.167 801.434 -302.439 776.936C-308.5 770.842 -314.185 764.407 -319.254 757.582C-324.323 750.781 -328.962 743.687 -332.717 736.204C-340.253 721.237 -344.517 704.905 -344.303 688.524Z" fill="url(#paint29_linear_61_1451)" fill-opacity="0.4"/>
<path d="M-344.303 688.524C-344.169 692.303 -343.203 695.983 -341.621 699.42C-340.039 702.882 -337.678 705.978 -335.211 708.927C-329.981 714.68 -323.599 719.506 -316.867 723.748C-303.323 732.206 -288.385 738.739 -273.125 744.37C-242.552 755.583 -210.637 763.554 -178.535 770.379C-114.277 784.103 -48.8117 793 16.7873 799.801C82.44 806.407 148.334 811.233 214.335 814.134C280.31 817.181 346.391 818.619 412.473 818.546C478.555 818.619 544.637 817.181 610.611 814.134C676.613 811.233 742.48 806.407 808.159 799.801C873.758 793 939.223 784.103 1003.48 770.379C1035.58 763.554 1067.5 755.558 1098.07 744.37C1113.33 738.739 1128.27 732.231 1141.81 723.748C1148.54 719.506 1154.93 714.68 1160.16 708.927C1162.62 705.978 1164.98 702.882 1166.57 699.42C1168.15 695.983 1169.11 692.278 1169.25 688.524C1169.28 692.303 1168.44 696.032 1166.97 699.591C1165.49 703.15 1163.24 706.368 1160.85 709.463C1155.79 715.484 1149.51 720.603 1142.86 725.137C1129.4 734.083 1114.51 741.03 1099.31 747.076C1068.81 759.142 1036.95 767.966 1004.88 775.62C940.537 790.489 874.965 800.337 809.259 808.186C677.685 823.519 544.985 829.271 412.446 829.54C279.907 829.271 147.207 823.519 15.6336 808.186C-50.0995 800.337 -115.645 790.489 -179.983 775.62C-212.059 767.966 -243.919 759.117 -274.412 747.076C-289.619 741.03 -304.503 734.083 -317.966 725.137C-324.617 720.603 -330.893 715.509 -335.962 709.463C-338.376 706.368 -340.628 703.15 -342.077 699.591C-343.498 696.032 -344.33 692.278 -344.303 688.524Z" fill="url(#paint30_linear_61_1451)" fill-opacity="0.4"/>
<path d="M-344.303 688.524L-296.994 687.598L-155.095 685.551C-92.0172 684.844 -28.9658 684.185 34.1123 683.771C97.1903 683.21 160.241 683.089 223.319 682.747L412.527 682.406L601.734 682.747C664.812 683.089 727.864 683.21 790.942 683.771C854.02 684.185 917.071 684.819 980.149 685.551L1122.05 687.598L1169.36 688.524L1122.05 689.451L980.149 691.498C917.071 692.205 854.02 692.863 790.942 693.278C727.864 693.838 664.812 693.96 601.734 694.302L412.527 694.643L223.319 694.302C160.241 693.96 97.1903 693.838 34.1123 693.278C-28.9658 692.863 -92.0172 692.229 -155.095 691.498L-296.994 689.451L-344.303 688.524Z" fill="url(#paint31_linear_61_1451)" fill-opacity="0.4"/>
<defs>
<linearGradient id="paint0_linear_61_1451" x1="-253" y1="73" x2="1170" y2="1245" gradientUnits="userSpaceOnUse">
<stop stop-color="#0400DD" stop-opacity="0"/>
<stop offset="1" stop-color="#8BDD28"/>
</linearGradient>
<linearGradient id="paint1_linear_61_1451" x1="-253" y1="73" x2="1170" y2="1245" gradientUnits="userSpaceOnUse">
<stop stop-color="#0400DD" stop-opacity="0"/>
<stop offset="1" stop-color="#8BDD28"/>
</linearGradient>
<linearGradient id="paint2_linear_61_1451" x1="-253" y1="73" x2="1170" y2="1245" gradientUnits="userSpaceOnUse">
<stop stop-color="#0400DD" stop-opacity="0"/>
<stop offset="1" stop-color="#8BDD28"/>
</linearGradient>
<linearGradient id="paint3_linear_61_1451" x1="-253" y1="73" x2="1170" y2="1245" gradientUnits="userSpaceOnUse">
<stop stop-color="#0400DD" stop-opacity="0"/>
<stop offset="1" stop-color="#8BDD28"/>
</linearGradient>
<linearGradient id="paint4_linear_61_1451" x1="-253" y1="73" x2="1170" y2="1245" gradientUnits="userSpaceOnUse">
<stop stop-color="#0400DD" stop-opacity="0"/>
<stop offset="1" stop-color="#8BDD28"/>
</linearGradient>
<linearGradient id="paint5_linear_61_1451" x1="-253" y1="73" x2="1170" y2="1245" gradientUnits="userSpaceOnUse">
<stop stop-color="#0400DD" stop-opacity="0"/>
<stop offset="1" stop-color="#8BDD28"/>
</linearGradient>
<linearGradient id="paint6_linear_61_1451" x1="-253" y1="73" x2="1170" y2="1245" gradientUnits="userSpaceOnUse">
<stop stop-color="#0400DD" stop-opacity="0"/>
<stop offset="1" stop-color="#8BDD28"/>
</linearGradient>
<linearGradient id="paint7_linear_61_1451" x1="-253" y1="73" x2="1170" y2="1245" gradientUnits="userSpaceOnUse">
<stop stop-color="#0400DD" stop-opacity="0"/>
<stop offset="1" stop-color="#8BDD28"/>
</linearGradient>
<linearGradient id="paint8_linear_61_1451" x1="-253" y1="73" x2="1170" y2="1245" gradientUnits="userSpaceOnUse">
<stop stop-color="#0400DD" stop-opacity="0"/>
<stop offset="1" stop-color="#8BDD28"/>
</linearGradient>
<linearGradient id="paint9_linear_61_1451" x1="-253" y1="73" x2="1170" y2="1245" gradientUnits="userSpaceOnUse">
<stop stop-color="#0400DD" stop-opacity="0"/>
<stop offset="1" stop-color="#8BDD28"/>
</linearGradient>
<linearGradient id="paint10_linear_61_1451" x1="-253" y1="73" x2="1170" y2="1245" gradientUnits="userSpaceOnUse">
<stop stop-color="#0400DD" stop-opacity="0"/>
<stop offset="1" stop-color="#8BDD28"/>
</linearGradient>
<linearGradient id="paint11_linear_61_1451" x1="-253" y1="73" x2="1170" y2="1245" gradientUnits="userSpaceOnUse">
<stop stop-color="#0400DD" stop-opacity="0"/>
<stop offset="1" stop-color="#8BDD28"/>
</linearGradient>
<linearGradient id="paint12_linear_61_1451" x1="-253" y1="73" x2="1170" y2="1245" gradientUnits="userSpaceOnUse">
<stop stop-color="#0400DD" stop-opacity="0"/>
<stop offset="1" stop-color="#8BDD28"/>
</linearGradient>
<linearGradient id="paint13_linear_61_1451" x1="-253" y1="73" x2="1170" y2="1245" gradientUnits="userSpaceOnUse">
<stop stop-color="#0400DD" stop-opacity="0"/>
<stop offset="1" stop-color="#8BDD28"/>
</linearGradient>
<linearGradient id="paint14_linear_61_1451" x1="-253" y1="73" x2="1170" y2="1245" gradientUnits="userSpaceOnUse">
<stop stop-color="#0400DD" stop-opacity="0"/>
<stop offset="1" stop-color="#8BDD28"/>
</linearGradient>
<linearGradient id="paint15_linear_61_1451" x1="-253" y1="73" x2="1170" y2="1245" gradientUnits="userSpaceOnUse">
<stop stop-color="#0400DD" stop-opacity="0"/>
<stop offset="1" stop-color="#8BDD28"/>
</linearGradient>
<linearGradient id="paint16_linear_61_1451" x1="-253" y1="73" x2="1170" y2="1245" gradientUnits="userSpaceOnUse">
<stop stop-color="#0400DD" stop-opacity="0"/>
<stop offset="1" stop-color="#8BDD28"/>
</linearGradient>
<linearGradient id="paint17_linear_61_1451" x1="-253" y1="73" x2="1170" y2="1245" gradientUnits="userSpaceOnUse">
<stop stop-color="#0400DD" stop-opacity="0"/>
<stop offset="1" stop-color="#8BDD28"/>
</linearGradient>
<linearGradient id="paint18_linear_61_1451" x1="-253" y1="73" x2="1170" y2="1245" gradientUnits="userSpaceOnUse">
<stop stop-color="#0400DD" stop-opacity="0"/>
<stop offset="1" stop-color="#8BDD28"/>
</linearGradient>
<linearGradient id="paint19_linear_61_1451" x1="-253" y1="73" x2="1170" y2="1245" gradientUnits="userSpaceOnUse">
<stop stop-color="#0400DD" stop-opacity="0"/>
<stop offset="1" stop-color="#8BDD28"/>
</linearGradient>
<linearGradient id="paint20_linear_61_1451" x1="-253" y1="73" x2="1170" y2="1245" gradientUnits="userSpaceOnUse">
<stop stop-color="#0400DD" stop-opacity="0"/>
<stop offset="1" stop-color="#8BDD28"/>
</linearGradient>
<linearGradient id="paint21_linear_61_1451" x1="-253" y1="73" x2="1170" y2="1245" gradientUnits="userSpaceOnUse">
<stop stop-color="#0400DD" stop-opacity="0"/>
<stop offset="1" stop-color="#8BDD28"/>
</linearGradient>
<linearGradient id="paint22_linear_61_1451" x1="-253" y1="73" x2="1170" y2="1245" gradientUnits="userSpaceOnUse">
<stop stop-color="#0400DD" stop-opacity="0"/>
<stop offset="1" stop-color="#8BDD28"/>
</linearGradient>
<linearGradient id="paint23_linear_61_1451" x1="-253" y1="73" x2="1170" y2="1245" gradientUnits="userSpaceOnUse">
<stop stop-color="#0400DD" stop-opacity="0"/>
<stop offset="1" stop-color="#8BDD28"/>
</linearGradient>
<linearGradient id="paint24_linear_61_1451" x1="-253" y1="73" x2="1170" y2="1245" gradientUnits="userSpaceOnUse">
<stop stop-color="#0400DD" stop-opacity="0"/>
<stop offset="1" stop-color="#8BDD28"/>
</linearGradient>
<linearGradient id="paint25_linear_61_1451" x1="-253" y1="73" x2="1170" y2="1245" gradientUnits="userSpaceOnUse">
<stop stop-color="#0400DD" stop-opacity="0"/>
<stop offset="1" stop-color="#8BDD28"/>
</linearGradient>
<linearGradient id="paint26_linear_61_1451" x1="-253" y1="73" x2="1170" y2="1245" gradientUnits="userSpaceOnUse">
<stop stop-color="#0400DD" stop-opacity="0"/>
<stop offset="1" stop-color="#8BDD28"/>
</linearGradient>
<linearGradient id="paint27_linear_61_1451" x1="-253" y1="73" x2="1170" y2="1245" gradientUnits="userSpaceOnUse">
<stop stop-color="#0400DD" stop-opacity="0"/>
<stop offset="1" stop-color="#8BDD28"/>
</linearGradient>
<linearGradient id="paint28_linear_61_1451" x1="-253" y1="73" x2="1170" y2="1245" gradientUnits="userSpaceOnUse">
<stop stop-color="#0400DD" stop-opacity="0"/>
<stop offset="1" stop-color="#8BDD28"/>
</linearGradient>
<linearGradient id="paint29_linear_61_1451" x1="-253" y1="73" x2="1170" y2="1245" gradientUnits="userSpaceOnUse">
<stop stop-color="#0400DD" stop-opacity="0"/>
<stop offset="1" stop-color="#8BDD28"/>
</linearGradient>
<linearGradient id="paint30_linear_61_1451" x1="-253" y1="73" x2="1170" y2="1245" gradientUnits="userSpaceOnUse">
<stop stop-color="#0400DD" stop-opacity="0"/>
<stop offset="1" stop-color="#8BDD28"/>
</linearGradient>
<linearGradient id="paint31_linear_61_1451" x1="-253" y1="73" x2="1170" y2="1245" gradientUnits="userSpaceOnUse">
<stop stop-color="#0400DD" stop-opacity="0"/>
<stop offset="1" stop-color="#8BDD28"/>
</linearGradient>
</defs>
</svg>
