<svg width="320" height="250" viewBox="0 0 320 250" fill="none" xmlns="http://www.w3.org/2000/svg">
<path d="M-46.1232 212.622C-46.1232 212.622 -56.8994 132.021 89.9073 121.394C236.714 110.767 248.963 -18.2284 235.155 -75.6004" stroke="#FCEE21" stroke-width="0.528428" stroke-miterlimit="10"/>
<path d="M-44.7739 213.989C-44.7739 213.989 -52.8632 155.646 32.9195 125.938C47.7363 120.749 65.7366 117.172 87.2058 115.43C174.238 108.417 220.195 67.8991 234.692 19.5802C244.828 -13.5198 242.658 -50.8832 237.457 -72.4957" stroke="#FCE821" stroke-width="0.528428" stroke-miterlimit="10"/>
<path d="M-43.425 215.35C-43.425 215.35 -51.7667 157.293 31.0207 121.732C45.3427 115.466 63.1603 111.386 84.5089 109.469C170.766 101.8 222.812 69.19 237.256 23.2286C247.48 -9.30686 244.619 -49.2151 239.764 -69.3876" stroke="#FBE321" stroke-width="0.528428" stroke-miterlimit="10"/>
<path d="M-42.0757 216.715C-42.0757 216.715 -50.6675 158.948 29.1212 117.524C42.9485 110.179 60.5835 105.598 81.8073 103.502C167.291 95.1811 225.542 70.6396 239.813 26.8652C250.202 -5.00257 246.572 -47.5634 242.063 -66.296" stroke="#FBDD20" stroke-width="0.528428" stroke-miterlimit="10"/>
<path d="M-40.7272 218.076C-40.7272 218.076 -49.569 160.6 27.2194 113.313C40.5536 104.89 58.0028 99.8086 79.1059 97.5378C163.813 88.5598 228.286 72.1082 242.372 30.5094C252.93 -0.681297 248.529 -45.8993 244.366 -63.1919" stroke="#FBD720" stroke-width="0.528428" stroke-miterlimit="10"/>
<path d="M-39.3756 219.443C-39.3756 219.443 -48.1825 162.765 25.3223 109.108C38.2133 99.6988 55.4282 94.0235 76.4107 91.5775C160.342 81.943 231.049 73.6039 244.935 34.1537C255.672 3.65223 250.489 -44.2352 246.672 -60.0879" stroke="#FAD220" stroke-width="0.528428" stroke-miterlimit="10"/>
<path d="M-38.0269 220.806C-38.0269 220.806 -47.0591 164.453 23.4206 104.899C35.8236 94.4203 52.8467 88.2302 73.707 85.61C156.862 75.3189 233.818 75.109 247.491 37.795C258.414 7.99214 252.439 -42.5778 248.973 -56.9867" stroke="#FACC20" stroke-width="0.528428" stroke-miterlimit="10"/>
<path d="M-36.6796 222.169C-36.6796 222.169 -45.9446 166.127 21.5191 100.689C33.4314 89.136 50.2678 82.4403 71.0075 79.645C153.389 68.702 236.603 76.6338 250.052 41.4391C261.167 12.3425 254.397 -40.914 251.277 -53.8829" stroke="#FAC620" stroke-width="0.528428" stroke-miterlimit="10"/>
<path d="M-35.3284 223.537C-35.3284 223.537 -44.8371 167.781 19.62 96.4846C31.0376 83.8537 47.6898 76.6571 68.3063 73.682C149.912 62.0825 239.401 78.1828 252.61 45.0796C263.929 16.7078 256.353 -39.2536 253.579 -50.7826" stroke="#FAC120" stroke-width="0.528428" stroke-miterlimit="10"/>
<path d="M-33.9794 224.898C-33.9794 224.898 -43.7451 169.413 17.7227 92.278C28.6471 78.5683 45.1151 70.8707 65.6109 67.7205C146.441 55.4643 242.221 79.755 255.175 48.7272C266.707 21.0924 258.313 -37.591 255.888 -47.6754" stroke="#F9BB1F" stroke-width="0.528428" stroke-miterlimit="10"/>
<path d="M-32.6302 226.261C-32.6302 226.261 -42.6603 171.032 15.8216 88.0691C26.2503 73.2759 42.5365 65.0819 62.9102 61.7575C142.964 48.8447 245.05 81.3481 257.732 52.3685C269.492 25.4933 260.268 -35.9298 258.187 -44.5733" stroke="#F9B51F" stroke-width="0.528428" stroke-miterlimit="10"/>
<path d="M-31.2815 227.624C-31.2815 227.624 -41.5876 172.634 13.9215 83.8595C23.8505 67.9791 39.9591 59.2927 60.2096 55.7885C139.49 42.2238 247.895 82.9622 260.291 56.0085C272.294 29.9152 262.225 -34.27 260.49 -41.4736" stroke="#F9AF1F" stroke-width="0.528428" stroke-miterlimit="10"/>
<path d="M-29.9317 228.992C-29.9317 228.992 -40.7797 173.826 12.021 79.6559C21.4055 62.6163 37.3812 53.5093 57.5095 49.8307C136.014 35.6095 250.756 84.6092 262.849 59.6551C275.109 34.3653 264.181 -32.6036 262.792 -38.3672" stroke="#F8AA1F" stroke-width="0.528428" stroke-miterlimit="10"/>
<path d="M-28.5829 230.355C-28.5829 230.355 -39.6834 175.474 10.1211 75.4454C19.0109 57.3278 34.8024 47.7199 54.8116 43.8655C132.54 28.9876 253.633 86.271 265.413 63.298C277.95 38.8434 266.14 -30.9456 265.1 -35.2646" stroke="#F8A41F" stroke-width="0.528428" stroke-miterlimit="10"/>
<path d="M-27.234 231.716C-27.234 231.716 -38.5846 177.126 8.21963 71.2351C16.6147 52.0396 32.2235 41.93 52.108 37.8966C129.061 22.3622 256.522 87.9564 267.967 66.9335C280.805 43.3551 268.09 -29.2894 267.398 -32.1693" stroke="#F89E1E" stroke-width="0.528428" stroke-miterlimit="10"/>
<path d="M-25.8829 233.083C-25.8829 233.083 -37.4836 178.783 6.32447 67.0335C14.2263 46.7592 29.651 36.1487 49.4148 31.9402C125.594 15.7538 259.438 89.6867 270.534 70.5861C283.701 47.9288 270.055 -27.6171 269.706 -29.0617" stroke="#F7991E" stroke-width="0.528428" stroke-miterlimit="10"/>
<path d="M-24.534 234.446C-24.534 234.446 -36.3872 180.433 4.42305 62.825C40.2734 -40.4901 259.566 95.9137 273.091 74.2279C286.617 52.5412 272.007 -25.9601 272.007 -25.9601" stroke="#F7931E" stroke-width="0.528428" stroke-miterlimit="10"/>
<path d="M-23.0047 234.524C-22.9705 233.882 -31.1056 182.152 8.70725 69.5213C12.6818 58.4953 18.5921 49.9981 26.0696 43.79C85.8295 -5.84239 254.151 89.2569 267.663 68.0459C281.424 46.2092 268.503 -28.4126 268.503 -28.4126" stroke="#EE8D25" stroke-width="0.528428" stroke-miterlimit="10"/>
<path d="M-21.4761 234.6C-21.4092 233.316 -26.2999 183.171 12.9924 76.2155C16.9873 65.3406 22.7778 56.8359 29.9759 50.4901C86.0903 1.03118 247.26 84.9533 262.235 61.8627C276.228 39.8768 264.995 -30.871 264.995 -30.871" stroke="#E5862C" stroke-width="0.528428" stroke-miterlimit="10"/>
<path d="M-19.9466 234.679C-19.8455 232.752 -21.2108 184.605 17.2768 82.9128C21.3192 72.2283 26.9651 63.6814 33.8839 57.1979C86.3904 7.9822 240.468 80.8144 256.807 55.6817C271.115 33.6764 261.493 -33.3233 261.493 -33.3233" stroke="#DC8034" stroke-width="0.528428" stroke-miterlimit="10"/>
<path d="M-18.4178 234.755C-18.2825 232.186 -16.0901 186.085 21.5605 89.6077C25.6531 79.1183 31.1569 70.5338 37.7913 63.9033C86.7243 15.0023 233.601 76.5517 251.379 49.4983C265.933 27.3608 257.986 -35.7818 257.986 -35.7818" stroke="#D37A3B" stroke-width="0.528428" stroke-miterlimit="10"/>
<path d="M-16.8891 234.833C-16.7195 231.621 -10.934 187.612 25.8458 96.3027C29.991 86.013 35.3526 77.391 41.6987 70.6097C87.0982 22.0979 226.728 72.2807 245.952 43.3214C260.743 21.0385 254.48 -38.2339 254.48 -38.2339" stroke="#CA7342" stroke-width="0.528428" stroke-miterlimit="10"/>
<path d="M-15.3598 234.91C-15.1575 231.057 -5.74514 189.189 30.13 102.999C34.3294 92.9082 39.5483 84.2551 45.604 77.3119C87.5161 29.2786 219.849 67.9963 240.522 37.1349C255.548 14.7074 250.974 -40.6909 250.974 -40.6909" stroke="#C16D49" stroke-width="0.528428" stroke-miterlimit="10"/>
<path d="M-13.8308 234.988C-13.5943 230.493 -0.522704 190.814 34.4139 109.696C38.6725 99.813 43.7486 91.1286 49.5115 84.0189C87.9829 36.5471 212.965 63.7082 235.094 30.9532C250.351 8.37101 247.467 -43.1477 247.467 -43.1477" stroke="#B86650" stroke-width="0.528428" stroke-miterlimit="10"/>
<path d="M-12.3023 235.065C-12.0316 229.927 4.73151 192.486 38.6973 116.391C43.0151 106.716 47.9559 98.0146 53.4186 90.7245C88.4992 43.9071 206.076 59.4148 229.667 24.7755C245.151 2.03487 243.964 -45.5967 243.964 -45.5967" stroke="#AF6058" stroke-width="0.528428" stroke-miterlimit="10"/>
<path d="M-10.773 235.141C-10.4681 229.36 10.0254 194.215 42.9831 123.085C47.3667 113.627 52.1723 104.908 57.3256 97.4244C89.0728 51.3567 199.187 55.1103 224.238 18.5867C239.948 -4.31715 240.457 -48.0608 240.457 -48.0608" stroke="#A55A5F" stroke-width="0.528428" stroke-miterlimit="10"/>
<path d="M-9.24382 235.219C-8.90623 228.797 15.3539 195.999 47.2697 129.786C51.7215 120.549 56.3953 111.824 61.2342 104.137C89.7063 58.9195 192.29 50.8052 218.811 12.4104C234.746 -10.6566 236.951 -50.5122 236.951 -50.5122" stroke="#9C5366" stroke-width="0.528428" stroke-miterlimit="10"/>
<path d="M-7.71746 235.291C-7.34564 228.226 20.7144 197.83 51.551 136.476C56.0761 127.47 60.6246 118.746 65.1391 110.838C90.4 66.5742 185.268 46.2897 213.382 6.22797C229.47 -17.1197 233.445 -52.9652 233.445 -52.9652" stroke="#934D6D" stroke-width="0.528428" stroke-miterlimit="10"/>
<path d="M-6.18809 235.371C-5.78204 227.663 26.1177 199.732 55.8369 143.174C60.4419 134.407 64.8743 125.697 69.0487 117.546C91.1703 74.3474 178.381 41.9932 207.956 0.0471723C224.276 -23.4552 229.94 -55.4212 229.94 -55.4212" stroke="#8A4774" stroke-width="0.528428" stroke-miterlimit="10"/>
<path d="M-4.65942 235.447C-4.22071 227.098 31.556 201.689 60.1205 149.869C64.8128 141.355 69.1357 132.668 72.9534 124.246C92.012 82.2283 171.491 37.6948 202.527 -6.13635C219.081 -29.7879 226.436 -57.8751 226.436 -57.8751" stroke="#81407B" stroke-width="0.528428" stroke-miterlimit="10"/>
<path d="M-3.13041 235.523C-2.65747 226.532 37.0319 203.704 64.4044 156.564C69.1932 148.316 73.4181 139.67 76.8593 130.953C92.9364 90.2212 164.6 33.3969 197.098 -12.3186C213.883 -36.1249 222.929 -60.3334 222.929 -60.3334" stroke="#783A83" stroke-width="0.528428" stroke-miterlimit="10"/>
<path d="M-1.6018 235.601C-1.09463 225.967 42.5465 205.789 68.6895 163.259C73.5864 155.295 77.7305 146.71 80.7681 137.659C93.9542 98.3328 157.715 29.1031 191.67 -18.5005C208.687 -42.4559 219.422 -62.7905 219.422 -62.7905" stroke="#6F338A" stroke-width="0.528428" stroke-miterlimit="10"/>
<path d="M-0.0723145 235.679C0.576289 223.328 69.2206 200.605 84.6737 144.361C100.127 88.1173 215.915 -65.2474 215.915 -65.2474" stroke="#662D91" stroke-width="0.528428" stroke-miterlimit="10"/>
</svg>
