<svg width="1015" height="635" viewBox="0 0 1015 635" fill="none" xmlns="http://www.w3.org/2000/svg">
<path fill-rule="evenodd" clip-rule="evenodd" d="M468.071 784.18L300.895 905.794C265.565 931.495 217.986 896.971 231.462 855.411L240.737 826.808C243.675 817.748 249.405 809.851 257.107 804.248L399.968 700.323C415.768 688.829 437.173 688.816 452.987 700.292L468.028 711.206C492.827 729.201 492.849 766.156 468.071 784.18ZM658.969 810.151L590.606 600.179C584.558 581.6 591.16 561.24 606.96 549.745L696.006 484.968C738.066 454.371 716.401 387.828 664.389 387.859L554.274 387.925C534.736 387.937 517.411 375.366 511.363 356.787L456.671 188.804C453.722 179.748 453.716 169.99 456.654 160.93L494.898 42.9885C508.374 1.42886 567.158 1.39383 580.684 42.9375L659.457 284.885C666.658 307.002 687.282 321.968 710.543 321.954L964.991 321.802C1008.68 321.775 1026.88 377.672 991.549 403.373L785.786 553.057C766.976 566.74 759.116 590.98 766.317 613.097L845.09 855.044C858.616 896.588 811.079 931.169 775.718 905.51L675.366 832.692C667.658 827.098 661.918 819.208 658.969 810.151ZM307.143 388.073L73.5344 388.212C66.5784 388.216 59.7996 386.018 54.1696 381.933C28.3438 363.193 41.5864 322.353 73.4952 322.334L307.103 322.195C329.481 322.181 345.358 344.007 338.456 365.294C334.054 378.868 321.413 388.064 307.143 388.073ZM470.598 787.654C497.735 767.913 497.711 727.438 470.55 707.729L455.509 696.815C438.189 684.247 414.746 684.261 397.441 696.85L254.581 800.774C246.145 806.911 239.869 815.56 236.651 825.483L227.376 854.086C212.617 899.604 264.726 937.416 303.422 909.267L470.598 787.654ZM654.885 811.481C658.114 821.4 664.401 830.042 672.844 836.168L773.195 908.986C811.924 937.089 863.989 899.215 849.175 853.715L770.401 611.767C763.776 591.419 771.007 569.119 788.312 556.53L994.075 406.847C1032.77 378.698 1012.84 317.478 964.988 317.506L710.54 317.658C689.141 317.671 670.167 303.903 663.542 283.555L584.768 41.6076C569.954 -3.89246 505.571 -3.85415 490.812 41.6636L452.568 159.606C449.351 169.528 449.357 180.215 452.586 190.134L507.278 358.117C513.903 378.465 532.877 392.233 554.277 392.22L664.392 392.154C712.243 392.126 732.175 453.346 693.479 481.495L604.433 546.272C587.128 558.861 579.897 581.161 586.522 601.509L654.885 811.481ZM342.542 366.618C350.344 342.556 332.396 317.884 307.101 317.899L73.4926 318.039C37.4229 318.061 22.4534 364.226 51.647 385.409C58.0112 390.027 65.6739 392.512 73.537 392.507L307.145 392.368C323.276 392.358 337.566 381.963 342.542 366.618Z" fill="url(#paint0_linear_97_24)"/>
<path fill-rule="evenodd" clip-rule="evenodd" d="M479.636 785.507L318.22 914.668C284.107 941.964 234.993 909.661 246.547 867.526L254.499 838.528C257.018 829.342 262.38 821.19 269.816 815.24L407.754 704.866C423.01 692.658 444.392 691.663 460.716 702.4L476.242 712.612C501.841 729.449 503.56 766.364 479.636 785.507ZM671.525 802.686L593.594 596.074C586.699 577.793 592.359 557.15 607.615 544.943L693.593 476.146C734.204 443.65 709.507 378.172 657.551 380.591L547.555 385.712C528.038 386.621 510.155 374.858 503.259 356.577L440.912 191.282C437.551 182.371 437.097 172.624 439.616 163.439L472.404 43.8656C483.958 1.73109 542.679 -1.00293 558.098 39.8758L647.897 277.951C656.106 299.715 677.395 313.717 700.63 312.636L954.803 300.801C998.445 298.769 1019.19 353.771 985.078 381.068L786.404 540.041C768.242 554.573 761.504 579.148 769.713 600.911L859.511 838.987C874.93 879.866 829.031 916.593 792.529 892.584L688.94 824.45C680.983 819.216 674.887 811.598 671.525 802.686ZM300.691 397.206L67.3355 408.071C60.387 408.395 53.5145 406.51 47.7029 402.688C21.0439 385.153 32.3975 343.749 64.2717 342.264L297.627 331.399C319.98 330.359 336.843 351.432 330.925 373.013C327.152 386.775 314.946 396.542 300.691 397.206ZM482.32 788.861C508.522 767.895 506.64 727.464 478.603 709.023L463.076 698.811C445.197 687.052 421.78 688.142 405.071 701.512L267.133 811.886C258.988 818.403 253.115 827.332 250.357 837.392L242.405 866.391C229.751 912.538 283.541 947.918 320.904 918.022L482.32 788.861ZM667.506 804.202C671.188 813.963 677.865 822.307 686.58 828.039L790.169 896.173C830.147 922.468 880.418 882.243 863.53 837.471L773.732 599.396C766.179 579.373 772.379 556.764 789.088 543.394L987.761 384.422C1025.12 354.526 1002.4 294.285 954.603 296.511L700.43 308.345C679.054 309.34 659.468 296.458 651.916 276.435L562.117 38.3599C545.23 -6.41203 480.916 -3.41769 468.262 42.7297L435.474 162.303C432.715 172.363 433.212 183.038 436.894 192.798L499.24 358.093C506.792 378.115 526.379 390.998 547.755 390.003L657.751 384.881C705.55 382.656 728.272 442.896 690.91 472.792L604.931 541.589C588.223 554.959 582.023 577.568 589.575 597.59L667.506 804.202ZM335.068 374.149C341.757 349.754 322.696 325.932 297.427 327.109L64.0719 337.974C28.0413 339.651 15.2071 386.455 45.3425 406.276C51.912 410.597 59.6807 412.727 67.5353 412.362L300.891 401.497C317.004 400.746 330.802 389.706 335.068 374.149Z" fill="url(#paint1_linear_97_24)"/>
<path fill-rule="evenodd" clip-rule="evenodd" d="M491.227 786.302L335.899 922.725C303.073 951.556 252.531 921.537 262.141 878.918L268.756 849.585C270.851 840.294 275.834 831.905 282.99 825.619L415.725 709.04C430.405 696.146 451.718 694.172 468.518 704.149L484.496 713.639C510.839 729.286 514.248 766.083 491.227 786.302ZM683.702 794.67L596.383 591.846C588.657 573.9 593.366 553.02 608.046 540.126L690.781 467.461C729.86 433.138 702.188 368.86 650.398 373.658L540.752 383.815C521.297 385.617 502.893 374.686 495.167 356.74L425.311 194.477C421.545 185.729 420.645 176.013 422.74 166.722L450.014 45.7714C459.625 3.15161 518.158 -2.27061 535.435 37.8586L636.05 271.568C645.247 292.933 667.156 305.945 690.317 303.8L943.68 280.329C987.184 276.299 1010.43 330.293 977.602 359.124L786.423 527.035C768.946 542.385 763.341 567.242 772.539 588.607L873.154 822.317C890.43 862.446 846.262 901.238 808.698 878.927L702.095 815.612C693.907 810.749 687.468 803.418 683.702 794.67ZM294.674 406.61L62.0618 428.158C55.1354 428.8 48.1837 427.232 42.203 423.68C14.7684 407.386 24.2126 365.504 55.9853 362.561L288.598 341.013C310.88 338.949 328.69 359.228 323.768 381.057C320.629 394.978 308.883 405.294 294.674 406.61ZM494.061 789.53C519.275 767.385 515.542 727.083 486.689 709.946L470.711 700.456C452.312 689.528 428.969 691.691 412.89 705.813L280.155 822.392C272.318 829.276 266.861 838.464 264.566 848.64L257.951 877.973C247.425 924.652 302.781 957.529 338.734 925.952L494.061 789.53ZM679.756 796.368C683.881 805.949 690.933 813.979 699.902 819.305L806.505 882.62C847.646 907.056 896.02 864.569 877.099 820.618L776.484 586.908C768.022 567.253 773.179 544.384 789.257 530.262L980.437 362.351C1016.39 330.775 990.931 271.639 943.284 276.053L689.921 299.523C668.613 301.497 648.457 289.525 639.995 269.87L539.38 36.1601C520.458 -7.79086 456.35 -1.85233 445.824 44.8265L418.55 165.777C416.255 175.953 417.241 186.594 421.366 196.175L491.222 358.439C499.684 378.094 519.84 390.065 541.149 388.092L650.794 377.935C698.441 373.521 723.9 432.656 687.947 464.233L605.212 536.899C589.133 551.02 583.976 573.889 592.438 593.545L679.756 796.368ZM327.958 382.002C333.522 357.326 313.389 334.403 288.201 336.736L55.5891 358.284C19.6732 361.611 8.99747 408.954 40.0096 427.373C46.7702 431.388 54.6284 433.16 62.4579 432.435L295.07 410.887C311.132 409.399 324.41 397.738 327.958 382.002Z" fill="url(#paint2_linear_97_24)"/>
<path fill-rule="evenodd" clip-rule="evenodd" d="M502.75 786.561L353.784 929.903C322.301 960.197 270.447 932.506 278.111 889.494L283.385 859.891C285.056 850.514 289.652 841.907 296.515 835.303L423.813 712.811C437.893 699.263 459.094 696.322 476.329 705.525L492.723 714.279C519.75 728.712 524.828 765.317 502.75 786.561ZM695.406 786.171L598.959 587.526C590.425 569.95 594.179 548.877 608.258 535.329L687.605 458.979C725.083 422.915 694.518 359.961 642.999 367.108L533.929 382.238C514.575 384.923 495.694 374.841 487.16 357.264L410.001 198.344C405.841 189.776 404.5 180.111 406.171 170.734L427.919 48.6691C435.582 5.65653 493.809 -2.42069 512.891 36.8818L624.026 265.777C634.185 286.701 656.662 298.704 679.702 295.508L931.737 260.545C975.012 254.542 1000.69 307.423 969.205 337.717L785.855 514.144C769.095 530.272 764.625 555.359 774.784 576.283L885.919 805.178C905.001 844.481 862.642 885.24 824.103 864.66L714.732 806.256C706.331 801.77 699.566 794.739 695.406 786.171ZM289.141 416.196L57.7488 448.295C50.8587 449.25 43.843 448 37.707 444.724C9.56015 429.693 17.0909 387.426 48.6969 383.042L280.089 350.943C302.255 347.868 320.969 367.316 317.043 389.347C314.54 403.396 303.276 414.235 289.141 416.196ZM505.728 789.657C529.909 766.388 524.347 726.298 494.746 710.49L478.353 701.737C459.476 691.656 436.255 694.878 420.835 709.715L293.537 832.208C286.02 839.441 280.986 848.868 279.156 859.137L273.882 888.74C265.489 935.849 322.281 966.177 356.762 932.998L505.728 789.657ZM691.542 788.047C696.098 797.431 703.508 805.131 712.709 810.045L822.08 868.449C864.289 890.989 910.682 846.348 889.783 803.302L778.648 574.407C769.302 555.157 773.414 532.077 788.834 517.239L972.183 340.812C1006.66 307.633 978.544 249.716 931.147 256.291L679.112 291.253C657.915 294.194 637.236 283.151 627.89 263.901L516.755 35.0057C495.856 -8.03982 432.083 0.806596 423.69 47.9156L401.942 169.981C400.112 180.25 401.581 190.836 406.137 200.22L483.297 359.14C492.643 378.391 513.323 389.433 534.519 386.493L643.59 371.363C690.987 364.788 719.107 422.705 684.627 455.884L605.28 532.234C589.86 547.072 585.748 570.152 595.095 589.402L691.542 788.047ZM321.272 390.1C325.709 365.197 304.555 343.212 279.499 346.688L48.1067 378.787C12.3792 383.743 3.86642 431.522 35.6838 448.513C42.6199 452.217 50.5505 453.63 58.339 452.549L289.731 420.45C305.709 418.234 318.443 405.981 321.272 390.1Z" fill="url(#paint3_linear_97_24)"/>
<path fill-rule="evenodd" clip-rule="evenodd" d="M514.382 786.294L372.154 936.324C342.096 968.031 289.025 942.75 294.706 899.431L298.615 869.617C299.854 860.174 304.05 851.365 310.602 844.453L432.143 716.245C445.585 702.065 466.629 698.153 484.269 706.556L501.047 714.548C528.708 727.725 535.461 764.057 514.382 786.294ZM706.817 777.058L601.351 583.051C592.019 565.885 594.802 544.662 608.245 530.482L684.002 450.569C719.785 412.823 686.362 351.339 635.225 360.843L526.965 380.965C507.755 384.536 488.431 375.331 479.099 358.165L394.724 202.954C390.175 194.587 388.392 184.993 389.63 175.55L405.751 52.6151C411.432 9.29604 469.226 -1.44599 490.093 36.9389L611.619 260.49C622.729 280.926 645.734 291.884 668.602 287.634L918.766 241.136C961.72 233.153 989.796 284.799 959.738 316.506L784.682 501.165C768.679 518.046 765.366 543.311 776.475 563.747L898.001 787.298C918.868 825.683 878.425 868.345 838.982 849.556L727.045 796.235C718.447 792.139 711.366 785.426 706.817 777.058ZM283.994 426.126L54.3194 468.815C47.4805 470.086 40.4148 469.159 34.1349 466.168C5.32758 452.445 10.9098 409.877 42.2812 404.046L271.956 361.357C293.957 357.268 313.544 375.836 310.634 398.024C308.779 412.173 298.024 423.518 283.994 426.126ZM517.499 789.249C540.586 764.895 533.19 725.102 502.894 710.67L486.116 702.678C466.796 693.475 443.748 697.759 429.026 713.29L307.485 841.497C300.308 849.068 295.713 858.716 294.356 869.059L290.447 898.873C284.225 946.317 342.35 974.005 375.271 939.279L517.499 789.249ZM703.043 779.11C708.025 788.275 715.781 795.627 725.198 800.113L837.135 853.434C880.335 874.012 924.629 827.288 901.775 785.247L780.249 561.696C770.028 542.895 773.076 519.651 787.799 504.12L962.855 319.461C995.776 284.735 965.026 228.169 917.981 236.913L667.817 283.411C646.778 287.321 625.614 277.239 615.393 258.438L493.867 34.8873C471.013 -7.15318 407.714 4.61187 401.492 52.0566L385.372 174.992C384.015 185.334 385.968 195.841 390.95 205.006L475.325 360.216C485.546 379.017 506.71 389.099 527.75 385.188L636.01 365.066C683.056 356.322 713.805 412.887 680.885 447.614L605.127 527.527C590.405 543.057 587.357 566.301 597.577 585.103L703.043 779.11ZM314.893 398.583C318.182 373.502 296.041 352.512 271.171 357.134L41.4963 399.823C6.03399 406.414 -0.276156 454.534 32.2877 470.046C39.3865 473.427 47.3737 474.474 55.1043 473.038L284.779 430.349C300.638 427.401 312.796 414.576 314.893 398.583Z" fill="url(#paint4_linear_97_24)"/>
<path fill-rule="evenodd" clip-rule="evenodd" d="M525.974 785.495L390.772 941.885C362.198 974.937 308.025 952.115 311.714 908.581L314.253 878.619C315.057 869.129 318.846 860.137 325.074 852.932L440.612 719.288C453.39 704.508 474.233 699.636 492.239 707.221L509.365 714.436C537.602 726.331 546.013 762.316 525.974 785.495ZM717.784 767.45L603.538 578.48C593.429 561.76 595.237 540.432 608.015 525.651L680.031 442.35C714.046 403.003 677.84 343.115 627.193 354.953L519.968 380.016C500.942 384.463 481.217 376.153 471.108 359.433L379.709 208.252C374.781 200.102 372.56 190.601 373.365 181.11L383.834 57.5657C387.524 14.0318 444.765 0.652322 467.369 38.0406L599.013 255.787C611.047 275.693 634.53 285.585 657.18 280.291L904.95 222.378C947.493 212.434 977.906 262.74 949.333 295.791L782.923 488.279C767.711 505.875 765.559 531.266 777.594 551.171L909.237 768.918C931.841 806.306 893.396 850.776 853.133 833.815L738.87 785.68C730.093 781.982 722.712 775.601 717.784 767.45ZM279.323 436.264L51.8458 489.434C45.0724 491.017 37.9716 490.415 31.5612 487.715C2.15525 475.327 5.7807 432.547 36.852 425.285L264.329 372.115C286.119 367.022 306.537 384.673 304.647 406.971C303.442 421.19 293.218 433.016 279.323 436.264ZM529.224 788.304C551.171 762.918 541.959 723.506 511.033 710.478L493.906 703.263C474.185 694.955 451.358 700.291 437.362 716.479L321.825 850.123C315.003 858.014 310.854 867.862 309.973 878.256L307.434 908.218C303.393 955.898 362.727 980.894 394.021 944.695L529.224 788.304ZM714.108 769.673C719.505 778.599 727.589 785.588 737.203 789.638L851.465 837.773C895.563 856.35 937.669 807.645 912.913 766.696L781.269 548.949C770.198 530.636 772.177 507.276 786.173 491.088L952.582 298.6C983.877 262.401 950.567 207.305 903.972 218.196L656.202 276.109C635.364 280.979 613.76 271.878 602.689 253.565L471.045 35.8183C446.289 -5.1307 383.595 9.52292 379.555 57.2029L369.085 180.748C368.204 191.142 370.636 201.548 376.033 210.475L467.432 361.655C478.504 379.968 500.108 389.069 520.946 384.198L628.171 359.136C674.766 348.245 708.076 403.342 676.781 439.54L604.766 522.842C590.77 539.03 588.791 562.39 599.862 580.702L714.108 769.673ZM308.927 407.334C311.063 382.128 287.983 362.175 263.351 367.932L35.8743 421.102C0.751375 429.312 -3.34689 477.67 29.8936 491.673C37.14 494.726 45.1667 495.406 52.8234 493.616L280.3 440.446C296.008 436.775 307.565 423.407 308.927 407.334Z" fill="url(#paint5_linear_97_24)"/>
<path fill-rule="evenodd" clip-rule="evenodd" d="M536.618 784.287L408.143 946.249C380.991 980.478 325.901 959.965 327.749 916.314L329.02 886.272C329.423 876.756 332.827 867.612 338.746 860.15L448.535 721.746C460.678 706.438 481.296 700.69 499.607 707.508L517.023 713.993C545.736 724.685 555.66 760.283 536.618 784.287ZM727.495 758.156L605.369 574.181C594.563 557.902 595.467 536.517 607.61 521.21L676.042 434.941C708.366 394.192 669.662 335.888 619.561 349.855L513.49 379.424C494.669 384.671 474.61 377.202 463.804 360.923L366.1 213.738C360.833 205.803 358.213 196.404 358.615 186.888L363.857 63.0116C365.705 19.3608 422.33 3.57541 446.493 39.9756L587.217 251.967C600.081 271.346 623.961 280.238 646.367 273.992L891.469 205.665C933.554 193.933 966.065 242.909 938.914 277.137L780.784 476.483C766.328 494.706 765.251 520.165 778.115 539.544L918.839 751.536C943.002 787.936 906.47 833.99 865.526 818.744L749.332 775.479C740.406 772.156 732.762 766.092 727.495 758.156ZM275.435 445.786L50.4074 508.518C43.7069 510.385 36.587 510.084 30.0683 507.657C0.165347 496.522 1.98052 453.628 32.7173 445.059L257.745 382.328C279.301 376.319 300.446 393.092 299.5 415.45C298.896 429.707 289.181 441.954 275.435 445.786ZM539.984 786.957C560.839 760.666 549.97 721.678 518.521 709.968L501.106 703.483C481.051 696.016 458.469 702.311 445.17 719.076L335.381 857.481C328.899 865.653 325.17 875.668 324.729 886.09L323.457 916.132C321.434 963.941 381.77 986.407 411.508 948.919L539.984 786.957ZM723.916 760.532C729.685 769.223 738.058 775.864 747.833 779.504L864.027 822.77C908.87 839.467 948.882 789.027 922.417 749.16L781.694 537.168C769.859 519.339 770.85 495.917 784.149 479.152L942.279 279.807C972.016 242.318 936.409 188.678 890.316 201.527L645.214 269.855C624.6 275.601 602.63 267.421 590.795 249.592L450.072 37.6C423.607 -2.2668 361.589 15.022 359.566 62.8301L354.324 186.707C353.883 197.129 356.753 207.423 362.522 216.114L460.226 363.298C472.061 381.127 494.03 389.308 514.644 383.561L620.714 353.992C666.808 341.143 702.415 394.783 672.677 432.271L604.245 518.54C590.946 535.306 589.955 558.728 601.79 576.557L723.916 760.532ZM303.791 415.632C304.861 390.358 280.958 371.398 256.592 378.191L31.5639 440.922C-3.18097 450.608 -5.23294 499.096 28.5694 511.682C35.9383 514.426 43.9866 514.767 51.5608 512.655L276.589 449.924C292.127 445.592 303.109 431.748 303.791 415.632Z" fill="url(#paint6_linear_97_24)"/>
<path fill-rule="evenodd" clip-rule="evenodd" d="M548.108 782.466L427.204 950.156C401.652 985.595 345.679 967.633 345.52 923.943L345.411 893.874C345.376 884.35 348.357 875.059 353.928 867.334L457.246 724.035C468.673 708.186 489.006 701.497 507.61 707.467L525.305 713.146C554.48 722.508 566.027 757.613 548.108 782.466ZM737.583 747.599L607.139 569.425C595.597 553.66 595.519 532.255 606.946 516.406L671.346 427.087C701.764 384.897 660.424 328.431 611.017 344.683L506.416 379.091C487.855 385.197 467.475 378.657 455.933 362.891L351.574 220.348C345.948 212.663 342.899 203.394 342.864 193.87L342.413 69.8831C342.255 26.1934 398.096 7.82486 423.904 43.0772L574.213 248.384C587.953 267.153 612.216 274.939 634.312 267.67L876.018 188.162C917.521 174.51 952.246 221.941 926.694 257.381L777.883 463.776C764.28 482.643 764.373 508.125 778.113 526.893L928.422 732.2C954.23 767.453 919.851 815.136 878.25 801.786L760.193 763.901C751.124 760.991 743.209 755.284 737.583 747.599ZM271.659 456.314L49.7483 529.31C43.1405 531.484 36.0144 531.51 29.391 529.384C-0.991573 519.635 -1.14768 476.702 29.1633 466.731L251.074 393.735C272.331 386.742 294.224 402.527 294.305 424.904C294.357 439.174 285.214 451.855 271.659 456.314ZM551.592 784.978C571.218 757.758 558.571 719.31 526.618 709.056L508.923 703.378C488.547 696.839 466.277 704.164 453.762 721.522L350.443 864.822C344.343 873.283 341.077 883.458 341.115 893.89L341.225 923.959C341.399 971.81 402.703 991.482 430.688 952.668L551.592 784.978ZM734.117 750.137C740.279 758.553 748.948 764.803 758.88 767.991L876.938 805.876C922.5 820.497 960.154 768.273 931.887 729.663L781.579 524.356C768.938 507.089 768.852 483.646 781.368 466.288L930.178 259.893C958.163 221.078 920.131 169.129 874.676 184.082L632.97 263.59C612.642 270.277 590.32 263.114 577.678 245.847L427.37 40.5398C399.103 1.9302 337.944 22.0481 338.118 69.8987L338.569 193.885C338.607 204.317 341.946 214.468 348.109 222.885L452.467 365.429C465.108 382.695 487.43 389.859 507.758 383.172L612.359 348.764C657.814 333.811 695.846 385.76 667.861 424.575L603.462 513.894C590.947 531.253 591.032 554.695 603.673 571.962L734.117 750.137ZM298.6 424.889C298.508 399.593 273.761 381.75 249.732 389.655L27.8211 462.651C-6.44242 473.922 -6.266 522.453 28.0786 533.474C35.5656 535.877 43.6211 535.848 51.0904 533.391L273.001 460.394C288.324 455.354 298.659 441.02 298.6 424.889Z" fill="url(#paint7_linear_97_24)"/>
<path fill-rule="evenodd" clip-rule="evenodd" d="M559.492 780.126L446.4 953.181C422.499 989.754 365.762 974.376 363.601 930.739L362.113 900.707C361.642 891.194 364.195 881.776 369.405 873.804L466.048 725.92C476.737 709.564 496.741 701.951 515.6 707.062L533.536 711.924C563.109 719.939 576.253 754.478 559.492 780.126ZM747.17 736.613L608.697 564.604C596.445 549.384 595.386 528.005 606.075 511.65L666.313 419.472C694.767 375.933 650.882 321.421 602.272 339.921L499.357 379.086C481.096 386.036 460.437 380.436 448.185 365.217L337.404 227.605C331.431 220.186 327.961 211.067 327.489 201.554L321.357 77.7187C319.196 34.0822 374.136 13.1738 401.533 47.2063L561.093 245.409C575.679 263.528 600.273 270.194 622.013 261.921L859.822 171.419C900.655 155.879 937.517 201.669 913.617 238.242L774.421 451.24C761.696 470.712 762.957 496.162 777.543 514.281L937.102 712.484C964.5 746.517 932.341 795.725 890.173 784.296L770.503 751.861C761.31 749.369 753.143 744.032 747.17 736.613ZM268.386 466.986L50.0541 550.076C43.5529 552.55 36.4354 552.902 29.7216 551.083C-1.07589 542.735 -3.19939 499.855 26.6228 488.506L244.955 405.416C265.869 397.457 288.462 412.222 289.569 434.572C290.275 448.824 281.723 461.91 268.386 466.986ZM563.088 782.476C581.445 754.385 567.049 716.557 534.66 707.778L516.723 702.917C496.069 697.319 474.159 705.657 462.452 723.57L365.809 871.454C360.103 880.186 357.307 890.5 357.823 900.919L359.311 930.952C361.677 978.744 423.818 995.587 449.995 955.531L563.088 782.476ZM743.824 739.306C750.366 747.432 759.311 753.278 769.379 756.007L889.049 788.442C935.234 800.959 970.455 747.064 940.448 709.791L780.889 511.588C767.469 494.918 766.31 471.504 778.017 453.59L917.212 240.592C943.389 200.536 903.016 150.385 858.294 167.404L620.485 257.906C600.485 265.518 577.858 259.385 564.439 242.716L404.879 44.5128C374.873 7.23915 314.7 30.1387 317.067 77.9311L323.199 201.767C323.715 212.185 327.516 222.173 334.058 230.299L444.839 367.91C458.258 384.579 480.885 390.712 500.885 383.101L603.8 343.935C648.521 326.915 688.895 377.067 662.718 417.123L602.479 509.3C590.773 527.213 591.932 550.628 605.352 567.297L743.824 739.306ZM293.859 434.359C292.608 409.095 267.069 392.404 243.427 401.402L25.095 484.491C-8.61597 497.321 -6.21562 545.793 28.598 555.228C36.1873 557.285 44.2329 556.887 51.5818 554.09L269.914 471C284.99 465.263 294.657 450.47 293.859 434.359Z" fill="url(#paint8_linear_97_24)"/>
<path fill-rule="evenodd" clip-rule="evenodd" d="M570.662 777.289L465.552 955.305C443.339 992.927 385.961 980.144 381.819 936.651L378.968 906.717C378.065 897.235 380.187 887.711 385.029 879.51L474.85 727.386C484.784 710.562 504.422 702.047 523.494 706.296L541.633 710.337C571.54 717 586.24 750.905 570.662 777.289ZM756.168 725.29L610.02 559.753C597.088 545.105 595.059 523.797 604.993 506.973L660.979 412.153C687.424 367.365 641.107 314.904 593.388 335.594L492.36 379.397C474.434 387.169 453.542 382.515 440.61 367.868L323.688 235.434C317.385 228.294 313.503 219.342 312.6 209.861L300.845 86.4319C296.703 42.9388 350.636 19.5547 379.552 52.3067L547.956 243.052C563.35 260.489 588.222 266.03 609.563 256.777L843.012 155.559C883.097 138.18 922.003 182.247 899.789 219.869L770.419 438.974C758.593 459.003 761.009 484.37 776.403 501.807L944.807 692.553C973.723 725.305 943.835 775.924 901.19 766.423L780.17 739.462C770.873 737.391 762.471 732.43 756.168 725.29ZM265.623 477.705L51.2935 570.633C44.9115 573.4 37.8174 574.075 31.0278 572.563C-0.117257 565.624 -4.18767 522.885 25.0878 510.191L239.417 417.263C259.948 408.362 283.189 422.084 285.311 444.361C286.664 458.567 278.715 472.028 265.623 477.705ZM574.36 779.473C591.422 750.576 575.322 713.442 542.567 706.145L524.428 702.103C503.54 697.45 482.032 706.775 471.152 725.203L381.331 877.326C376.027 886.309 373.703 896.739 374.692 907.124L377.543 937.058C382.08 984.693 444.922 998.694 469.251 957.489L574.36 779.473ZM752.948 728.133C759.852 735.952 769.054 741.386 779.236 743.654L900.256 770.616C946.962 781.021 979.697 725.581 948.027 689.71L779.623 498.964C765.46 482.922 763.237 459.585 774.118 441.158L903.488 222.053C927.817 180.848 885.206 132.584 841.304 151.619L607.854 252.837C588.221 261.349 565.339 256.251 551.176 240.209L382.772 49.4638C351.102 13.5927 292.032 39.2037 296.569 86.8391L308.324 210.268C309.313 220.652 313.564 230.457 320.468 238.277L437.39 370.71C451.553 386.753 474.435 391.85 494.069 383.338L595.097 339.535C638.999 320.5 681.61 368.764 657.281 409.969L601.294 504.789C590.414 523.216 592.637 546.553 606.8 562.595L752.948 728.133ZM289.587 443.954C287.188 418.772 260.917 403.26 237.709 413.323L23.3791 506.251C-9.71384 520.599 -5.11271 568.912 30.0938 576.755C37.7687 578.465 45.7879 577.701 53.0021 574.573L267.332 481.645C282.131 475.229 291.116 460.012 289.587 443.954Z" fill="url(#paint9_linear_97_24)"/>
<path fill-rule="evenodd" clip-rule="evenodd" d="M581.799 773.915L484.973 956.569C464.511 995.171 406.607 985.036 400.472 941.779L396.249 912.007C394.912 902.577 396.594 892.966 401.055 884.551L483.797 728.464C492.948 711.201 512.175 701.794 531.421 705.162L549.727 708.366C579.908 713.649 596.149 746.844 581.799 773.915ZM764.722 713.453L611.128 554.801C597.537 540.763 594.532 519.57 603.683 502.307L655.257 405.017C679.617 359.062 630.941 308.783 584.222 331.642L485.312 380.037C467.761 388.625 446.677 384.934 433.087 370.896L310.208 243.971C303.583 237.128 299.295 228.363 297.957 218.933L280.548 96.1742C274.413 52.9172 327.216 27.0815 357.605 58.4714L534.588 241.284C550.768 257.996 575.868 262.389 596.761 252.166L825.317 140.337C864.561 121.135 905.449 163.37 884.987 201.971L765.813 426.785C754.918 447.336 758.496 472.566 774.675 489.278L951.659 672.09C982.048 703.48 954.516 755.418 911.48 747.885L789.349 726.508C779.968 724.866 771.347 720.296 764.722 713.453ZM263.327 488.652L53.4901 591.322C47.2419 594.379 40.1863 595.38 33.3344 594.18C1.90359 588.679 -4.12482 546.171 24.537 532.148L234.374 429.477C254.474 419.642 278.321 432.283 281.463 454.439C283.467 468.568 276.145 482.38 263.327 488.652ZM585.594 775.927C601.311 746.277 583.523 709.921 550.467 704.135L532.162 700.931C511.082 697.242 490.025 707.545 480.002 726.452L397.26 882.539C392.375 891.756 390.532 902.282 391.997 912.61L396.219 942.382C402.938 989.759 466.357 1000.86 488.768 958.581L585.594 775.927ZM761.636 716.441C768.892 723.936 778.334 728.941 788.609 730.739L910.739 752.116C957.874 760.366 988.028 703.482 954.745 669.102L777.761 486.29C762.877 470.915 759.585 447.704 769.608 428.797L888.782 203.983C911.193 161.705 866.411 115.448 823.429 136.478L594.873 248.308C575.651 257.713 552.559 253.671 537.675 238.296L360.691 55.4837C327.408 21.1044 269.576 49.4005 276.295 96.7774L293.705 219.536C295.169 229.864 299.866 239.464 307.122 246.958L430.001 373.884C444.885 389.259 467.977 393.301 487.199 383.896L586.109 335.5C629.091 314.47 673.873 360.727 651.462 403.005L599.888 500.296C589.865 519.203 593.157 542.414 608.042 557.788L761.636 716.441ZM285.716 453.836C282.164 428.791 255.208 414.502 232.486 425.619L22.6492 528.289C-9.75011 544.142 -2.93563 592.193 32.5939 598.411C40.3392 599.767 48.3149 598.636 55.3779 595.18L265.215 492.51C279.704 485.42 287.981 469.807 285.716 453.836Z" fill="url(#paint10_linear_97_24)"/>
<path fill-rule="evenodd" clip-rule="evenodd" d="M592.753 770.038L504.4 956.938C485.728 996.437 427.42 988.966 419.31 946.036L413.727 916.489C411.959 907.13 413.199 897.452 417.27 888.841L492.771 729.126C501.122 711.462 519.897 701.184 539.277 703.667L557.711 706.028C588.102 709.922 605.848 742.338 592.753 770.038ZM772.713 701.257L612.009 549.81C597.79 536.41 593.816 515.378 602.167 497.713L649.228 398.161C671.457 351.139 620.527 303.143 574.905 328.119L478.316 380.997C461.178 390.379 439.947 387.659 425.727 374.258L297.161 253.098C290.229 246.565 285.544 238.007 283.776 228.648L260.758 106.816C252.648 63.8853 304.211 35.6568 336.007 65.6211L521.182 240.13C538.11 256.083 563.385 259.322 583.788 248.152L806.979 125.966C845.302 104.986 888.083 145.302 869.411 184.801L760.665 414.84C750.724 435.869 755.454 460.908 772.382 476.861L957.558 651.37C989.354 681.334 964.231 734.48 920.895 728.927L797.913 713.17C788.466 711.959 779.645 707.789 772.713 701.257ZM261.543 499.67L56.6314 611.849C50.5299 615.189 43.5276 616.512 36.6279 615.628C4.97803 611.573 -2.99211 569.386 24.9969 554.064L229.908 441.885C249.537 431.139 273.938 442.674 278.092 464.662C280.741 478.684 274.06 492.817 261.543 499.67ZM596.636 771.874C610.978 741.535 591.542 706.033 558.256 701.768L539.823 699.406C518.597 696.687 498.034 707.944 488.888 727.291L413.386 887.006C408.928 896.436 407.57 907.036 409.507 917.286L415.089 946.833C423.972 993.852 487.833 1002.03 508.283 958.774L596.636 771.874ZM769.767 704.383C777.359 711.537 787.02 716.105 797.367 717.43L920.349 733.188C967.812 739.269 995.328 681.062 960.504 648.244L775.328 473.735C759.755 459.058 755.403 436.023 764.548 416.676L873.294 186.637C893.745 143.376 846.89 99.2198 804.917 122.198L581.726 244.384C562.955 254.66 539.702 251.681 524.128 237.004L338.952 62.4951C304.129 29.6773 247.655 60.594 256.538 107.613L279.555 229.445C281.492 239.695 286.623 249.069 294.215 256.223L422.781 377.384C438.355 392.061 461.608 395.04 480.379 384.764L576.967 331.887C618.94 308.909 665.795 353.065 645.345 396.326L598.284 495.877C589.138 515.224 593.49 538.26 609.064 552.936L769.767 704.383ZM282.312 463.865C277.616 439.009 250.034 425.97 227.845 438.117L22.9343 550.296C-8.7045 567.617 0.304901 615.305 36.0821 619.889C43.8814 620.888 51.7969 619.393 58.6941 615.617L263.605 503.437C277.755 495.691 285.307 479.715 282.312 463.865Z" fill="url(#paint11_linear_97_24)"/>
<path fill-rule="evenodd" clip-rule="evenodd" d="M602.251 766.207L521.52 956.524C504.459 996.745 445.897 991.636 436.059 949.068L429.287 919.771C427.143 910.491 427.991 900.77 431.71 892.002L500.698 729.368C508.328 711.38 526.673 700.352 546.137 702.05L564.651 703.665C595.175 706.328 614.216 738 602.251 766.207ZM779.285 690.212L612.595 545.381C597.846 532.566 593.026 511.711 600.656 493.724L643.657 392.352C663.968 344.47 611.141 298.571 566.565 325.37L472.191 382.106C455.446 392.173 434.122 390.313 419.373 377.498L286.017 261.63C278.827 255.383 273.8 247.02 271.655 237.741L243.735 116.938C233.896 74.3699 284.277 44.0816 317.257 72.7369L509.332 239.623C526.89 254.879 552.275 257.094 572.211 245.109L790.283 114.006C827.727 91.4951 872.102 130.051 855.041 170.272L755.677 404.516C746.593 425.929 752.331 450.756 769.89 466.012L961.964 632.899C994.944 661.554 971.989 715.671 928.464 711.874L804.946 701.097C795.458 700.27 786.475 696.459 779.285 690.212ZM260.389 509.439L60.1764 629.805C54.2148 633.389 47.2716 634.994 40.3419 634.389C8.55403 631.616 -1.11382 589.786 26.2333 573.345L226.446 452.979C245.624 441.449 270.471 451.989 275.51 473.792C278.723 487.696 272.619 502.087 260.389 509.439ZM606.205 767.885C619.31 736.991 598.455 702.303 565.024 699.386L546.511 697.771C525.192 695.911 505.101 707.99 496.744 727.69L427.756 890.325C423.682 899.928 422.753 910.574 425.102 920.738L431.874 950.035C442.649 996.657 506.788 1002.25 525.475 958.201L606.205 767.885ZM776.468 693.455C784.342 700.296 794.181 704.47 804.572 705.376L928.091 716.153C975.761 720.312 1000.9 661.041 964.782 629.657L772.707 462.77C756.553 448.735 751.274 425.894 759.631 406.193L858.995 171.949C877.681 127.897 829.081 85.67 788.07 110.325L569.998 241.428C551.657 252.454 528.303 250.416 512.149 236.381L320.075 69.4945C283.953 38.1102 228.774 71.283 239.55 117.905L267.47 238.708C269.819 248.871 275.325 258.03 283.2 264.872L416.556 380.74C432.71 394.776 456.064 396.813 474.404 385.787L568.778 329.051C609.788 304.396 658.389 346.624 639.702 390.675L596.702 492.047C588.345 511.747 593.624 534.588 609.778 548.624L776.468 693.455ZM279.695 472.825C273.999 448.179 245.912 436.265 224.232 449.298L24.0202 569.663C-6.89302 588.248 4.03546 635.533 39.9686 638.668C47.8019 639.352 55.6506 637.538 62.3896 633.486L262.602 513.121C276.427 504.809 283.327 488.541 279.695 472.825Z" fill="url(#paint12_linear_97_24)"/>
<path fill-rule="evenodd" clip-rule="evenodd" d="M612.849 761.391L540.941 955.214C525.745 996.176 467.01 993.76 455.227 951.689L447.118 922.734C444.55 913.562 444.95 903.813 448.263 894.884L509.712 729.253C516.508 710.934 534.327 699.075 553.849 699.878L572.417 700.642C603.031 701.9 623.506 732.665 612.849 761.391ZM786.207 677.348L613.043 540.323C597.721 528.199 591.949 507.587 598.745 489.269L637.046 386.03C655.138 337.266 600.259 293.84 556.96 322.657L465.291 383.666C449.026 394.492 427.639 393.613 412.317 381.488L273.782 271.865C266.313 265.955 260.907 257.832 258.338 248.66L224.901 129.267C213.119 87.1957 262.056 54.6261 296.317 81.737L495.851 239.629C514.091 254.062 539.551 255.109 558.915 242.222L770.739 101.245C807.11 77.0384 853.208 113.516 838.011 154.478L749.507 393.037C741.416 414.845 748.288 439.383 766.528 453.816L966.062 611.708C1000.32 638.819 979.876 693.933 936.223 692.138L812.341 687.044C802.824 686.652 793.676 683.259 786.207 677.348ZM259.558 520.59L65.0834 650.021C59.2926 653.875 52.4304 655.797 45.4803 655.511C13.5985 654.2 2.02035 612.858 28.5838 595.179L223.059 465.748C241.688 453.35 266.992 462.737 273.027 484.286C276.875 498.027 271.438 512.684 259.558 520.59ZM616.876 762.885C628.548 731.423 606.123 697.729 572.594 696.35L554.025 695.586C532.644 694.707 513.128 707.696 505.685 727.759L444.236 893.39C440.608 903.17 440.169 913.847 442.982 923.892L451.091 952.848C463.996 998.926 528.324 1001.57 544.968 956.708L616.876 762.885ZM783.542 680.717C791.722 687.19 801.741 690.907 812.164 691.335L936.047 696.429C983.857 698.395 1006.25 638.033 968.728 608.34L769.194 450.448C752.412 437.169 746.09 414.594 753.534 394.531L842.038 155.972C858.682 111.109 808.194 71.1573 768.359 97.6691L556.536 238.646C538.721 250.502 515.297 249.539 498.516 236.26L298.982 78.3686C261.458 48.6758 207.86 84.3472 220.765 130.425L254.202 249.819C257.015 259.864 262.936 268.76 271.116 275.233L409.652 384.856C426.433 398.136 449.856 399.099 467.671 387.242L559.34 326.233C599.175 299.721 649.663 339.673 633.019 384.536L594.718 487.775C587.274 507.838 593.597 530.412 610.378 543.691L783.542 680.717ZM277.163 483.128C270.341 458.769 241.737 448.157 220.679 462.172L26.204 591.603C-3.82333 611.587 9.26461 658.321 45.3038 659.802C53.1603 660.125 60.9173 657.953 67.4632 653.597L261.938 524.166C275.367 515.228 281.513 498.661 277.163 483.128Z" fill="url(#paint13_linear_97_24)"/>
<path fill-rule="evenodd" clip-rule="evenodd" d="M623.194 756.107L560.244 953.021C546.941 994.636 488.157 994.916 474.459 953.429L465.031 924.875C462.045 915.831 461.999 906.074 464.899 897.002L518.692 728.729C524.642 710.118 541.898 697.455 561.437 697.362L580.02 697.274C610.66 697.128 632.523 726.922 623.194 756.107ZM792.519 664.208L613.257 535.262C597.395 523.853 590.684 503.528 596.634 484.917L630.163 380.031C646.001 330.489 589.19 289.624 547.257 320.395L458.481 385.541C442.728 397.101 421.324 397.203 405.462 385.793L262.048 282.634C254.317 277.072 248.544 269.206 245.558 260.162L206.684 142.426C192.986 100.939 240.379 66.1607 275.847 91.673L482.407 240.254C501.29 253.837 526.771 253.716 545.524 239.955L750.664 89.4182C785.888 63.5704 833.609 97.8968 820.305 139.512L742.827 381.877C735.744 404.033 743.733 428.23 762.616 441.812L969.176 590.394C1004.64 615.906 986.744 671.899 943.055 672.106L819.069 672.695C809.544 672.74 800.25 669.769 792.519 664.208ZM259.239 531.75L70.8998 669.957C65.2918 674.072 58.5248 676.306 51.5689 676.34C19.6606 676.491 6.19991 635.723 31.9253 616.845L220.264 478.638C238.305 465.399 264.013 473.617 271.029 494.866C275.504 508.417 270.743 523.307 259.239 531.75ZM627.285 757.415C637.503 725.451 613.558 692.819 580 692.979L561.416 693.067C540.017 693.169 521.117 707.038 514.601 727.421L460.808 895.694C457.631 905.63 457.682 916.317 460.953 926.222L470.38 954.775C485.383 1000.21 549.765 999.908 564.336 954.329L627.285 757.415ZM790.01 667.695C798.479 673.786 808.658 677.04 819.089 676.99L943.075 676.402C990.926 676.174 1010.53 614.849 971.685 586.907L765.124 438.325C747.752 425.829 740.402 403.568 746.918 383.185L824.397 140.82C838.967 95.2415 786.701 57.6457 748.123 85.9553L542.983 236.492C525.73 249.152 502.287 249.263 484.915 236.767L278.355 88.186C239.51 60.2441 187.603 98.3343 202.605 143.773L241.479 261.508C244.75 271.414 251.072 280.029 259.54 286.121L402.954 389.28C420.326 401.776 443.769 401.665 461.022 389.004L549.798 323.858C588.376 295.548 640.642 333.144 626.072 378.723L592.542 483.609C586.026 503.992 593.376 526.253 610.748 538.749L790.01 667.695ZM275.108 493.52C267.177 469.499 238.117 460.209 217.723 475.175L29.3841 613.382C0.304144 634.722 15.52 680.806 51.5893 680.635C59.4523 680.597 67.1016 678.072 73.441 673.42L261.78 535.212C274.785 525.669 280.166 508.837 275.108 493.52Z" fill="url(#paint14_linear_97_24)"/>
<path fill-rule="evenodd" clip-rule="evenodd" d="M633.21 750.399L579.277 949.971C567.879 992.148 509.168 995.099 493.599 954.278L482.883 926.182C479.489 917.283 478.999 907.538 481.484 898.344L527.572 727.8C532.67 708.938 549.333 695.503 568.847 694.522L587.408 693.59C618.009 692.052 641.204 720.821 633.21 750.399ZM798.183 650.898L613.245 530.234C596.881 519.558 589.254 499.559 594.351 480.697L623.078 374.395C636.648 324.184 578.038 285.944 537.547 318.59L451.824 387.704C436.613 399.967 415.235 401.042 398.872 390.365L250.917 293.831C242.94 288.627 236.816 281.031 233.422 272.132L189.237 156.285C173.667 115.463 219.43 78.5669 256.021 102.441L469.121 241.479C488.602 254.19 514.052 252.91 532.16 238.311L730.245 78.6056C764.257 51.1834 813.49 83.3052 802.091 125.482L735.709 371.118C729.641 393.573 738.722 417.382 758.202 430.092L971.303 569.131C1007.89 593.004 992.558 649.753 948.923 651.946L825.091 658.17C815.579 658.648 806.16 656.103 798.183 650.898ZM259.434 542.817L77.5715 689.442C72.1563 693.808 65.4979 696.348 58.5507 696.697C26.6823 698.299 11.3824 658.185 36.2231 638.157L218.085 491.532C235.506 477.486 261.561 484.528 269.536 505.436C274.621 518.769 270.543 533.861 259.434 542.817ZM637.357 751.52C646.112 719.124 620.708 687.615 587.192 689.3L568.631 690.233C547.259 691.307 529.009 706.021 523.426 726.679L477.337 897.223C474.616 907.293 475.152 917.967 478.87 927.713L489.585 955.808C506.638 1000.52 570.94 997.286 583.423 951.092L637.357 751.52ZM795.836 654.496C804.572 660.196 814.889 662.984 825.307 662.46L949.138 656.236C996.929 653.834 1013.73 591.681 973.65 565.534L760.55 426.495C742.627 414.801 734.273 392.897 739.856 372.239L806.238 126.603C818.721 80.4091 764.801 45.2278 727.549 75.2617L529.464 234.967C512.804 248.399 489.391 249.575 471.469 237.882L258.368 98.8432C218.293 72.6959 168.171 113.106 185.223 157.815L229.409 273.662C233.126 283.409 239.834 291.728 248.57 297.428L396.524 393.962C414.447 405.656 437.86 404.479 454.52 391.048L540.243 321.933C577.495 291.899 631.416 327.081 618.932 373.274L590.204 479.576C584.622 500.234 592.976 522.138 610.898 533.832L795.836 654.496ZM273.549 503.905C264.534 480.27 235.082 472.311 215.389 488.188L33.5271 634.813C5.44719 657.453 22.7421 702.798 58.7663 700.987C66.6195 700.592 74.1461 697.722 80.2674 692.786L262.13 546.161C274.687 536.036 279.297 518.977 273.549 503.905Z" fill="url(#paint15_linear_97_24)"/>
<path fill-rule="evenodd" clip-rule="evenodd" d="M643.044 744.181L598.33 946.018C588.881 988.674 530.368 994.317 512.94 954.254L500.946 926.68C497.147 917.946 496.21 908.234 498.27 898.935L536.48 726.455C540.706 707.379 556.735 693.193 576.183 691.318L594.682 689.534C625.18 686.592 649.671 714.266 643.044 744.181ZM803.275 637.21L612.992 525.164C596.155 515.25 587.617 495.623 591.843 476.546L615.66 369.038C626.909 318.257 566.606 282.748 527.657 317.218L445.197 390.195C430.565 403.144 409.259 405.199 392.423 395.285L240.192 305.646C231.985 300.813 225.518 293.506 221.719 284.773L172.261 171.076C154.834 131.013 198.855 92.0542 236.503 114.223L455.763 243.331C475.806 255.133 501.17 252.687 518.589 237.272L709.133 68.64C741.85 39.6851 792.505 69.5127 783.056 112.169L728.021 360.593C722.99 383.303 733.155 406.67 753.198 418.472L972.458 547.581C1010.11 569.749 997.392 627.142 953.903 631.336L830.489 643.239C821.008 644.153 811.482 642.043 803.275 637.21ZM260.131 553.978L85.1926 708.799C79.9836 713.409 73.4489 716.251 66.525 716.919C34.7637 719.982 17.6382 680.613 41.5331 659.466L216.471 504.645C233.229 489.815 259.58 495.653 268.506 516.173C274.198 529.258 270.817 544.521 260.131 553.978ZM647.238 745.11C654.496 712.346 627.672 682.037 594.269 685.258L575.771 687.042C554.47 689.096 536.915 704.633 532.286 725.526L494.076 898.006C491.82 908.191 492.846 918.828 497.007 928.393L509.002 955.967C528.089 999.846 592.174 993.666 602.524 946.947L647.238 745.11ZM801.095 640.911C810.084 646.204 820.518 648.516 830.901 647.514L954.316 635.612C1001.95 631.018 1015.87 568.159 974.637 543.879L755.378 414.771C736.938 403.913 727.586 382.415 732.215 361.522L787.249 113.098C797.599 66.3794 742.12 33.711 706.286 65.4235L515.742 234.055C499.717 248.237 476.382 250.488 457.942 239.63L238.683 110.521C197.449 86.2417 149.235 128.91 168.323 172.79L217.78 286.486C221.941 296.052 229.024 304.054 238.012 309.347L390.243 398.986C408.683 409.845 432.018 407.594 448.043 393.412L530.503 320.435C566.336 288.722 621.816 321.391 611.466 368.109L587.649 475.617C583.021 496.51 592.372 518.008 610.812 528.866L801.095 640.911ZM272.445 514.46C262.355 491.263 232.568 484.665 213.625 501.429L38.6865 656.249C11.6756 680.154 31.0342 724.657 66.9373 721.195C74.7641 720.44 82.151 717.226 88.0393 712.015L262.978 557.195C275.057 546.504 278.879 529.251 272.445 514.46Z" fill="url(#paint16_linear_97_24)"/>
<path fill-rule="evenodd" clip-rule="evenodd" d="M652.571 737.53L617.154 941.204C609.669 984.248 551.476 992.567 532.231 953.344L518.986 926.35C514.79 917.799 513.409 908.14 515.041 898.756L545.306 724.706C548.654 705.457 564.016 690.551 583.358 687.786L601.755 685.156C632.086 680.82 657.82 707.343 652.571 737.53ZM807.731 623.328L612.513 520.121C595.24 510.989 585.811 491.773 589.158 472.523L608.023 364.036C616.934 312.793 555.066 280.085 517.737 316.304L438.708 392.983C424.686 406.589 403.496 409.618 386.223 400.486L230.044 317.918C221.624 313.466 214.83 306.464 210.634 297.913L156.018 186.603C136.773 147.38 178.962 106.445 217.587 126.865L442.533 245.789C463.096 256.661 488.321 253.054 505.015 236.857L687.631 59.6701C718.987 29.2462 770.956 56.721 763.471 99.7651L719.879 350.451C715.894 373.368 727.119 396.244 747.683 407.115L972.629 526.039C1011.25 546.459 1001.18 604.375 957.932 610.557L835.192 628.104C825.764 629.452 816.151 627.78 807.731 623.328ZM261.343 565.076L93.684 727.751C88.6917 732.595 82.2941 735.734 75.4081 736.718C43.8205 741.234 24.9088 702.69 47.8095 680.47L215.469 517.795C231.529 502.213 258.12 506.837 267.977 526.926C274.263 539.737 271.585 555.139 261.343 565.076ZM656.803 738.265C662.552 705.204 634.367 676.155 601.147 680.904L582.75 683.534C561.566 686.563 544.741 702.887 541.075 723.971L510.809 898.021C509.022 908.298 510.535 918.877 515.13 928.242L528.375 955.237C549.453 998.195 613.188 989.084 621.386 941.94L656.803 738.265ZM805.723 627.126C814.945 632.001 825.474 633.832 835.8 632.356L958.54 614.81C1005.91 608.038 1016.94 544.607 974.636 522.242L749.69 403.318C730.772 393.316 720.445 372.27 724.111 351.187L767.703 100.501C775.9 53.3576 718.982 23.266 684.64 56.5873L502.024 233.774C486.666 248.676 463.459 251.994 444.54 241.992L219.594 123.068C177.291 100.703 131.084 145.537 152.162 188.495L206.778 299.805C211.373 309.17 218.815 316.84 228.037 321.715L384.216 404.284C403.134 414.285 426.341 410.968 441.7 396.066L520.728 319.387C555.071 286.065 611.989 316.157 603.791 363.3L584.927 471.787C581.26 492.87 591.587 513.916 610.505 523.918L805.723 627.126ZM271.833 525.034C260.691 502.325 230.632 497.098 212.478 514.713L44.8185 677.388C18.9315 702.505 40.3093 746.074 76.0159 740.97C83.7999 739.857 91.0318 736.309 96.6751 730.833L264.334 568.158C275.911 556.925 278.939 539.516 271.833 525.034Z" fill="url(#paint17_linear_97_24)"/>
<path fill-rule="evenodd" clip-rule="evenodd" d="M661.073 731.016L634.291 936.005C628.631 979.327 570.841 990.096 549.957 951.722L535.583 925.31C531.03 916.945 529.242 907.352 530.476 897.908L553.362 722.735C555.894 703.361 570.612 687.82 589.82 684.241L608.09 680.836C638.211 675.223 665.042 700.634 661.073 731.016ZM811.27 610.363L611.867 515.494C594.223 507.099 583.992 488.299 586.523 468.925L600.788 359.738C607.526 308.164 544.332 278.098 508.567 315.862L432.847 395.811C419.412 409.997 398.37 413.919 380.726 405.524L221.199 329.627C212.598 325.535 205.514 318.825 200.961 310.46L141.692 201.556C120.807 163.181 161.23 120.5 200.682 139.27L430.451 248.587C451.455 258.58 476.505 253.911 492.5 237.023L667.468 52.2807C697.511 20.5594 750.594 45.8146 744.934 89.1364L711.971 341.44C708.958 364.504 721.138 386.886 742.143 396.879L971.912 506.195C1011.36 524.965 1003.75 583.255 960.798 591.259L838.909 613.974C829.546 615.719 819.871 614.455 811.27 610.363ZM262.91 575.242L102.272 744.853C97.4885 749.904 91.2292 753.31 84.3909 754.585C53.0223 760.431 32.4993 722.721 54.441 699.553L215.079 529.941C230.467 513.694 257.229 517.191 267.926 536.846C274.748 549.38 272.723 564.881 262.91 575.242ZM665.332 731.573C669.679 698.297 640.293 670.466 607.303 676.614L589.033 680.018C567.996 683.939 551.876 700.96 549.103 722.179L526.217 897.352C524.866 907.695 526.823 918.201 531.81 927.363L546.184 953.775C569.058 995.804 632.351 984.009 638.55 936.562L665.332 731.573ZM809.425 614.242C818.845 618.723 829.441 620.107 839.696 618.196L961.585 595.481C1008.63 586.715 1016.97 522.875 973.757 502.317L743.988 393C724.664 383.807 713.458 363.216 716.23 341.996L749.193 89.6929C755.392 42.2453 697.254 14.5848 664.35 49.3271L489.382 234.07C474.666 249.607 451.62 253.902 432.296 244.708L202.528 135.392C159.318 114.834 115.045 161.579 137.919 203.609L197.188 312.513C202.175 321.675 209.934 329.024 219.353 333.505L378.881 409.403C398.205 418.597 421.251 414.302 435.966 398.765L511.685 318.815C544.59 284.073 602.728 311.733 596.529 359.181L582.264 468.368C579.491 489.587 590.698 510.178 610.022 519.372L809.425 614.242ZM271.699 534.793C259.607 512.574 229.355 508.622 211.961 526.988L51.3224 696.6C26.5195 722.788 49.7186 765.415 85.1778 758.807C92.9078 757.367 99.9833 753.516 105.39 747.807L266.029 578.195C277.121 566.483 279.41 548.961 271.699 534.793Z" fill="url(#paint18_linear_97_24)"/>
<path fill-rule="evenodd" clip-rule="evenodd" d="M669.992 723.541L652.65 929.544C648.985 973.08 591.751 986.491 569.126 949.116L553.555 923.392C548.622 915.244 546.396 905.744 547.195 896.254L562.015 720.215C563.654 700.745 577.644 684.545 596.667 680.087L614.761 675.847C644.593 668.857 672.562 693.009 669.992 723.541ZM814.492 596.119L610.943 510.505C592.932 502.93 581.848 484.619 583.487 465.149L592.724 355.422C597.088 303.594 532.58 276.461 498.586 315.827L426.617 399.168C413.847 413.956 393.007 418.84 374.996 411.264L212.153 342.771C203.374 339.078 195.989 332.701 191.057 324.553L126.85 218.485C104.225 181.11 142.646 136.618 182.918 153.557L417.464 252.209C438.905 261.227 463.714 255.414 478.917 237.809L645.218 45.228C673.773 12.1609 727.96 34.9522 724.295 78.4882L702.95 332.039C700.999 355.217 714.194 377.016 735.635 386.035L970.181 484.686C1010.45 501.625 1005.52 560.202 962.984 570.17L842.267 598.458C832.994 600.631 823.271 599.812 814.492 596.119ZM265.097 586.212L112.415 763.02C107.869 768.285 101.773 771.975 95.0002 773.562C63.9331 780.842 41.7004 744.114 62.5553 719.964L215.237 543.155C229.862 526.219 256.757 528.483 268.345 547.626C275.735 559.834 274.423 575.411 265.097 586.212ZM674.272 723.902C677.087 690.462 646.454 664.009 613.781 671.665L595.687 675.905C574.852 680.787 559.53 698.53 557.735 719.854L542.915 895.893C542.04 906.288 544.478 916.693 549.88 925.616L565.452 951.34C590.231 992.275 652.916 977.586 656.93 929.904L674.272 723.902ZM812.826 600.079C822.442 604.123 833.091 605.019 843.247 602.64L963.964 574.352C1010.55 563.435 1015.95 499.279 971.846 480.727L737.301 382.075C717.575 373.778 705.435 353.724 707.23 332.399L728.575 78.8486C732.589 31.1663 673.242 6.20431 641.968 42.4207L475.666 235.002C461.679 251.198 438.855 256.546 419.129 248.25L184.584 149.598C140.475 131.046 98.3959 179.775 123.175 220.71L187.382 326.778C192.784 335.701 200.872 342.686 210.488 346.73L373.331 415.224C393.057 423.52 415.882 418.172 429.868 401.975L501.837 318.634C533.111 282.418 592.458 307.38 588.444 355.062L579.207 464.789C577.412 486.113 589.552 506.168 609.278 514.464L812.826 600.079ZM272.02 545.402C258.92 523.762 228.519 521.203 211.986 540.348L59.3044 717.156C35.73 744.456 60.8618 785.973 95.9802 777.744C103.636 775.95 110.527 771.779 115.666 765.827L268.348 589.019C278.891 576.81 280.373 559.201 272.02 545.402Z" fill="url(#paint19_linear_97_24)"/>
<path fill-rule="evenodd" clip-rule="evenodd" d="M678.541 715.672L670.658 922.253C668.992 965.911 612.433 981.931 588.119 945.632L571.385 920.649C566.085 912.736 563.426 903.348 563.789 893.831L570.525 717.297C571.27 697.773 584.503 680.948 603.302 675.624L621.182 670.559C650.662 662.209 679.709 685.055 678.541 715.672ZM817.049 581.762L609.791 505.566C591.452 498.824 579.541 481.04 580.286 461.516L584.484 351.481C586.468 299.507 520.784 275.359 488.63 316.241L420.556 402.793C408.477 418.151 387.883 423.984 369.544 417.242L203.733 356.284C194.794 352.998 187.124 346.966 181.824 339.052L112.824 236.038C88.5099 199.739 124.851 153.533 165.858 168.609L404.677 256.408C426.509 264.434 451.026 257.49 465.406 239.207L622.707 39.2068C649.717 4.86583 704.891 25.1499 703.225 68.8082L693.522 323.071C692.636 346.314 706.816 367.485 728.648 375.512L967.468 463.311C1008.47 478.386 1006.23 537.128 964.197 549.035L844.903 582.825C835.739 585.42 825.989 585.048 817.049 581.762ZM267.778 597.043L123.36 780.662C119.059 786.13 113.139 790.096 106.446 791.992C75.7451 800.688 51.8526 765.017 71.5788 739.936L215.997 556.317C229.831 538.728 256.801 539.757 269.254 558.349C277.196 570.205 276.6 585.826 267.778 597.043ZM682.833 715.836C684.113 682.302 652.299 657.281 620.012 666.426L602.131 671.491C581.542 677.323 567.049 695.749 566.233 717.133L559.497 893.667C559.099 904.091 562.011 914.373 567.816 923.039L584.55 948.022C611.18 987.779 673.126 970.233 674.95 922.417L682.833 715.836ZM815.567 585.793C825.358 589.393 836.037 589.8 846.073 586.957L965.368 553.167C1011.41 540.127 1013.86 475.791 968.95 459.279L730.13 371.48C710.045 364.096 696.999 344.619 697.815 323.235L707.517 68.9719C709.342 21.1559 648.913 -1.06013 619.331 36.5514L462.03 236.551C448.801 253.372 426.245 259.761 406.16 252.377L167.34 164.578C122.428 148.066 82.6255 198.672 109.255 238.429L178.255 341.443C184.06 350.11 192.46 356.716 202.251 360.315L368.062 421.274C388.147 428.658 410.703 422.269 423.933 405.449L492.006 318.897C521.588 281.285 582.017 303.501 580.192 351.317L575.993 461.352C575.177 482.736 588.224 502.213 608.309 509.597L815.567 585.793ZM272.823 555.959C258.746 534.942 228.259 533.778 212.621 553.661L68.2026 737.281C45.9041 765.632 72.9122 805.954 107.617 796.124C115.182 793.981 121.875 789.498 126.736 783.318L271.154 599.698C281.126 587.019 281.8 569.361 272.823 555.959Z" fill="url(#paint20_linear_97_24)"/>
<path fill-rule="evenodd" clip-rule="evenodd" d="M686.66 707.493L688.176 914.219C688.496 957.908 632.723 976.482 606.784 941.326L588.932 917.129C583.278 909.465 580.195 900.208 580.125 890.684L578.83 714.027C578.687 694.488 591.141 677.08 609.678 670.906L627.31 665.034C656.38 655.353 686.436 676.854 686.66 707.493ZM818.939 567.426L608.431 500.729C589.805 494.828 577.097 477.604 576.954 458.066L576.147 347.954C575.766 295.943 509.052 274.806 478.79 317.108L414.721 406.665C403.352 422.556 383.044 429.319 364.418 423.417L196.007 370.059C186.928 367.182 178.992 361.505 173.337 353.841L99.7262 254.07C73.7875 218.913 107.991 171.103 149.64 184.3L392.204 261.152C414.378 268.178 438.554 260.126 452.088 241.208L600.136 34.2652C625.556 -1.26803 681.596 16.4872 681.916 60.176L683.781 314.617C683.951 337.877 699.08 358.381 721.254 365.407L963.818 442.26C1005.47 455.456 1005.9 514.239 964.447 528.044L846.811 567.221C837.775 570.231 828.018 570.302 818.939 567.426ZM270.929 607.658L135.007 797.652C130.96 803.309 125.225 807.54 118.626 809.738C88.3517 819.821 62.8625 785.273 81.4283 759.322L217.351 569.327C230.371 551.128 257.36 550.93 270.646 568.937C279.118 580.42 279.232 596.052 270.929 607.658ZM690.956 707.462C690.71 673.905 657.792 650.355 625.953 660.959L608.321 666.831C588.018 673.593 574.378 692.659 574.535 714.058L575.83 890.715C575.906 901.146 579.283 911.285 585.476 919.679L603.328 943.876C631.737 982.381 692.821 962.037 692.471 914.187L690.956 707.462ZM817.641 571.52C827.585 574.671 838.272 574.593 848.169 571.297L965.804 532.119C1011.2 516.999 1010.73 452.618 965.115 438.165L722.551 361.312C702.151 354.849 688.233 335.984 688.076 314.585L686.211 60.1446C685.86 12.295 624.484 -7.15129 596.643 31.766L448.595 238.709C436.144 256.114 413.902 263.521 393.501 257.058L150.938 180.205C105.322 165.752 67.8608 218.115 96.2698 256.62L169.881 356.391C176.074 364.785 184.766 371.003 194.71 374.154L363.121 427.512C383.521 433.976 405.763 426.568 418.214 409.164L482.283 319.607C510.125 280.69 571.501 300.136 571.852 347.985L572.659 458.097C572.815 479.496 586.734 498.361 607.134 504.824L817.641 571.52ZM274.102 566.387C259.084 546.031 228.575 546.255 213.857 566.828L77.9349 756.822C56.9482 786.158 85.7611 825.211 119.983 813.813C127.443 811.329 133.925 806.546 138.5 800.151L274.423 610.157C283.808 597.038 283.679 579.367 274.102 566.387Z" fill="url(#paint21_linear_97_24)"/>
<path fill-rule="evenodd" clip-rule="evenodd" d="M694.472 698.865L705.477 905.303C707.803 948.931 652.942 970.047 625.416 936.118L606.472 912.767C600.471 905.371 596.967 896.265 596.459 886.754L587.055 710.343C586.015 690.831 597.657 672.87 615.891 665.851L633.235 659.176C661.83 648.17 692.841 668.269 694.472 698.865ZM820.18 552.872L606.832 495.911C587.955 490.871 574.469 474.249 573.429 454.738L567.568 344.779C564.799 292.841 497.186 274.789 468.897 318.435L409.007 410.839C398.38 427.235 378.404 434.924 359.527 429.884L188.844 384.314C179.642 381.857 171.454 376.55 165.453 369.154L87.339 272.868C59.8136 238.939 91.7857 189.609 133.997 200.879L379.834 266.514C402.307 272.514 426.088 263.361 438.739 243.842L577.129 30.3196C600.892 -6.34324 657.687 8.82029 660.013 52.4484L673.558 306.535C674.796 329.763 690.85 349.551 713.323 355.551L959.16 421.187C1001.37 432.456 1004.5 491.157 963.726 506.851L848.014 551.388C839.125 554.809 829.382 555.329 820.18 552.872ZM274.596 618.222L147.54 814.257C143.756 820.094 138.222 824.584 131.731 827.082C101.952 838.544 74.9032 805.203 92.2578 778.427L219.314 582.392C231.485 563.614 258.436 562.177 272.535 579.555C281.525 590.637 282.357 606.247 274.596 618.222ZM698.761 698.637C696.975 665.126 663.01 643.113 631.692 655.167L614.349 661.843C594.377 669.529 581.627 689.202 582.766 710.571L592.17 886.982C592.726 897.399 596.564 907.372 603.136 915.473L622.081 938.825C652.228 975.985 712.314 952.858 709.766 905.075L698.761 698.637ZM819.072 557.022C829.15 559.713 839.822 559.144 849.557 555.397L965.269 510.86C1009.93 493.671 1006.5 429.38 960.268 417.037L714.431 351.401C693.756 345.881 678.986 327.676 677.847 306.307L664.302 52.2198C661.755 4.43676 599.55 -12.1711 573.525 27.9834L435.134 241.506C423.496 259.463 401.617 267.884 380.942 262.364L135.105 196.729C88.8736 184.386 53.8564 238.414 84.0034 275.574L162.118 371.86C168.69 379.961 177.658 385.773 187.736 388.464L358.419 434.034C379.094 439.554 400.973 431.133 412.612 413.175L472.502 320.771C498.527 280.617 560.731 297.224 563.278 345.008L569.14 454.966C570.279 476.336 585.049 494.541 605.724 500.061L819.072 557.022ZM275.87 576.849C259.933 557.205 229.467 558.829 215.709 580.056L88.6534 776.091C69.0357 806.359 99.6112 844.047 133.274 831.091C140.612 828.266 146.868 823.191 151.144 816.593L278.2 620.558C286.974 607.022 286.033 589.376 275.87 576.849Z" fill="url(#paint22_linear_97_24)"/>
<path fill-rule="evenodd" clip-rule="evenodd" d="M701.865 689.904L722.319 895.621C726.642 939.096 672.806 962.704 643.754 930.073L623.76 907.614C617.427 900.5 613.508 891.564 612.566 882.087L595.087 706.292C593.153 686.849 603.96 668.373 621.854 660.526L638.873 653.063C666.933 640.758 698.833 659.415 701.865 689.904ZM820.75 538.303L605.016 491.18C585.927 487.01 571.694 471.023 569.761 451.58L558.866 342.006C553.72 290.249 485.351 275.315 459.092 320.211L403.5 415.263C393.636 432.129 374.033 440.725 354.944 436.555L182.352 398.855C173.047 396.823 164.625 391.897 158.291 384.783L75.8465 292.178C46.7951 259.546 76.4728 208.803 119.156 218.127L367.743 272.427C390.467 277.391 413.804 267.157 425.547 247.079L554.006 27.4385C576.064 -10.2748 633.494 2.26991 637.817 45.7456L662.992 298.945C665.293 322.091 682.237 341.123 704.962 346.087L953.548 400.387C996.232 409.71 1002.05 468.206 962.036 485.752L848.486 535.545C839.764 539.37 830.055 540.336 820.75 538.303ZM278.734 628.588L160.795 830.239C157.283 836.244 151.961 840.983 145.59 843.776C116.368 856.591 87.82 824.524 103.929 796.981L221.868 595.329C233.165 576.013 260.023 573.342 274.903 590.056C284.391 600.714 285.938 616.27 278.734 628.588ZM706.139 689.479C702.819 656.086 667.881 635.652 637.148 649.129L620.129 656.592C600.531 665.186 588.695 685.422 590.812 706.717L608.291 882.512C609.324 892.892 613.615 902.679 620.552 910.47L640.546 932.929C672.364 968.668 731.327 942.812 726.593 895.196L706.139 689.479ZM819.833 542.5C830.024 544.726 840.658 543.668 850.211 539.479L963.761 489.686C1007.58 470.469 1001.21 406.402 954.465 396.19L705.879 341.891C684.972 337.324 669.384 319.814 667.266 298.52L642.091 45.3206C637.356 -2.29541 574.457 -16.0351 550.299 25.2699L421.839 244.91C411.036 263.382 389.566 272.797 368.659 268.23L120.073 213.931C73.3244 203.719 40.8201 259.295 72.6384 295.034L155.083 387.639C162.02 395.43 171.244 400.826 181.435 403.052L354.028 440.752C374.934 445.319 396.404 435.904 407.208 417.432L462.8 322.38C486.958 281.075 549.857 294.814 554.592 342.431L565.487 452.005C567.604 473.3 583.192 490.809 604.099 495.376L819.833 542.5ZM278.111 587.2C261.29 568.307 230.931 571.325 218.16 593.161L100.222 794.812C82.0116 825.948 114.282 862.195 147.315 847.71C154.517 844.552 160.533 839.195 164.503 832.408L282.441 630.757C290.585 616.832 288.837 599.248 278.111 587.2Z" fill="url(#paint23_linear_97_24)"/>
<defs>
<linearGradient id="paint0_linear_97_24" x1="208.666" y1="915.028" x2="809.148" y2="87.4964" gradientUnits="userSpaceOnUse">
<stop stop-color="#00C2FF"/>
<stop offset="1" stop-color="#0400DD" stop-opacity="0"/>
</linearGradient>
<linearGradient id="paint1_linear_97_24" x1="208.666" y1="915.028" x2="809.148" y2="87.4964" gradientUnits="userSpaceOnUse">
<stop stop-color="#00C2FF"/>
<stop offset="1" stop-color="#0400DD" stop-opacity="0"/>
</linearGradient>
<linearGradient id="paint2_linear_97_24" x1="208.666" y1="915.028" x2="809.148" y2="87.4964" gradientUnits="userSpaceOnUse">
<stop stop-color="#00C2FF"/>
<stop offset="1" stop-color="#0400DD" stop-opacity="0"/>
</linearGradient>
<linearGradient id="paint3_linear_97_24" x1="208.666" y1="915.028" x2="809.148" y2="87.4964" gradientUnits="userSpaceOnUse">
<stop stop-color="#00C2FF"/>
<stop offset="1" stop-color="#0400DD" stop-opacity="0"/>
</linearGradient>
<linearGradient id="paint4_linear_97_24" x1="208.666" y1="915.028" x2="809.148" y2="87.4964" gradientUnits="userSpaceOnUse">
<stop stop-color="#00C2FF"/>
<stop offset="1" stop-color="#0400DD" stop-opacity="0"/>
</linearGradient>
<linearGradient id="paint5_linear_97_24" x1="208.666" y1="915.028" x2="809.148" y2="87.4964" gradientUnits="userSpaceOnUse">
<stop stop-color="#00C2FF"/>
<stop offset="1" stop-color="#0400DD" stop-opacity="0"/>
</linearGradient>
<linearGradient id="paint6_linear_97_24" x1="208.666" y1="915.028" x2="809.148" y2="87.4964" gradientUnits="userSpaceOnUse">
<stop stop-color="#00C2FF"/>
<stop offset="1" stop-color="#0400DD" stop-opacity="0"/>
</linearGradient>
<linearGradient id="paint7_linear_97_24" x1="208.666" y1="915.028" x2="809.148" y2="87.4964" gradientUnits="userSpaceOnUse">
<stop stop-color="#00C2FF"/>
<stop offset="1" stop-color="#0400DD" stop-opacity="0"/>
</linearGradient>
<linearGradient id="paint8_linear_97_24" x1="208.666" y1="915.028" x2="809.148" y2="87.4964" gradientUnits="userSpaceOnUse">
<stop stop-color="#00C2FF"/>
<stop offset="1" stop-color="#0400DD" stop-opacity="0"/>
</linearGradient>
<linearGradient id="paint9_linear_97_24" x1="208.666" y1="915.028" x2="809.148" y2="87.4964" gradientUnits="userSpaceOnUse">
<stop stop-color="#00C2FF"/>
<stop offset="1" stop-color="#0400DD" stop-opacity="0"/>
</linearGradient>
<linearGradient id="paint10_linear_97_24" x1="208.666" y1="915.028" x2="809.148" y2="87.4964" gradientUnits="userSpaceOnUse">
<stop stop-color="#00C2FF"/>
<stop offset="1" stop-color="#0400DD" stop-opacity="0"/>
</linearGradient>
<linearGradient id="paint11_linear_97_24" x1="208.666" y1="915.028" x2="809.148" y2="87.4964" gradientUnits="userSpaceOnUse">
<stop stop-color="#00C2FF"/>
<stop offset="1" stop-color="#0400DD" stop-opacity="0"/>
</linearGradient>
<linearGradient id="paint12_linear_97_24" x1="208.666" y1="915.028" x2="809.148" y2="87.4964" gradientUnits="userSpaceOnUse">
<stop stop-color="#00C2FF"/>
<stop offset="1" stop-color="#0400DD" stop-opacity="0"/>
</linearGradient>
<linearGradient id="paint13_linear_97_24" x1="208.666" y1="915.028" x2="809.148" y2="87.4964" gradientUnits="userSpaceOnUse">
<stop stop-color="#00C2FF"/>
<stop offset="1" stop-color="#0400DD" stop-opacity="0"/>
</linearGradient>
<linearGradient id="paint14_linear_97_24" x1="208.666" y1="915.028" x2="809.148" y2="87.4964" gradientUnits="userSpaceOnUse">
<stop stop-color="#00C2FF"/>
<stop offset="1" stop-color="#0400DD" stop-opacity="0"/>
</linearGradient>
<linearGradient id="paint15_linear_97_24" x1="208.666" y1="915.028" x2="809.148" y2="87.4964" gradientUnits="userSpaceOnUse">
<stop stop-color="#00C2FF"/>
<stop offset="1" stop-color="#0400DD" stop-opacity="0"/>
</linearGradient>
<linearGradient id="paint16_linear_97_24" x1="208.666" y1="915.028" x2="809.148" y2="87.4964" gradientUnits="userSpaceOnUse">
<stop stop-color="#00C2FF"/>
<stop offset="1" stop-color="#0400DD" stop-opacity="0"/>
</linearGradient>
<linearGradient id="paint17_linear_97_24" x1="208.666" y1="915.028" x2="809.148" y2="87.4964" gradientUnits="userSpaceOnUse">
<stop stop-color="#00C2FF"/>
<stop offset="1" stop-color="#0400DD" stop-opacity="0"/>
</linearGradient>
<linearGradient id="paint18_linear_97_24" x1="208.666" y1="915.028" x2="809.148" y2="87.4964" gradientUnits="userSpaceOnUse">
<stop stop-color="#00C2FF"/>
<stop offset="1" stop-color="#0400DD" stop-opacity="0"/>
</linearGradient>
<linearGradient id="paint19_linear_97_24" x1="208.666" y1="915.028" x2="809.148" y2="87.4964" gradientUnits="userSpaceOnUse">
<stop stop-color="#00C2FF"/>
<stop offset="1" stop-color="#0400DD" stop-opacity="0"/>
</linearGradient>
<linearGradient id="paint20_linear_97_24" x1="208.666" y1="915.028" x2="809.148" y2="87.4964" gradientUnits="userSpaceOnUse">
<stop stop-color="#00C2FF"/>
<stop offset="1" stop-color="#0400DD" stop-opacity="0"/>
</linearGradient>
<linearGradient id="paint21_linear_97_24" x1="208.666" y1="915.028" x2="809.148" y2="87.4964" gradientUnits="userSpaceOnUse">
<stop stop-color="#00C2FF"/>
<stop offset="1" stop-color="#0400DD" stop-opacity="0"/>
</linearGradient>
<linearGradient id="paint22_linear_97_24" x1="208.666" y1="915.028" x2="809.148" y2="87.4964" gradientUnits="userSpaceOnUse">
<stop stop-color="#00C2FF"/>
<stop offset="1" stop-color="#0400DD" stop-opacity="0"/>
</linearGradient>
<linearGradient id="paint23_linear_97_24" x1="685.716" y1="950.389" x2="319.746" y2="115.824" gradientUnits="userSpaceOnUse">
<stop stop-color="#00C2FF"/>
<stop offset="1" stop-color="#0400DD" stop-opacity="0"/>
</linearGradient>
</defs>
</svg>
