<svg width="36" height="40" viewBox="0 0 36 40" fill="none" xmlns="http://www.w3.org/2000/svg">
<path d="M33.5542 29.6691H33.4021V2.79087C33.9884 2.61394 34.4169 2.06934 34.4169 1.42599C34.4169 0.639691 33.7772 0 32.991 0C32.2048 0 31.5651 0.639691 31.5651 1.42599C31.5651 2.06924 31.9936 2.61394 32.58 2.79087V3.34004H25.3731C24.9516 3.32049 23.754 3.15872 23.137 2.64061C21.8892 1.59297 20.2041 1.36342 18.0646 1.35529C18.0619 1.35529 18.0593 1.35447 18.0566 1.35447C18.0376 1.35447 18.0192 1.35483 18.0002 1.35483C17.9813 1.35483 17.963 1.35447 17.944 1.35447C17.9412 1.35447 17.9387 1.3552 17.9359 1.35529C15.7964 1.36342 14.1115 1.59297 12.8634 2.64061C12.1454 3.24358 10.7397 3.33374 10.626 3.34004H3.42017V2.79087C4.00661 2.61394 4.43511 2.06934 4.43511 1.42599C4.4352 0.639691 3.79551 0 3.00921 0C2.22291 0 1.58331 0.639691 1.58331 1.42599C1.58331 2.06924 2.01181 2.61384 2.59806 2.79078V29.669H2.44607C1.47927 29.669 0.721924 30.797 0.721924 32.2368V39.5889C0.721924 39.8158 0.905985 39.9999 1.13298 39.9999C1.35997 39.9999 1.54403 39.8158 1.54403 39.5889V37.8754H34.4562V39.5889C34.4562 39.8158 34.6402 39.9999 34.8672 39.9999C35.0942 39.9999 35.2783 39.8158 35.2783 39.5889V32.2368C35.2783 30.797 34.521 29.6691 33.5542 29.6691ZM33.5542 30.4912C33.9808 30.4912 34.4562 31.2081 34.4562 32.2368V35.4302H33.4021V30.4912H33.5542ZM3.42017 35.4302V9.50201H10.5813C10.2726 9.69055 10.0112 10.0118 9.94286 10.5042L5.94212 12.6733C5.75094 12.7624 4.52052 13.4043 4.47649 15.1778C4.46297 15.7223 4.65306 17.7737 4.6611 17.8607C4.67251 17.9841 4.73892 18.0955 4.84187 18.1644C4.94472 18.2332 5.07325 18.2521 5.19136 18.2156L6.22054 17.8986V24.2379C6.22054 24.3737 6.28759 24.5007 6.39967 24.5773C6.44891 24.6109 7.63548 25.4005 10.328 25.4005C13.0207 25.4005 14.207 24.6108 14.2562 24.5773C14.3683 24.5006 14.4353 24.3737 14.4353 24.2379V17.8986L15.4647 18.2155C15.5827 18.2518 15.7112 18.2332 15.8143 18.1643C15.9171 18.0955 15.9834 17.984 15.9949 17.8607C16.003 17.7737 16.1929 15.7223 16.1795 15.1778C16.1354 13.4043 14.9051 12.7624 14.7139 12.6733L10.7736 10.5374C10.8672 10.1634 11.1922 10.1094 11.3419 10.1059C11.5689 10.1059 11.753 9.92183 11.753 9.69484V9.5021H21.5158C21.2071 9.69064 20.9457 10.0119 20.8773 10.5043L16.8638 12.6802C16.6984 12.7698 16.615 12.9602 16.6612 13.1427C16.7075 13.325 16.8716 13.4527 17.0597 13.4527H17.8924V27.4709C17.8924 27.6979 18.0764 27.882 18.3034 27.882H21.4224C21.2721 29.0629 21.1816 30.4255 21.1816 31.9961C21.1816 32.2231 21.3657 32.4072 21.5927 32.4072H26.5309H31.4693C31.6963 32.4072 31.8803 32.2231 31.8803 31.9961C31.8803 24.6798 29.9199 21.8669 29.0804 20.9978C30.9604 18.9554 30.6644 16.0258 30.6502 15.8957C30.6273 15.6873 30.4512 15.5295 30.2415 15.5295C29.7409 15.5295 29.6202 15.2098 29.5929 15.0863V13.4527H30.7336C30.9217 13.4527 31.0857 13.325 31.132 13.1427C31.1783 12.9603 31.0949 12.7699 30.9294 12.6802L26.9767 10.5374C27.0703 10.1634 27.3953 10.1094 27.5449 10.1059C27.7719 10.1059 27.956 9.92183 27.956 9.69484V9.5021H32.5797V35.4303H3.42017V35.4302ZM32.58 8.6799H27.9532C27.9218 7.97618 27.3412 7.41294 26.6299 7.41294C25.9187 7.41294 25.338 7.97618 25.3067 8.6799H22.6845C22.6531 7.97618 22.0725 7.41294 21.3613 7.41294C20.6501 7.41294 20.0694 7.97618 20.0381 8.6799H11.7501C11.7187 7.97618 11.1381 7.41294 10.4269 7.41294C9.71569 7.41294 9.13501 7.97618 9.10367 8.6799H3.42017V6.92087H32.58V8.6799ZM28.2516 21.3533C28.2792 21.3726 30.9692 23.3426 31.0562 31.5849H26.5311H22.0061C22.0932 23.3426 24.783 21.3726 24.8071 21.3557C24.9123 21.2856 24.9797 21.1711 24.9893 21.045C24.9989 20.919 24.9501 20.7954 24.8568 20.7101C23.315 19.3009 23.1979 17.127 23.2131 16.3102C23.9503 16.1456 24.2386 15.529 24.2874 15.1801C24.2899 15.1612 24.2913 15.0521 24.2913 15.0521C24.7666 15.5717 25.4835 15.9613 26.5311 15.9613C27.5786 15.9613 28.2955 15.5717 28.771 15.0522C28.771 15.0522 28.7723 15.1613 28.775 15.1802C28.8237 15.5292 29.1122 16.1461 29.85 16.3103C29.867 17.1263 29.7533 19.2957 28.2056 20.7102C28.1134 20.7945 28.0664 20.9173 28.0745 21.042C28.0828 21.1665 28.1491 21.2819 28.2516 21.3533ZM18.6806 12.6304L21.2624 11.2307L23.0343 12.1913L22.2243 12.6304H18.6806ZM18.7147 13.4525H23.4692V15.0845C23.4397 15.2153 23.3169 15.5292 22.8206 15.5292C22.6109 15.5292 22.4349 15.6871 22.4119 15.8954C22.3978 16.0256 22.1018 18.9551 23.9818 20.9975C23.366 21.635 22.1468 23.319 21.541 27.0596H18.7147V13.4525ZM28.4329 14.1201C28.0494 14.7963 27.4096 15.1392 26.5312 15.1392C25.6528 15.1392 25.0129 14.7964 24.6295 14.1201C24.4965 13.8856 24.4151 13.6471 24.3656 13.4526H28.6967C28.6471 13.6472 28.5658 13.8856 28.4329 14.1201ZM25.5691 12.6304L24.7592 12.1913L26.5311 11.2307L29.113 12.6304H25.5691ZM26.1461 10.5043L23.8967 11.7239L21.7081 10.5374C21.8018 10.1634 22.1268 10.1094 22.2764 10.1059C22.5034 10.1059 22.6874 9.92183 22.6874 9.69484V9.5021H26.7846C26.476 9.69055 26.2145 10.0118 26.1461 10.5043ZM20.8608 8.6799C20.8903 8.4298 21.1032 8.23505 21.3612 8.23505C21.6191 8.23505 21.832 8.4298 21.8616 8.6799H20.8608ZM26.1295 8.6799C26.159 8.4298 26.372 8.23505 26.6299 8.23505C26.8878 8.23505 27.1008 8.4298 27.1303 8.6799H26.1295ZM10.9271 8.6799H9.92642C9.95593 8.4298 10.1689 8.23505 10.4268 8.23505C10.6847 8.23505 10.8976 8.4298 10.9271 8.6799ZM14.3667 13.4184C14.4059 13.4359 15.3245 13.8615 15.3576 15.1982C15.3657 15.52 15.2835 16.5628 15.2215 17.2804L14.1453 16.949C14.0206 16.9107 13.8851 16.9336 13.7802 17.0112C13.6751 17.0888 13.6133 17.2115 13.6133 17.3419V23.9939C13.2196 24.1823 12.1721 24.5785 10.3281 24.5785C8.48216 24.5785 7.43434 24.1815 7.04274 23.9942V17.3419C7.04274 17.2115 6.98081 17.0888 6.87585 17.0112C6.7709 16.9337 6.63516 16.9107 6.51075 16.949L5.43479 17.2804C5.37268 16.5629 5.29056 15.5201 5.2986 15.1982C5.33166 13.8615 6.25041 13.436 6.28604 13.42C6.29819 13.4149 7.37314 12.8327 7.37314 12.8327C7.42831 13.2002 7.5699 13.6477 7.90596 14.0411C8.4216 14.6447 9.23649 14.9508 10.3282 14.9508C11.4197 14.9508 12.2347 14.6447 12.7505 14.0411C13.0864 13.6478 13.2281 13.2005 13.2834 12.8329C13.2832 12.8328 14.3578 13.4144 14.3667 13.4184ZM12.1674 13.4525C12.1534 13.4707 11.9139 14.1285 10.328 14.1285C8.74213 14.1285 8.50408 13.4726 8.48865 13.4525H12.1674ZM12.4929 12.4045C12.493 12.4682 12.4897 12.5454 12.4803 12.6305H8.17597C8.16665 12.5452 8.16327 12.468 8.16337 12.4042L10.3277 11.2308L12.4929 12.4045ZM32.3872 1.42599C32.3872 1.09295 32.6581 0.822107 32.991 0.822107C33.3239 0.822107 33.5948 1.09304 33.5948 1.42599C33.5948 1.75894 33.3239 2.02969 32.991 2.02969C32.6581 2.02969 32.3872 1.75894 32.3872 1.42599ZM31.0286 4.16215H32.58V6.09867H30.9124C31.1381 5.79403 31.2618 5.42792 31.2619 5.04189C31.2619 4.72812 31.1799 4.42751 31.0286 4.16215ZM25.3462 4.16178C25.3521 4.16206 28.3451 4.16215 28.3451 4.16215C28.2706 4.32684 28.2299 4.50643 28.2299 4.69259C28.2299 5.03687 28.3639 5.36041 28.6073 5.60385C28.7679 5.76434 29.0281 5.76434 29.1887 5.60376C29.3492 5.44317 29.3492 5.18293 29.1886 5.02244C29.1005 4.93447 29.052 4.81737 29.052 4.69286C29.0521 4.56836 29.1006 4.45125 29.1888 4.36311C29.3183 4.23358 29.4905 4.16233 29.6737 4.16233C29.8569 4.16233 30.029 4.23367 30.1587 4.36329C30.34 4.54452 30.4399 4.78558 30.4399 5.04189C30.4399 5.2983 30.34 5.53936 30.1586 5.72068C29.9446 5.93452 29.5298 6.07546 29.048 6.09885H27.9969C27.118 6.06505 25.305 5.84555 24.3812 4.65687C24.1508 4.36046 23.9152 4.08825 23.6767 3.84134C24.49 4.12058 25.297 4.15968 25.3462 4.16178ZM20.6006 3.00425C21.5124 3.00425 22.6794 3.80718 23.732 5.16128C24.0376 5.55452 24.4116 5.86026 24.8146 6.09876H21.4432C21.7689 5.64121 21.7578 5.05185 21.3904 4.65349C21.2365 4.48661 20.9765 4.47619 20.8096 4.63011C20.6428 4.78412 20.6324 5.04409 20.7862 5.21097C20.9299 5.36672 20.8219 5.58458 20.7143 5.693C20.6232 5.7848 20.2864 6.04852 19.7825 5.58996C19.1221 4.98928 18.994 4.28766 19.4312 3.66505C19.7353 3.23189 20.1058 3.01586 20.5634 3.00471C20.5758 3.00444 20.5882 3.00425 20.6006 3.00425ZM18.0002 2.17694C18.7116 2.17822 19.3653 2.20425 19.962 2.27715C19.492 2.42193 19.0825 2.73113 18.7585 3.19252C18.1024 4.12698 18.248 5.22906 19.1275 6.09867H16.8728C17.7523 5.22897 17.8978 4.12698 17.2417 3.19252C16.9177 2.73113 16.5081 2.42193 16.0382 2.27715C16.6349 2.20425 17.2887 2.17822 18.0002 2.17694ZM15.4366 3.00462C15.8944 3.01576 16.2647 3.2317 16.5689 3.66495C17.006 4.28756 16.8781 4.98919 16.2177 5.58987C15.7133 6.04852 15.3768 5.78462 15.2857 5.69282C15.178 5.58448 15.0702 5.36663 15.2139 5.21088C15.3678 5.04399 15.3573 4.78403 15.1905 4.63002C15.0236 4.47619 14.7634 4.4867 14.6096 4.6534C14.2423 5.05167 14.2312 5.64112 14.5568 6.09867H11.1846C11.5879 5.86026 11.9623 5.55471 12.2681 5.16119C13.3352 3.78864 14.5202 2.98407 15.4366 3.00462ZM5.84192 4.36302C5.97126 4.23358 6.14336 4.16224 6.3265 4.16224C6.50974 4.16224 6.68193 4.23349 6.81146 4.36311C6.8996 4.45116 6.94811 4.56827 6.94811 4.69277C6.9482 4.81728 6.89969 4.93438 6.81164 5.02235C6.65105 5.18284 6.65105 5.44308 6.81155 5.60367C6.97204 5.76416 7.23219 5.76425 7.39287 5.60376C7.6363 5.36032 7.77031 5.03678 7.77022 4.6925C7.77022 4.50634 7.72975 4.32675 7.65512 4.16206C7.65512 4.16206 10.6481 4.16196 10.654 4.16169C10.7031 4.15959 11.5108 4.12049 12.3241 3.84089C12.0854 4.08797 11.8495 4.36027 11.6191 4.6566C10.6955 5.845 8.88262 6.06469 8.00351 6.09858H6.95231C6.47037 6.07528 6.05557 5.93434 5.84173 5.7205C5.66041 5.53918 5.56048 5.29803 5.56048 5.04171C5.56039 4.78549 5.66032 4.54443 5.84192 4.36302ZM4.97167 4.16215C4.8204 4.42751 4.73828 4.72812 4.73837 5.04189C4.73837 5.42792 4.86215 5.79412 5.08795 6.09867H3.42017V4.16215H4.97167ZM2.40542 1.42599C2.40542 1.09295 2.67635 0.822107 3.00921 0.822107C3.34207 0.822107 3.613 1.09304 3.613 1.42599C3.613 1.75894 3.34207 2.02969 3.00921 2.02969C2.67635 2.02969 2.40542 1.75894 2.40542 1.42599ZM2.44607 30.4912H2.59806V35.4302H1.54403V32.2368C1.54403 31.2081 2.01939 30.4912 2.44607 30.4912ZM1.54403 37.0535V36.2523H34.4562V37.0535H1.54403Z" fill="#57578E"/>
</svg>
