<svg width="45" height="50" viewBox="0 0 45 50" fill="none" xmlns="http://www.w3.org/2000/svg">
<path d="M37.4874 20.3879C36.538 20.1826 36.1667 19.4116 36.1039 18.9753C36.1004 18.9516 36.0987 18.8153 36.0987 18.8153C35.4869 19.4647 34.5642 19.9516 33.216 19.9516C31.8677 19.9516 30.9452 19.4647 30.3334 18.8152C30.3334 18.8152 30.3316 18.9515 30.3283 18.9752C30.2655 19.4112 29.8945 20.1821 28.9458 20.3877C28.9262 21.4088 29.0769 24.1262 31.0612 25.8876C31.1813 25.9943 31.2442 26.1487 31.2316 26.3063C31.2193 26.4639 31.1327 26.6072 30.9972 26.6946C30.9662 26.7158 27.5044 29.1782 27.3923 39.4812H33.216H39.0398C38.9278 29.1782 35.4658 26.7157 35.4302 26.6917C35.2983 26.6024 35.213 26.4582 35.2024 26.3024C35.1918 26.1466 35.2525 25.993 35.3711 25.8876C37.3631 24.1195 37.5094 21.4079 37.4874 20.3879Z" fill="#067DD3"/>
<path d="M29.9355 26.2472C27.5161 23.6942 27.8969 20.0322 27.9151 19.8696C27.9446 19.609 28.1712 19.4118 28.4411 19.4118C29.0798 19.4118 29.2377 19.0194 29.2758 18.8559V16.8159H23.1567V33.8249H26.7942C27.5739 29.149 29.143 27.0441 29.9355 26.2472Z" fill="#E2425C"/>
<path d="M42.3073 1.78269C42.3073 1.36638 41.9586 1.02783 41.5303 1.02783C41.1019 1.02783 40.7532 1.3665 40.7532 1.78269C40.7532 2.19888 41.1019 2.53732 41.5303 2.53732C41.9586 2.53732 42.3073 2.19888 42.3073 1.78269Z" fill="#067DD3"/>
<path d="M12.363 30.7232C14.7363 30.7232 16.0844 30.228 16.5911 29.9926V21.6776C16.5911 21.5146 16.6708 21.3612 16.8059 21.2643C16.941 21.1672 17.1153 21.1385 17.2758 21.1865L18.6609 21.6008C18.7407 20.7037 18.8464 19.4002 18.8361 18.998C18.7935 17.327 17.6112 16.7952 17.5607 16.7733C17.5491 16.7682 16.1662 16.0412 16.1662 16.0412C16.0951 16.5007 15.9128 17.0599 15.4804 17.5515C14.8168 18.3059 13.7679 18.6885 12.3629 18.6885C10.958 18.6885 9.90916 18.306 9.24553 17.5515C8.81302 17.0599 8.6308 16.5005 8.5598 16.041C8.5598 16.041 7.17622 16.7687 7.1607 16.7751C7.11485 16.7951 5.93254 17.3269 5.88986 18.9979C5.87952 19.4001 5.98532 20.7036 6.06515 21.6006L7.4499 21.1864C7.61002 21.1384 7.78471 21.1672 7.91979 21.2642C8.05487 21.3611 8.13458 21.5144 8.13458 21.6775V29.9928C8.63891 30.227 9.98734 30.7232 12.363 30.7232Z" fill="#067DD3"/>
<path d="M3.72091 1.78269C3.72091 1.36638 3.37222 1.02783 2.94383 1.02783C2.51543 1.02783 2.16675 1.3665 2.16675 1.78269C2.16675 2.19888 2.51543 2.53732 2.94383 2.53732C3.37222 2.53732 3.72091 2.19888 3.72091 1.78269Z" fill="#067DD3"/>
<path d="M43.416 45.3156H1.05811V46.317H43.416V45.3156Z" fill="#067DD3"/>
<path d="M42.2551 37.0865H42.0593V3.4886C42.8139 3.26743 43.3654 2.58668 43.3654 1.78249C43.3654 0.799615 42.5421 0 41.5302 0C40.5184 0 39.6951 0.799615 39.6951 1.78249C39.6951 2.58656 40.2466 3.26743 41.0012 3.4886V4.17506H31.726C31.1836 4.15062 29.6422 3.94841 28.8481 3.30077C27.2422 1.99122 25.0736 1.70428 22.32 1.69412C22.3165 1.69412 22.3132 1.69309 22.3097 1.69309C22.2852 1.69309 22.2616 1.69354 22.2372 1.69354C22.2128 1.69354 22.1892 1.69309 22.1647 1.69309C22.1612 1.69309 22.1579 1.694 22.1544 1.69412C19.4008 1.70428 17.2323 1.99122 15.6261 3.30077C14.702 4.05448 12.8928 4.16718 12.7466 4.17506H3.47264V3.4886C4.22738 3.26743 4.77886 2.58668 4.77886 1.78249C4.77898 0.799615 3.9557 0 2.94373 0C1.93176 0 1.1086 0.799615 1.1086 1.78249C1.1086 2.58656 1.66008 3.26731 2.41459 3.48848V37.0864H2.21897C0.974699 37.0864 0 38.4963 0 40.296V49.4862C0 49.7699 0.236886 50 0.529025 50C0.821165 50 1.05805 49.7699 1.05805 49.4862V47.3444H43.4159V49.4862C43.4159 49.7699 43.6528 50 43.9449 50C44.2371 50 44.474 49.7699 44.474 49.4862V40.296C44.474 38.4963 43.4994 37.0865 42.2551 37.0865ZM40.7532 1.78249C40.7532 1.36619 41.1018 1.02764 41.5302 1.02764C41.9586 1.02764 42.3073 1.3663 42.3073 1.78249C42.3073 2.19869 41.9586 2.53712 41.5302 2.53712C41.1018 2.53712 40.7532 2.19869 40.7532 1.78249ZM39.0047 5.20269H41.0012V7.62335H38.855C39.1455 7.24255 39.3048 6.78491 39.3049 6.30238C39.3049 5.91017 39.1994 5.53439 39.0047 5.20269ZM12.6891 11.8775C12.2918 12.1132 11.9554 12.5148 11.8674 13.1303L6.7185 15.8417C6.47245 15.953 4.8889 16.7554 4.83223 18.9723C4.81483 19.653 5.05948 22.2172 5.06982 22.326C5.08452 22.4801 5.16999 22.6194 5.30248 22.7055C5.43485 22.7916 5.60026 22.8151 5.75227 22.7696L7.07683 22.3734V30.2975C7.07683 30.4671 7.16312 30.626 7.30737 30.7216C7.37073 30.7637 8.89785 31.7507 12.3631 31.7507C15.8286 31.7507 17.3554 30.7636 17.4187 30.7216C17.5629 30.6258 17.6492 30.4671 17.6492 30.2975V22.3732L18.974 22.7695C19.1259 22.8148 19.2913 22.7915 19.4239 22.7054C19.5563 22.6194 19.6416 22.48 19.6563 22.326C19.6668 22.2172 19.9112 19.653 19.8939 18.9723C19.8373 16.7554 18.2538 15.953 18.0078 15.8417L12.9365 13.1718C13.057 12.7043 13.4753 12.6367 13.668 12.6324C13.9602 12.6324 14.197 12.4023 14.197 12.1186V11.8777H26.7617C26.3645 12.1133 26.028 12.5149 25.9401 13.1305L20.7747 15.8503C20.5618 15.9623 20.4545 16.2003 20.5139 16.4283C20.5736 16.6562 20.7847 16.8158 21.0268 16.8158H22.0984V34.3386C22.0984 34.6223 22.3353 34.8524 22.6275 34.8524H26.6416C26.4482 36.3285 26.3317 38.0318 26.3317 39.9952C26.3317 40.2789 26.5686 40.509 26.8607 40.509H33.2162H39.5718C39.8639 40.509 40.1008 40.2789 40.1008 39.9952C40.1008 30.8498 37.5777 27.3335 36.4973 26.2472C38.9169 23.6942 38.536 20.0322 38.5176 19.8696C38.4881 19.609 38.2614 19.4118 37.9916 19.4118C37.3473 19.4118 37.192 19.0122 37.1568 18.8578V16.8158H38.6249C38.867 16.8158 39.0781 16.6562 39.1377 16.4283C39.1972 16.2003 39.0899 15.9623 38.877 15.8503L33.7898 13.1718C33.9103 12.7043 34.3286 12.6367 34.5211 12.6324C34.8133 12.6324 35.0502 12.4023 35.0502 12.1186V11.8777H41.0009V44.2879H3.47264V11.8775H12.6891ZM11.8462 10.8499C11.8841 10.5373 12.1582 10.2938 12.4902 10.2938C12.822 10.2938 13.0961 10.5373 13.1342 10.8499H11.8462ZM7.91998 21.264C7.7849 21.167 7.6102 21.1383 7.45008 21.1862L6.06533 21.6005C5.98539 20.7036 5.8797 19.4001 5.89005 18.9977C5.93261 17.3268 7.11504 16.7949 7.16088 16.7749C7.17652 16.7685 8.55998 16.0408 8.55998 16.0408C8.63099 16.5002 8.81321 17.0596 9.24571 17.5513C9.90935 18.3057 10.9581 18.6884 12.3631 18.6884C13.7679 18.6884 14.8168 18.3059 15.4806 17.5513C15.913 17.0597 16.0953 16.5005 16.1664 16.0411C16.1664 16.0411 17.5494 16.7681 17.5609 16.7731C17.6114 16.7949 18.7936 17.3269 18.8362 18.9978C18.8466 19.4001 18.7408 20.7036 18.6611 21.6006L17.276 21.1863C17.1155 21.1384 16.9411 21.167 16.8061 21.2641C16.6709 21.361 16.5913 21.5144 16.5913 21.6774V29.9925C16.0846 30.2279 14.7365 30.7231 12.3632 30.7231C9.98752 30.7231 8.63898 30.2269 8.135 29.9928V21.6774C8.13488 21.5143 8.05517 21.3609 7.91998 21.264ZM9.99587 16.8157H14.7303C14.7123 16.8384 14.4041 17.6606 12.363 17.6606C10.322 17.6607 10.0157 16.8409 9.99587 16.8157ZM15.1331 15.788H9.59334C9.58135 15.6814 9.577 15.5849 9.57712 15.5052L12.3626 14.0384L15.1492 15.5056C15.1494 15.5852 15.1449 15.6816 15.1331 15.788ZM33.5427 11.8775C33.1454 12.1132 32.809 12.5148 32.721 13.1303L29.826 14.6548L27.0093 13.1717C27.1298 12.7042 27.5481 12.6366 27.7407 12.6323C28.0328 12.6323 28.2697 12.4022 28.2697 12.1185V11.8775H33.5427ZM32.6995 10.8499C32.7375 10.5373 33.0115 10.2938 33.3435 10.2938C33.6754 10.2938 33.9495 10.5373 33.9875 10.8499H32.6995ZM35.4306 26.6917C35.4662 26.7158 38.9281 29.1783 39.0402 39.4812H33.2163H27.3927C27.5047 29.1783 30.9665 26.7158 30.9976 26.6947C31.133 26.6071 31.2197 26.4639 31.232 26.3064C31.2445 26.1488 31.1816 25.9943 31.0615 25.8876C29.0772 24.1262 28.9265 21.4088 28.9461 20.3877C29.8949 20.1821 30.2659 19.4113 30.3287 18.9752C30.3319 18.9516 30.3337 18.8152 30.3337 18.8152C30.9455 19.4647 31.8681 19.9517 33.2163 19.9517C34.5645 19.9517 35.4871 19.4647 36.099 18.8153C36.099 18.8153 36.1008 18.9517 36.1042 18.9753C36.167 19.4116 36.5382 20.1827 37.4878 20.388C37.5096 21.408 37.3633 24.1197 35.3714 25.8878C35.2528 25.9932 35.1923 26.1467 35.2027 26.3026C35.2134 26.4582 35.2987 26.6024 35.4306 26.6917ZM23.1566 16.8157H29.2757V18.8556C29.2377 19.0192 29.0797 19.4116 28.441 19.4116C28.1711 19.4116 27.9445 19.6089 27.915 19.8694C27.8968 20.0321 27.5159 23.694 29.9354 26.247C29.1428 27.0439 27.5737 29.1488 26.7941 33.8245H23.1566V16.8157ZM23.1128 15.788L26.4355 14.0384L28.716 15.2392L27.6735 15.788H23.1128ZM30.4293 16.8157H36.0033C35.9396 17.059 35.8349 17.3569 35.6638 17.65C35.1703 18.4953 34.3469 18.9239 33.2163 18.9239C32.0858 18.9239 31.2623 18.4954 30.7689 17.65C30.5978 17.3569 30.493 17.0589 30.4293 16.8157ZM31.9783 15.788L30.936 15.2392L33.2163 14.0384L36.5393 15.788H31.9783ZM25.9187 10.8499C25.9567 10.5373 26.2307 10.2938 26.5627 10.2938C26.8946 10.2938 27.1686 10.5373 27.2067 10.8499H25.9187ZM35.0466 10.8499C35.0062 9.97024 34.259 9.2662 33.3435 9.2662C32.4282 9.2662 31.6808 9.97024 31.6405 10.8499H28.2658C28.2254 9.97024 27.4782 9.2662 26.5628 9.2662C25.6475 9.2662 24.9002 9.97024 24.8598 10.8499H14.1933C14.1528 9.97024 13.4056 9.2662 12.4903 9.2662C11.575 9.2662 10.8276 9.97024 10.7873 10.8499H3.47264V8.6511H41.0012V10.85L35.0466 10.8499ZM31.6914 5.20224C31.699 5.20258 35.551 5.20269 35.551 5.20269C35.455 5.40857 35.4027 5.63305 35.4027 5.86575C35.4027 6.2961 35.5752 6.70053 35.8885 7.00483C36.0951 7.20544 36.43 7.20544 36.6366 7.00471C36.8432 6.80398 36.8432 6.47868 36.6365 6.27806C36.5232 6.1681 36.4608 6.02172 36.4608 5.86609C36.4609 5.71046 36.5233 5.56408 36.6368 5.4539C36.8035 5.29199 37.0251 5.20292 37.2609 5.20292C37.4966 5.20292 37.7182 5.2921 37.885 5.45412C38.1184 5.68066 38.247 5.98199 38.247 6.30238C38.247 6.62289 38.1184 6.92421 37.8849 7.15087C37.6096 7.41816 37.0756 7.59435 36.4556 7.62358H35.1028C33.9716 7.58133 31.6384 7.30695 30.4494 5.8211C30.1529 5.45058 29.8497 5.11032 29.5428 4.80169C30.5894 5.15074 31.6281 5.19961 31.6914 5.20224ZM25.5838 3.75533C26.7573 3.75533 28.2592 4.75898 29.6139 6.45162C30.0072 6.94317 30.4885 7.32534 31.0072 7.62346H26.6683C27.0874 7.05153 27.0732 6.31483 26.6003 5.81688C26.4022 5.60827 26.0675 5.59525 25.8528 5.78765C25.6381 5.98016 25.6247 6.30512 25.8227 6.51373C26.0076 6.70841 25.8686 6.98074 25.7301 7.11627C25.6129 7.23102 25.1795 7.56066 24.5309 6.98747C23.6809 6.23661 23.5161 5.35958 24.0788 4.58132C24.4702 4.03987 24.9469 3.76983 25.5359 3.7559C25.5519 3.75555 25.5679 3.75533 25.5838 3.75533ZM22.237 2.72118C23.1527 2.72278 23.994 2.75532 24.7619 2.84644C24.1571 3.02742 23.63 3.41392 23.213 3.99066C22.3686 5.15874 22.556 6.53634 23.688 7.62335H20.7861C21.9181 6.53623 22.1054 5.15874 21.2609 3.99066C20.8439 3.41392 20.3168 3.02742 19.7121 2.84644C20.48 2.75532 21.3214 2.72278 22.237 2.72118ZM18.9378 3.75578C19.5269 3.76971 20.0035 4.03964 20.395 4.5812C20.9576 5.35947 20.7929 6.2365 19.9431 6.98736C19.2939 7.56066 18.8608 7.23079 18.7436 7.11604C18.605 6.98062 18.4662 6.7083 18.6511 6.51362C18.8492 6.30501 18.8356 5.98005 18.621 5.78753C18.4062 5.59525 18.0714 5.60838 17.8734 5.81677C17.4007 6.3146 17.3864 7.05141 17.8055 7.62335H13.4655C13.9845 7.32534 14.4664 6.9434 14.86 6.4515C16.2332 4.73581 17.7583 3.73009 18.9378 3.75578ZM6.58942 5.45378C6.75589 5.29199 6.97737 5.20281 7.21308 5.20281C7.44891 5.20281 7.67051 5.29187 7.83721 5.4539C7.95066 5.56397 8.01308 5.71035 8.01308 5.86598C8.0132 6.02161 7.95078 6.16799 7.83745 6.27795C7.63077 6.47856 7.63078 6.80387 7.83733 7.0046C8.04389 7.20522 8.3787 7.20533 8.58549 7.00471C8.89879 6.70042 9.07125 6.29599 9.07113 5.86563C9.07113 5.63293 9.01906 5.40845 8.92301 5.20258C8.92301 5.20258 12.775 5.20247 12.7825 5.20212C12.8458 5.1995 13.8853 5.15063 14.932 4.80112C14.6247 5.10998 14.3212 5.45036 14.0247 5.82076C12.8359 7.30627 10.5028 7.58087 9.37139 7.62324H8.01849C7.39824 7.59412 6.86439 7.41794 6.58918 7.15064C6.35583 6.92399 6.22721 6.62255 6.22721 6.30215C6.2271 5.98187 6.35571 5.68055 6.58942 5.45378ZM5.46941 5.20269C5.27473 5.53439 5.16904 5.91017 5.16916 6.30238C5.16916 6.78491 5.32846 7.24267 5.61907 7.62335H3.47264V5.20269H5.46941ZM2.16665 1.78249C2.16665 1.36619 2.51534 1.02764 2.94373 1.02764C3.37212 1.02764 3.72081 1.3663 3.72081 1.78249C3.72081 2.19869 3.37212 2.53712 2.94373 2.53712C2.51534 2.53712 2.16665 2.19869 2.16665 1.78249ZM1.05805 40.2961C1.05805 39.0102 1.66984 38.1141 2.21897 38.1141H2.41459V44.2878H1.05805V40.2961ZM43.4159 46.3169H1.05805V45.3155H43.4159V46.3169ZM43.4159 44.2878H42.0593V38.1141H42.2551C42.8041 38.1141 43.4159 39.0102 43.4159 40.2961V44.2878Z" fill="#067DD3"/>
</svg>
