<svg width="50" height="51" viewBox="0 0 50 51" fill="none" xmlns="http://www.w3.org/2000/svg">
<g clip-path="url(#clip0_60_197)">
<path d="M40.3884 48.9784H9.61185C6.26818 48.9784 3.54785 46.2502 3.54785 42.8969V16.4723C3.54785 15.7052 4.16797 15.0831 4.93302 15.0831C5.69806 15.0831 6.31818 15.7052 6.31818 16.4723V42.897C6.31818 44.7184 7.79573 46.2002 9.61185 46.2002H40.3883C42.2044 46.2002 43.6818 44.7184 43.6818 42.897V29.3915C43.6818 28.6245 44.3021 28.0024 45.0669 28.0024C45.8318 28.0024 46.4521 28.6245 46.4521 29.3915V42.8969C46.4522 46.2502 43.732 48.9784 40.3884 48.9784Z" fill="#57578E"/>
<path d="M20.9478 31.2308C23.3672 31.2308 24.4525 32.5907 24.8796 33.3896C24.9332 33.4899 25.0788 33.4898 25.1322 33.3895C25.5579 32.5907 26.6373 31.231 29.0564 31.231C31.8122 31.231 34.2362 33.1176 34.2362 36.5627C34.2362 37.9567 33.9529 39.151 33.1668 40.4838C31.5645 43.1998 26.2863 46.721 25.2023 47.4148C25.0824 47.4915 24.9307 47.4918 24.8106 47.4154C23.7254 46.7249 18.4463 43.2213 16.8315 40.484C16.0453 39.1511 15.7639 37.9569 15.7639 36.5629C15.764 33.1174 18.1921 31.2308 20.9478 31.2308Z" fill="#B5B5FB"/>
<path d="M25.0059 48.8614C24.6732 48.8614 24.3486 48.7667 24.0674 48.5873C22.9813 47.8961 17.4667 44.289 15.6391 41.1908C14.7674 39.713 14.3787 38.2857 14.3787 36.5625C14.3787 32.1501 17.6833 29.8417 20.9476 29.8417C22.8861 29.8417 24.1782 30.5588 25.0046 31.3224C25.8295 30.5587 27.1196 29.8417 29.0564 29.8417C32.3189 29.8417 35.6215 32.1502 35.6215 36.5625C35.6215 38.2835 35.2319 39.711 34.3589 41.191C32.5066 44.3312 26.6132 48.1594 25.9473 48.5856C25.6651 48.7663 25.3399 48.8614 25.0059 48.8614ZM20.9476 32.62C19.1953 32.62 17.149 33.6525 17.149 36.5626C17.149 37.7924 17.4023 38.7235 18.0234 39.7764C19.1717 41.723 22.8218 44.4405 25.0043 45.8859C27.1864 44.4334 30.8349 41.7081 31.9745 39.7764C32.5971 38.721 32.851 37.79 32.851 36.5626C32.851 33.6525 30.8068 32.62 29.0563 32.62C27.4496 32.62 26.6998 33.3943 26.3538 34.044C26.0876 34.5437 25.5711 34.8538 25.0058 34.8538C24.4414 34.8538 23.9254 34.5443 23.6587 34.0463C23.3109 33.3953 22.5583 32.62 20.9476 32.62Z" fill="#57578E"/>
<path d="M42.3428 3.50208H7.65765C7.65765 3.50208 1.38525 11.2829 1.38525 14.1744C1.38525 18.7291 5.06701 22.4215 9.60864 22.4215C13.1292 22.4215 16.1316 20.202 17.3045 17.0829C18.4771 20.2021 21.4796 22.4215 25.0003 22.4215C28.5211 22.4215 31.5235 20.202 32.6962 17.0829C33.8688 20.2021 36.8713 22.4215 40.392 22.4215C44.9337 22.4215 48.6154 18.7291 48.6154 14.1744C48.6152 11.2829 42.3428 3.50208 42.3428 3.50208Z" fill="#B5B5FB"/>
<path d="M40.3917 23.8106C37.3304 23.8106 34.4839 22.3244 32.6959 19.937C30.9082 22.3243 28.0616 23.8106 25 23.8106C21.9387 23.8106 19.0922 22.3244 17.3042 19.937C15.5164 22.3243 12.6697 23.8106 9.60836 23.8106C4.31038 23.8106 0 19.4878 0 14.1743C0 13.2145 0.350002 11.4236 3.37688 6.97126C4.95862 4.64456 6.51498 2.7098 6.58031 2.62851C6.8432 2.30218 7.23911 2.11267 7.65737 2.11267H42.3423C42.7607 2.11267 43.1565 2.30218 43.4194 2.62851C43.4849 2.7098 45.0412 4.64456 46.623 6.97126C49.6499 11.4236 49.9999 13.2144 49.9999 14.1743C50.0003 19.4878 45.6899 23.8106 40.3917 23.8106ZM32.6959 15.6935C33.2724 15.6935 33.7887 16.0515 33.992 16.5926C34.9902 19.248 37.5621 21.0323 40.3915 21.0323C44.1623 21.0323 47.2298 17.9559 47.2298 14.1744C47.2298 12.7643 44.4214 8.38059 41.6759 4.89126H8.32417C5.57874 8.38049 2.77033 12.7643 2.77033 14.1744C2.77033 17.956 5.83792 21.0323 9.60855 21.0323C12.4381 21.0323 15.01 19.248 16.0083 16.5926C16.2116 16.0517 16.7279 15.6935 17.3044 15.6935C17.8809 15.6935 18.3972 16.0517 18.6005 16.5926C19.5989 19.248 22.1706 21.0323 25.0002 21.0323C27.8299 21.0323 30.4015 19.248 31.3998 16.5927C31.6031 16.0518 32.1194 15.6935 32.6959 15.6935Z" fill="#57578E"/>
<path d="M39.1405 12.0646H3.03922C2.27417 12.0646 1.65405 11.4425 1.65405 10.6754C1.65405 9.90836 2.27417 9.28625 3.03922 9.28625H39.1405C39.9053 9.28625 40.5257 9.90836 40.5257 10.6754C40.5257 11.4425 39.9055 12.0646 39.1405 12.0646Z" fill="#57578E"/>
</g>
<defs>
<clipPath id="clip0_60_197">
<rect width="50" height="50.1438" fill="white" transform="translate(0 0.473633)"/>
</clipPath>
</defs>
</svg>
