<svg width="64" height="64" viewBox="0 0 64 64" fill="none" xmlns="http://www.w3.org/2000/svg">
<path d="M25.9686 1.21875H26.4374L27.1561 1.28125L27.8436 1.40625L28.4999 1.59375L28.9686 1.78125L29.6874 2.125L30.1249 2.40625L30.4686 2.65625L30.7811 2.90625L31.0936 3.1875L31.5624 3.65625L31.9061 4.09375L32.1874 4.5L32.4999 5.03125L32.7811 5.625L33.0624 6.46875L33.1874 7L33.2811 7.71875L33.3124 8.3125V10.125H37.9061L38.3749 10.1875L38.8749 10.3438L39.3124 10.5625L39.6249 10.7812L39.9686 11.0625L40.2499 11.375L40.5311 11.8125L40.7186 12.1875L40.8749 12.6875L41.0936 14.2188L41.4374 16.875L41.9999 21.125L42.0936 21.7812H48.9999L49.4374 21.875L49.9374 22.0938L50.2811 22.3438L50.3749 22.4062V22.4688L50.4999 22.5312L50.7499 22.8438L50.9999 23.2812L51.1249 23.625L51.2499 24.375L51.5936 27L52.2186 31.75L52.7499 35.75L52.8749 36.6875L52.9374 36.8438L53.7499 37.6562L54.0311 38L54.3436 38.375L54.7811 39L55.1249 39.5625L55.3749 40L55.8124 40.9688L56.1249 41.8438L56.3436 42.6875L56.4999 43.4688L56.5936 44.25L56.6249 44.8125V45.5312L56.5624 46.4062L56.4374 47.2812L56.2186 48.2188L55.9686 49L55.6249 49.875L55.3124 50.5L54.9686 51.0938L54.7499 51.4375L54.6874 51.5312L54.9686 51.625L55.9374 51.9062L56.7811 52.1562L57.0311 52.3125L57.2186 52.5312L57.2811 52.6875V53.0625L57.1249 53.375L56.9061 53.5625L55.6249 54.375L55.0936 54.7188L54.9061 54.8438H54.8436L55.0624 55.0938L58.9061 58.9375L59.1249 59.25L59.3124 59.625L59.4374 60.0938L59.4686 60.5L59.3749 61.0938L59.2186 61.4688L58.9999 61.8438L58.8749 62H58.8124L58.7499 62.125L58.3436 62.4375L57.8436 62.6562L57.4061 62.75H56.8436L56.3436 62.625L55.9686 62.4375L55.6874 62.2188L55.3124 61.875L51.5936 58.1562H51.5311L51.2186 58.6562L50.7186 59.4375L50.3749 59.9688L50.1249 60.3125L49.8436 60.5L49.7186 60.5312H49.3749L49.1249 60.4062L48.8749 60.125L48.6249 59.3438L47.9061 56.8125L47.7499 56.25V56.125L46.8124 56.2812L46.1874 56.3438H44.6249L43.8124 56.25L43.0936 56.125L42.2499 55.9062L41.3124 55.5938L40.4061 55.1875L39.7186 54.8125L39.1249 54.4375L38.7811 54.1875L38.3749 53.875L37.9374 53.5L37.6249 53.2188L37.0936 52.6875L36.8124 52.3438L36.4686 51.9375L36.0936 51.4062L35.7186 50.8125L35.3436 50.125L34.9999 49.375L34.8124 48.9375L34.5624 49.4062L34.3124 49.7812L34.0624 50.125L33.7811 50.4688L33.4061 50.875L33.0311 51.25L32.5936 51.5938L32.1874 51.9062L31.5624 52.2812L31.0936 52.5312L30.3436 52.8438L29.7499 53.0312L28.9061 53.2188L28.1874 53.3125H26.8124L25.9686 53.1875L25.0936 52.9688L24.4061 52.7188L23.8436 52.4688L23.3436 52.1875L22.8124 51.8438L22.4061 51.5312L21.9686 51.1562L21.3749 50.5625L21.0936 50.2188L20.7499 49.75L20.4374 49.25L20.1249 48.6875L19.7499 49.375L19.4061 49.9062L19.1561 50.25L18.8749 50.5938L18.4999 51L18.2186 51.2812L17.8749 51.5625L17.5624 51.8125L17.1561 52.0938L16.6874 52.375L16.0311 52.7188L15.2811 53L14.6561 53.1875L13.8436 53.3438L13.3124 53.4062L12.8436 53.4375H12.4061L11.4374 53.3438L10.5311 53.1562L9.59363 52.8438L8.62488 52.375L8.03113 52L7.53113 51.625L7.15613 51.2812L6.90613 51.0625L6.65613 50.8125L6.43738 50.5625L6.06238 50.0938L5.68738 49.5312L5.37488 49L5.06238 48.3125L4.74988 47.375L4.59363 46.6875L4.49988 46L4.46863 45.5938V44.9375L4.53113 44.1875L4.65613 43.5L4.84363 42.7812L5.12488 42.0312L5.43738 41.375L5.81238 40.75L6.18738 40.2188L6.53113 39.8125L6.74988 39.5625L7.12488 39.1875L7.46863 38.9062L7.62488 38.7812L7.68738 38.5625L8.09363 35.4688L8.46863 32.625L9.06238 28.1562L9.59363 24.0625L11.0311 13.0938L11.1561 12.4688L11.3124 12.0312L11.5311 11.625L11.7811 11.2812L12.0624 10.9688H12.1249V10.9062L12.4999 10.625L12.9374 10.375L13.4374 10.1875L13.9061 10.0938L15.6249 10.0625H18.9999L19.0624 10.0312L19.0936 7.90625L19.1561 7.28125L19.3124 6.53125L19.4686 6L19.7811 5.25L20.1249 4.625L20.4686 4.125L20.8124 3.6875L21.2811 3.1875L21.6249 2.875L22.2499 2.40625L22.9374 2L23.5624 1.71875L24.3124 1.46875L24.8436 1.34375L25.4999 1.25L25.9686 1.21875ZM26.0936 2.75L25.3436 2.8125L24.7499 2.9375L24.0936 3.15625L23.4374 3.46875L22.9686 3.78125L22.5624 4.09375L21.9061 4.75L21.4999 5.3125L21.2186 5.8125L20.9686 6.375L20.7811 6.96875L20.6561 7.65625L20.6249 7.9375V10.125H31.7499L31.7811 9.90625L31.7499 7.8125L31.6561 7.15625L31.4374 6.40625L31.2186 5.90625L30.9374 5.375L30.6561 4.96875L30.3124 4.5625L30.1561 4.375L29.9061 4.15625L29.4374 3.78125L28.8749 3.4375L28.2186 3.125L27.6561 2.9375L27.0311 2.8125L26.2811 2.75H26.0936ZM14.1561 11.6562L13.7186 11.75L13.3124 11.9688L13.1249 12.125V12.1875H13.0624L12.8124 12.5312L12.6561 12.875L12.5624 13.3438L12.3749 14.6562L12.1561 16.375L11.8436 18.7188L11.4999 21.3125L11.2811 23L11.0311 24.9062L10.8749 26.0312L10.6874 27.5312L10.4999 28.9062L10.2811 30.5938L10.0311 32.5L9.87488 33.625L9.68738 35.125L9.49988 36.5L9.37488 37.4688L9.34363 37.7188L9.62488 37.625L10.2811 37.375L11.1561 37.1562L11.9999 37.0312L12.4061 37H13.0311L13.7811 37.0625L14.6249 37.2188L15.4686 37.4688L16.2186 37.7812L16.8749 38.125L17.5311 38.5625L17.8436 38.8125L18.1874 39.0938L18.3124 39.2188H18.3749V39.2812L18.4999 39.4062H18.5624V39.4688H18.6249L18.6874 39.5938L18.9061 39.8125L19.2499 40.25L19.6249 40.7812L20.1249 41.6562L20.2186 41.625L20.4686 41.125L20.7186 40.7188L21.0936 40.1875L21.3436 39.875L21.6874 39.5L22.1561 39.0312L22.5936 38.6875L23.0624 38.3438L23.5311 38.0625L24.1874 37.7188L24.9061 37.4375L25.6561 37.2188L26.4999 37.0625L27.2811 37H27.8436L28.4374 37.0312L28.4999 36.8125L28.9061 33.7812L29.3124 30.7188L29.8124 26.9375L30.2186 23.9062L30.3436 23.4062L30.5936 22.9062L30.8124 22.625L31.1249 22.3125L31.4686 22.0938L31.7811 21.9375L32.2811 21.8125L40.5311 21.7812L40.4686 21.2188L39.7811 16L39.4061 13.2188L39.3124 12.8125L39.1249 12.4375L38.8436 12.0938L38.4061 11.8125L38.0624 11.6875L37.8436 11.6562H33.3124L33.2811 15.8125L33.2186 16.1562L33.0311 16.4062L32.9061 16.5L32.7186 16.5625H32.3436L32.1249 16.4688L31.9686 16.3438L31.8124 16.0312L31.7811 15.7188V11.6562H20.6249L20.5936 15.9375L20.4999 16.2188L20.2811 16.4688L20.0624 16.5625H19.6561L19.4061 16.4375L19.2186 16.2188L19.1249 16L19.0936 12.0312V11.6562H14.1561ZM32.4686 23.3125L32.1874 23.4062L31.8749 23.6875L31.7499 23.9062L31.6249 24.5938L31.3436 26.8125L31.0311 29.2812L30.8436 30.75L30.6249 32.4062L30.4061 34.1562L30.1249 36.3438L30.0311 37.125V37.375L30.8436 37.6875L31.4999 38L32.0624 38.3438L32.4999 38.6562L32.9374 39L33.4061 39.4375L33.6561 39.6875L33.9374 40.0312L34.3436 40.5625L34.7186 41.1562L34.8749 41.4375L34.9686 41.4062L35.1561 40.875L35.5936 39.9688L35.8436 39.5312L36.2186 38.9375L36.6561 38.3438L36.9374 38L37.2499 37.6562L37.4686 37.4062L37.8749 37L38.2186 36.7188L38.4999 36.4688L39.0936 36.0312L39.7811 35.5938L40.4686 35.2188L41.0624 34.9375L41.8749 34.625L42.7186 34.375L43.6249 34.1875L44.5936 34.0625L45.6561 34.0312L46.3749 34.0625L47.1561 34.1562L48.0311 34.3125L48.7499 34.5L49.4686 34.75L50.2186 35.0625L51.0311 35.4688L51.1874 35.5312L51.1561 35.1562L50.6874 31.6875L49.9686 26.375L49.6561 24.125L49.5311 23.75L49.3124 23.5L49.0311 23.3438L48.9061 23.3125H32.4686ZM45.1561 35.5312L44.2811 35.5938L43.3749 35.75L42.6561 35.9375L41.9999 36.1562L41.1561 36.5312L40.4686 36.9062L39.7186 37.4062L39.2811 37.75L38.9061 38.0938L38.6561 38.3125L38.4061 38.5625L38.1874 38.8125L37.8436 39.2188L37.4999 39.6875L37.1874 40.1562L36.7811 40.9062L36.4999 41.5L36.2186 42.2812L35.9999 43.0625L35.8749 43.6875L35.7811 44.5625L35.7499 45.0625V45.4062L35.8124 46.1875L35.9374 47L36.1249 47.7812L36.4061 48.625L36.6561 49.1875L36.9061 49.6875L37.2186 50.25L37.6249 50.8438L37.9686 51.2812L38.3436 51.7188L38.9686 52.3438L39.6561 52.9062L40.1561 53.25L40.7811 53.625L41.2811 53.875L41.7499 54.0938L42.4999 54.375L43.2811 54.5938L43.9374 54.7188L44.7186 54.8125L45.5311 54.8438L46.3124 54.8125L47.0624 54.7188L47.3124 54.6562L47.2811 54.4062L46.9686 53.3125L46.7499 52.5312L46.7186 52.4688L46.4374 52.5L46.0936 52.5625L45.7499 52.5938H45.0311L44.3749 52.5L43.7811 52.3438L43.2811 52.1562L42.6249 51.8125L42.1874 51.5L41.7186 51.0625L41.4374 50.75L41.1561 50.3438L40.9061 49.9062L40.6561 49.375L40.4686 48.7188L40.3749 48.1875L40.3436 47.9062V47.4062L40.4374 47.0625L40.5624 46.875L40.8124 46.7188L40.9061 46.6875H49.9061L50.1874 46.8125L50.4061 47.0625L50.4999 47.3438L50.5311 47.5V47.9688L50.4061 48.6562L50.1874 49.375L49.9061 50.0312L49.8749 50.1875L51.9374 50.7812L52.9999 51.0938L53.1249 51.0625L53.4374 50.625L53.7811 50.0625L53.9999 49.6875L54.3436 48.9375L54.6249 48.1562L54.8124 47.5L54.9686 46.75L55.0624 45.9375V44.4688L54.9686 43.6562L54.8124 42.875L54.5936 42.0938L54.2499 41.2188L53.9374 40.5625L53.5311 39.875L53.1561 39.3438L52.8124 38.9062L52.4374 38.5L51.8124 37.875L51.3749 37.5312L50.9061 37.1875L50.3436 36.8438L49.6561 36.4688L48.9061 36.1562L48.0624 35.875L47.4374 35.7188L46.6249 35.5938L45.6561 35.5312H45.1561ZM26.9374 38.5312L26.1561 38.6562L25.5624 38.8125L24.9686 39.0312L24.4686 39.2812L23.9686 39.5625L23.5311 39.875L22.8749 40.4375L22.6561 40.6875L22.3749 41L22.0311 41.4688L21.7186 42L21.4686 42.5L21.2499 43.0625L21.0936 43.625L20.9686 44.25L20.9061 44.9062V45.375L20.9686 46.0938L21.1249 46.875L21.4061 47.7188L21.7499 48.4375L22.0936 48.9688L22.4999 49.5L22.9686 50L23.3124 50.3125L23.8749 50.7188L24.4999 51.0938L25.1249 51.375L25.7499 51.5938L26.2811 51.7188L26.9374 51.8125L27.4061 51.8438H27.7499L28.4686 51.7812L29.2811 51.625L29.9999 51.4062L30.5624 51.1562L30.9999 50.9375L31.4686 50.625L31.8749 50.3125L32.2499 49.9688L32.5311 49.6875L32.8124 49.3438L33.1249 48.9062L33.4374 48.3438L33.7186 47.75L33.9686 46.9688L34.1249 46.2188L34.1874 45.625V44.6562L34.1249 44.0938L33.9686 43.3438L33.7186 42.5938L33.4374 41.9688L33.1249 41.4375L32.7499 40.9375L32.4061 40.5625L31.9686 40.125L31.4374 39.7188L30.8124 39.3438L30.1561 39.0312L29.5624 38.8125L28.8436 38.625L28.1874 38.5312H26.9374ZM12.3749 38.5625L11.6874 38.625L10.9686 38.7812L10.4686 38.9375L9.99988 39.125L9.49988 39.375L9.06238 39.625L8.62488 39.9688L8.28113 40.25L7.71863 40.8125L7.43738 41.1562L7.09363 41.6562L6.81238 42.1562L6.53113 42.75L6.31238 43.4062L6.15613 44.0938L6.09363 44.5312L6.06238 45.25L6.09363 45.875L6.18738 46.5L6.31238 47.0312L6.53113 47.6875L6.74988 48.1875L7.18738 48.9375L7.49988 49.3438L7.78113 49.6875L8.31238 50.2188L8.74988 50.5625L9.06238 50.7812L9.53113 51.0625L10.2499 51.4062L10.9999 51.6562L11.5936 51.7812L12.0311 51.8438H13.4061L14.1874 51.7188L14.9374 51.5L15.5311 51.25L16.0311 51L16.5311 50.6875L16.9374 50.375L17.2499 50.0938L17.4999 49.875L17.8124 49.5312V49.4688H17.8749L18.2811 48.9062L18.5624 48.4375L18.8124 47.9375L19.0624 47.2812L19.2499 46.5938L19.3436 46L19.3749 45.6875V44.8125L19.2811 44.0312L19.1249 43.375L18.9061 42.75L18.6561 42.1875L18.3749 41.6875L17.9999 41.1562L17.7186 40.8125L17.3124 40.375L17.0624 40.1562L16.5311 39.75L15.9686 39.4062L15.4686 39.1562L15.0311 38.9688L14.4374 38.7812L13.8749 38.6562L13.4686 38.5938L13.0311 38.5625H12.3749ZM41.9686 48.1875L42.0936 48.6875L42.2811 49.1875L42.4999 49.5938L42.8749 50.0938H42.9374V50.1562L43.3749 50.5L43.8124 50.75L44.3124 50.9375L44.7499 51.0312L44.9999 51.0625H45.9061L46.3124 51L46.3436 50.9062L46.1561 50.25V49.9688L46.2499 49.7188L46.4061 49.5312L46.7186 49.375H47.0311L47.7499 49.5625L48.2811 49.7188H48.4374L48.6561 49.3438L48.8436 48.875L48.9686 48.375V48.1875H41.9686ZM47.9686 51.1875L48.0311 51.5L48.4999 53.1875L48.9999 54.9375L49.6561 57.25L49.8436 57.875L49.9374 57.9062L50.8436 56.5312L50.9686 56.375L51.2499 56.2188L51.3436 56.1875H51.5936L51.8749 56.3125L52.1249 56.5312L53.6874 58.0938H53.7499L53.7811 58.1875L53.9686 58.3438L56.6561 61.0312L56.9686 61.1875H57.3749L57.6249 61.0625L57.8436 60.8125L57.9374 60.5L57.9061 60.2188L57.7811 59.9688L57.5936 59.75H57.5311L57.4686 59.625L57.3436 59.5H57.2811L57.2186 59.375L56.9686 59.125H56.9061L56.8436 59H56.7811L56.7186 58.875L56.5311 58.7188L56.3436 58.5L56.1561 58.3438L55.9686 58.125L55.7811 57.9688L55.5936 57.75L55.4061 57.5938L55.2186 57.375H55.1561L55.0936 57.25L54.9686 57.125H54.9061L54.8436 57H54.7811L54.7186 56.875L54.5311 56.7188L54.3749 56.5312L54.1561 56.3438L54.0936 56.25H54.0311L53.9686 56.125H53.9061L53.8436 56L53.4686 55.625H53.4061L53.3436 55.5H53.2811L53.2186 55.375L52.9686 55.0938L52.9061 54.9375V54.5312L53.0624 54.2188L53.4374 53.9375L54.2811 53.375L54.5936 53.1562L54.6249 53.0938L53.9374 52.875L48.2499 51.25L47.9686 51.1875Z" fill="#067DD3"/>
<path d="M37.1561 26.6875H37.4374L37.7499 26.8125L37.9686 27.0625L38.0624 27.2812L38.1249 28.0625L38.2499 28.5312L38.4999 29.0312L38.7499 29.375L38.9999 29.625L39.3124 29.8438L39.7499 30.0625L40.0624 30.1562L40.3749 30.2188H41.0624L41.5624 30.0938L41.9374 29.9375L42.3749 29.6562L42.5311 29.5312L42.7499 29.2812L42.9686 28.9688L43.1874 28.5L43.3124 27.9688L43.3436 27.375L43.4374 27.0938L43.5624 26.9062L43.8436 26.7188L43.9686 26.6875H44.2186L44.4999 26.7812L44.7499 27L44.8749 27.2812L44.9061 27.75L44.8436 28.4688L44.6874 29.0625L44.4686 29.5938L44.1874 30.0625L43.9686 30.3438L43.6874 30.6562L43.4686 30.875L42.9999 31.2188L42.4061 31.5312L41.7499 31.75L41.2811 31.8438L40.7811 31.875L40.4686 31.8438L39.8436 31.75L39.3749 31.625L38.9061 31.4375L38.4374 31.1875L38.0624 30.9062L37.6874 30.5625L37.4061 30.25L37.0936 29.7812L36.8436 29.2812L36.6874 28.8438L36.5624 28.3125L36.5311 28.0938V27.3438L36.6874 26.9688L36.9061 26.7812L37.1561 26.6875Z" fill="#067DD3"/>
<path d="M12.4061 45.9688H13.0311L13.6874 46.0625L14.2499 46.25L14.7499 46.5L15.0936 46.75L15.4999 47.0938L15.7811 47.4375L15.9999 47.75L16.2499 48.2188L16.4374 48.75L16.4686 49L16.3749 49.3125L16.2186 49.5312L16.0311 49.6562L15.8436 49.7188H15.4999L15.2499 49.5938L15.0936 49.4375L14.9686 49.25L14.7811 48.7812L14.5936 48.4375L14.2499 48.0625L13.8124 47.7812L13.4374 47.625L13.1561 47.5625L12.8749 47.5312H12.5936L12.1249 47.5938L11.7499 47.7188L11.4061 47.9062L11.0936 48.1562L10.8124 48.5L10.5624 49L10.4374 49.2812L10.2499 49.5312L9.96863 49.6562L9.65613 49.6875L9.37488 49.5938L9.12488 49.375L8.99988 49.0938V48.7812L9.18738 48.2188L9.43738 47.75L9.71863 47.3438L10.0624 46.9688L10.4374 46.6562L10.8436 46.4062L11.3124 46.1875L11.8749 46.0312L12.4061 45.9688Z" fill="#067DD3"/>
<path d="M48.8436 40.8438H49.5624L50.0624 40.9375L50.5311 41.0938L50.9686 41.3438L51.3124 41.625L51.5936 41.9688L51.7811 42.3125L51.9374 42.7188L51.9999 43.0312V43.6562L51.8124 43.9688L51.6249 44.125L51.3124 44.2188L50.9999 44.1875L50.7499 44.0625L50.5311 43.8125L50.4374 43.5312L50.3749 43.0938L50.2186 42.7812L49.9686 42.5625L49.5936 42.4062L49.4374 42.375H48.9686L48.6561 42.4375L48.3436 42.5938L48.1561 42.75L48.0311 42.9688L47.9686 43.2188L47.9374 43.5938L47.7811 43.9062L47.5311 44.125L47.2499 44.2188L46.9686 44.1875L46.7186 44.0625L46.5624 43.9062L46.4374 43.7188L46.3749 43.375L46.4374 42.875L46.5936 42.375L46.8436 41.9375L47.1249 41.625L47.4374 41.3438L47.8749 41.0938L48.4374 40.9062L48.8436 40.8438Z" fill="#067DD3"/>
<path d="M41.4061 40.8438H41.9686L42.4999 40.9375L42.9686 41.0938L43.4061 41.3438L43.7499 41.625L43.9999 41.9062L44.1874 42.1875L44.3749 42.6875L44.4686 43.125V43.5938L44.3124 43.9062L44.0624 44.125L43.7499 44.2188L43.4061 44.1562L43.1561 44L42.9686 43.7188L42.8749 43.125L42.7499 42.8438L42.5624 42.625L42.1874 42.4375L41.9374 42.375H41.4686L41.1249 42.4375L40.7811 42.625L40.5936 42.8438L40.4686 43.1875L40.4061 43.6562L40.2186 43.9688L40.0311 44.125L39.7186 44.2188L39.4686 44.1875L39.2499 44.0938L39.0624 43.9375L38.9061 43.625L38.8749 43.5V43.2188L38.9686 42.7188L39.1249 42.2812L39.3124 41.9688L39.5936 41.625L39.9686 41.3125L40.4374 41.0625L40.9374 40.9062L41.4061 40.8438Z" fill="#067DD3"/>
<path d="M15.2499 41.875L15.8436 41.9062L16.2186 42L16.7186 42.25L17.0311 42.5L17.2499 42.75L17.4999 43.25L17.5936 43.625V44.0938L17.4686 44.375L17.3436 44.5312L17.1249 44.6562L16.9374 44.7188H16.7186L16.4374 44.625L16.2811 44.5L16.1249 44.2812L15.9999 43.75L15.9061 43.5938L15.6561 43.4375L15.4999 43.4062H15.2186L14.9374 43.5312H14.8749L14.8124 43.6562L14.7499 43.875L14.6874 44.2188L14.4999 44.5L14.2811 44.6562L14.0624 44.7188H13.8124L13.5311 44.5938L13.3749 44.4375L13.2186 44.1875L13.1874 44.0625V43.6875L13.3124 43.1875L13.5311 42.75L13.8749 42.375L14.2186 42.1562L14.5624 42L14.9374 41.9062L15.2499 41.875Z" fill="#067DD3"/>
<path d="M9.93738 41.875L10.4999 41.9062L10.8749 42L11.3749 42.25L11.6561 42.4688L11.9061 42.75L12.0936 43.0938L12.2186 43.4375L12.2499 43.625V44.125L12.1249 44.375L11.9999 44.5312L11.7186 44.6875L11.5936 44.7188H11.3749L11.0936 44.625L10.9374 44.5L10.7499 44.1875L10.6561 43.7188L10.5311 43.5312L10.2811 43.4375L10.1249 43.4062H9.84363L9.53113 43.5625L9.40613 43.8125L9.34363 44.1875L9.18738 44.4688L8.99988 44.625L8.71863 44.7188H8.46863L8.18738 44.5938L8.03113 44.4688L7.87488 44.2188L7.84363 44.0938V43.6562L7.96863 43.1562L8.15613 42.7812L8.49988 42.4062L8.74988 42.2188L9.21863 42L9.59363 41.9062L9.93738 41.875Z" fill="#067DD3"/>
<path d="M25.5624 47.375H29.5624L29.8436 47.4688L30.0311 47.5938L30.1874 47.8125L30.2499 48V48.2812L30.1249 48.5625L29.9374 48.7812L29.7499 48.875L29.5936 48.9062H25.4999L25.2499 48.8125L24.9999 48.5625L24.8749 48.2188L24.9061 47.9375L25.0311 47.6875L25.2811 47.4688L25.5624 47.375Z" fill="#067DD3"/>
<path d="M29.0311 42.4688H31.4374L31.6874 42.5312L31.9686 42.7188L32.1249 42.9688L32.1561 43.0625V43.4375L32.0311 43.6875L31.8124 43.9062L31.5311 44H28.9374L28.6561 43.875L28.4374 43.625L28.3436 43.3438L28.3749 43.0312L28.4999 42.7812L28.7499 42.5625L29.0311 42.4688Z" fill="#067DD3"/>
<path d="M23.9061 42.4688H26.1874L26.4999 42.5312L26.6874 42.6562L26.9061 42.9062L26.9686 43.0625V43.4375L26.8124 43.7188L26.6561 43.875L26.4686 43.9688L26.3436 44H23.7499L23.4374 43.8438L23.2499 43.5938L23.1561 43.3438L23.1874 43.0312L23.3124 42.7812L23.5624 42.5625L23.7186 42.5L23.9061 42.4688Z" fill="#067DD3"/>
</svg>
