<svg width="64" height="64" viewBox="0 0 64 64" fill="none" xmlns="http://www.w3.org/2000/svg">
<path d="M54.0311 39.9688H55.9686L56.0311 40.0625V42.625L56.0936 42.875L58.9999 48.6875L59.2811 49.2812L59.5936 49.875L60.0936 50.875L60.3436 51.4062L60.6249 51.9375L60.9061 52.5312L61.1874 53.0625L61.4374 53.5625L61.7186 54.1562L61.9374 54.5938L61.9999 54.8125V59.3438L61.9061 59.8125L61.7499 60.25L61.5624 60.5938L61.3124 60.9375L61.1561 61.125L60.8124 61.4062L60.4686 61.625L60.1561 61.7812L59.6561 61.9375L59.2186 62H4.71863L4.31238 61.9375L3.90613 61.8125L3.40613 61.5625L3.03113 61.2812L2.65613 60.9062L2.43738 60.5938L2.18738 60.125L2.06238 59.75L1.99988 59.375L1.96863 58.9688V55L2.03113 54.6562L2.28113 54.125L2.56238 53.5938L2.90613 52.875L3.18738 52.3438L3.53113 51.625L3.81238 51.0938L4.15613 50.375L4.43738 49.8438L4.56238 49.5625L4.74988 49.5938L5.53113 49.9688L6.12488 50.2812L6.37488 50.4062L6.34363 50.5938L5.84363 51.5938L5.40613 52.5L4.81238 53.6875L4.65613 53.9688L23.3749 53.9375L25.0311 50.625L25.2186 50.3438L25.4999 50.0938L25.7186 50L25.9374 49.9688H37.9686L38.3436 50.0312L38.5311 50.125L38.8124 50.375L39.0936 50.875L40.6249 53.9375L59.3436 53.9688L58.9686 53.25L54.3749 44.0625L54.3436 44.0312L19.9999 44L19.9686 43.9688V42.0312L20.0311 41.9688H53.9686V40.0312L54.0311 39.9688ZM26.6561 52L26.5624 52.0938L26.2186 52.8125L25.8436 53.5625L25.6249 53.9688H38.3436L38.2811 53.8125L37.4061 52.0625L37.3436 52H26.6561ZM4.03113 56L3.99988 56.0938V59L4.06238 59.3438L4.21863 59.625L4.46863 59.8438L4.81238 59.9688H59.1874L59.4999 59.8438L59.6874 59.7188V59.6562H59.7499L59.9061 59.4062L59.9686 59.1875V56H4.03113Z" fill="#067DD3"/>
<path d="M13.0311 0.96875H20.9686L21.7499 1.03125L22.3749 1.15625L22.9061 1.34375L23.4374 1.59375L23.9999 1.96875L24.3436 2.25L24.8436 2.75L25.1874 3.21875L25.4374 3.625L25.6874 4.1875L25.8436 4.65625L25.9686 5.25L25.9999 5.5625V24.4688L25.9061 25.0625L25.7811 25.5312L25.5936 26.0312L25.2499 26.6875L24.8749 27.1875L24.5311 27.5625L24.3124 27.7812L23.9061 28.0938L23.3436 28.4375L22.8749 28.6562L22.3124 28.8438L21.6874 28.9688L21.3436 29L19.3124 29.0312L19.0936 29.9062L19.0311 30.4688L18.9999 32.1562L18.9374 32.5938L18.7499 33.3125L18.4686 33.9688L18.0936 34.5938L17.7811 35L17.4061 35.5L17.0936 35.9062L16.8436 36.25L16.6561 36.5L16.4061 36.9062L16.2499 37.25L16.0311 37.9688H17.0311L17.3436 38.0312L17.5936 38.1562L17.8124 38.375L17.9686 38.6562L17.9999 38.7812V47.1875L17.9061 47.4375L17.7499 47.6875L17.5311 47.875L17.3124 47.9688L17.0936 48H2.81238L2.46863 47.875L2.18738 47.625L2.03113 47.3438L1.96863 46.9062V38.9375L2.03113 38.6562L2.15613 38.4062L2.31238 38.25L2.56238 38.0625L2.87488 37.9688H3.96863L3.93738 35.6562L3.84363 35.125L3.65613 34.625L2.56238 32.4375L2.24988 31.7188L2.06238 31L1.99988 30.5625L1.96863 30.125V20.8438L2.03113 20.0625L2.18738 19.2812L2.37488 18.6562L2.56238 18.1875L2.81238 17.6875L3.06238 17.25L3.31238 16.875L3.71863 16.375L4.06238 16L4.49988 15.5938L5.09363 15.1562L5.56238 14.875L6.03113 14.625L6.74988 14.3438L7.40613 14.1562L7.96863 14.0625V5.84375L8.03113 5.1875L8.15613 4.625L8.34363 4.09375L8.59363 3.59375L8.81238 3.21875L9.06238 2.875L9.34363 2.5625L9.49988 2.375L9.74988 2.15625L10.1561 1.84375L10.6249 1.5625L11.0624 1.34375L11.6249 1.15625L12.2186 1.03125L13.0311 0.96875ZM12.9374 3L12.3749 3.0625L11.9374 3.1875L11.4374 3.4375L11.0936 3.6875L10.8749 3.875L10.5936 4.21875L10.3749 4.5625L10.1561 5.0625L10.0311 5.625L9.99988 6.09375V21.5938L10.0936 21.875L11.9686 25L12.3436 25.5938L12.4999 25.75L12.6561 25.875L12.9061 25.9688H13.3749L13.7499 25.7812L13.9374 25.5625L14.0624 25.2812L14.4061 23.9375L14.6874 22.9375L14.9374 22.4062L15.2186 22.0312L15.4686 21.75L15.9374 21.4062L16.3749 21.1875L16.7499 21.0625L17.0936 21H17.9061L18.4374 21.125L18.8124 21.2812L19.1874 21.5L19.4999 21.75L19.8124 22.0625L20.1249 22.5312L20.3436 23.0312L20.4686 23.5938V24.3438L20.3436 24.9688L19.8749 26.75L19.8436 26.9688H21.3124L21.8124 26.875L22.2186 26.7188L22.6249 26.5L22.9999 26.2188L23.2811 25.9375L23.5624 25.5312L23.7811 25.0938L23.9061 24.6875L23.9686 24.3125V5.6875L23.8749 5.1875L23.7186 4.75L23.4374 4.25L23.0936 3.84375L22.6561 3.5L22.3436 3.3125L21.8749 3.125L21.4061 3.03125L21.0624 3H12.9374ZM7.84363 16.125L6.99988 16.4062L6.40613 16.7188L5.96863 17.0312L5.56238 17.375L5.24988 17.6875L4.87488 18.1875L4.62488 18.5938L4.34363 19.1875L4.15613 19.75L4.06238 20.25L4.03113 20.5312L3.99988 21.2188V30.0312L4.06238 30.625L4.18738 31.0938L4.56238 31.875L5.34363 33.4375L5.68738 34.2188L5.87488 34.875L5.96863 35.5312L5.99988 37.9688H13.9999L14.1249 37.2188L14.3124 36.5938L14.5311 36.0938L14.7499 35.6875L14.9999 35.3125L15.3124 34.9062L15.6874 34.4062V34.3438H15.7499L16.0624 33.9062L16.3749 33.5L16.6249 33.0938L16.8436 32.5938L16.9686 32L16.9999 30L17.0936 29.5L17.4374 28.1562L17.8436 26.625L18.1874 25.2812L18.4686 24.1875V23.75L18.3436 23.4375L18.1249 23.1875L17.8124 23.0312L17.7186 23H17.2811L16.9999 23.125L16.7499 23.3125L16.5624 23.6875L16.3436 24.5L15.9999 25.8125L15.8124 26.3125L15.5624 26.75L15.1874 27.1875L14.8749 27.4375L14.4374 27.6875L14.0624 27.8438L13.7186 27.9375L13.4999 27.9688H12.6874L12.1561 27.8438L11.6874 27.625L11.3436 27.4062L11.0311 27.125L10.8124 26.9062L10.4374 26.3438L10.1561 25.875L9.56238 24.875L9.03113 24L8.62488 23.3125L8.34363 22.8438L8.06238 22.3438L7.99988 21.9688L7.96863 16.125H7.84363ZM4.03113 40L3.99988 40.75V45.9688L15.8749 46L15.9686 45.9688V40H4.03113Z" fill="#067DD3"/>
<path d="M38.7811 7.96875H39.2499L39.9686 8.03125L40.7499 8.1875L41.3749 8.375L42.0311 8.65625L42.6249 8.96875L43.1249 9.3125L43.5624 9.65625L44.0311 10.0938L44.3749 10.4688L44.6874 10.875L44.9999 11.3438L45.2499 11.7812L45.5311 12.4062L45.7811 13.1562L45.9374 13.9062L45.9999 14.5312V15.9688H48.9686L49.0311 16.125L48.9999 18H34.0311V20.9375L33.9999 21H31.9999L31.9686 20.9688V18L30.0311 18.0312L29.9999 31.9688H41.9686L42.0311 32.125L41.9999 34L30.0311 34.0312V34.9688L30.0936 35.3125L30.2499 35.625L30.4686 35.8125L30.8124 35.9375L42.9686 35.9688L42.9999 36L43.0311 37.9375L42.9999 38H30.7186L30.3124 37.9375L29.9061 37.8125L29.4061 37.5625L29.0311 37.2812L28.6561 36.9062L28.4374 36.5938L28.1874 36.125L28.0624 35.75L27.9999 35.4062L27.9686 35.0312V16.9375L28.0311 16.6562L28.1561 16.4062L28.3124 16.25L28.5624 16.0625L28.7186 16L28.9374 15.9688H31.9686V14.875L32.0311 14.0625L32.1561 13.375L32.3124 12.8438L32.5311 12.25L32.8436 11.5938L33.2186 11L33.5311 10.5938L33.8124 10.25L34.3124 9.75L34.6561 9.46875L35.1874 9.09375L35.6561 8.8125L36.1561 8.5625L36.8124 8.3125L37.4999 8.125L38.3124 8L38.7811 7.96875ZM38.8436 10L38.1874 10.0625L37.6249 10.1875L36.9999 10.4062L36.4061 10.7188L36.0936 10.9375L35.7811 11.1875L35.4686 11.4688L35.2499 11.6875L34.8436 12.2188L34.4999 12.8125L34.2499 13.4375L34.1249 13.875L34.0311 14.5312L33.9999 15.0938V15.9688H43.9686V14.6562L43.8749 13.9375L43.6874 13.2812L43.4686 12.7812L43.2186 12.3125L42.9061 11.875L42.5624 11.5L42.2811 11.2188L41.7811 10.8438L41.1874 10.5L40.6561 10.2812L40.1249 10.125L39.5311 10.0312L38.8436 10Z" fill="#067DD3"/>
<path d="M44.9061 18.9688H60.8749L61.3436 19.0312L61.6561 19.2188L61.8749 19.4688L61.9999 19.8125L62.0311 21.5938V27.9688L61.9999 35.3438L61.9061 35.8125L61.7499 36.25L61.5624 36.5938L61.3124 36.9375L61.1561 37.125H61.0936L61.0624 37.2188L60.5936 37.5625L60.1561 37.7812L59.6561 37.9375L59.2186 38H46.7186L46.3124 37.9375L45.9061 37.8125L45.4061 37.5625L45.0311 37.2812L44.6561 36.9062L44.4374 36.5938L44.1874 36.125L44.0624 35.75L43.9999 35.375L43.9686 35V19.9062L44.0311 19.6562L44.1561 19.4062L44.4061 19.1562L44.7186 19L44.9061 18.9688ZM46.0311 21L45.9999 21.0625V31.9688L46.1561 32H59.8749L59.9686 31.9688V21H46.0311ZM46.0311 34L45.9999 34.0938V34.9688L46.0624 35.3438L46.2499 35.6562L46.4999 35.8438L46.8124 35.9688H59.1874L59.4999 35.8438L59.7499 35.6562L59.9061 35.375L59.9686 35.1562V34H46.0311Z" fill="#067DD3"/>
<path d="M48.0311 22.9688H49.9686L50.0311 23.1562V25.0625L50.0936 25.5938L50.1874 25.9688L50.3749 26.375L50.5936 26.75L50.9374 27.125L51.2499 27.4062L51.7499 27.6875L52.1561 27.8438L52.6249 27.9375H53.3436L53.8124 27.8438L54.2186 27.6875L54.5936 27.5L54.9999 27.1875L55.2811 26.9062L55.4999 26.5938L55.7499 26.0938L55.8749 25.6875L55.9374 25.3438L55.9686 23.0312L56.0311 22.9688H57.9686L58.0311 23.0312V23.5938L57.9999 25.4688L57.9061 26.0625L57.7811 26.5312L57.5936 27.0312L57.2499 27.6875L56.8749 28.1875L56.5311 28.5625L56.1249 28.9375L55.5624 29.3125L55.0936 29.5625L54.5936 29.75L53.9999 29.9062L53.6874 29.9688L53.3749 30H52.5624L51.9374 29.9062L51.3749 29.75L50.7811 29.5L50.2186 29.1875L49.7811 28.8438L49.4061 28.5L49.0624 28.125L48.8436 27.8125L48.5936 27.4062L48.3436 26.9062L48.1249 26.25L48.0311 25.7812L47.9686 25.0938V23.0312L48.0311 22.9688Z" fill="#067DD3"/>
<path d="M47.0311 7.96875H52.9999L53.6249 8.03125L54.1249 8.1875L54.6249 8.4375L55.0624 8.78125L55.2811 9L55.5311 9.34375L55.7499 9.71875L55.9374 10.25L55.9999 10.625L56.0311 16.9375L55.9999 17H53.9999L53.9686 16.9688L53.9374 10.7812L53.7811 10.4062L53.5311 10.1875L53.2186 10.0625L52.9686 10.0312L46.9999 10L46.9686 9.96875V8.03125L47.0311 7.96875Z" fill="#067DD3"/>
<path d="M12.0311 14.9688H21.9686L22.0311 15.0625V16.9375L21.9999 17H11.9999L11.9686 16.9688V15.0312L12.0311 14.9688Z" fill="#067DD3"/>
<path d="M12.0311 10.9688H21.9686L22.0311 11.125L21.9999 13H11.9999L11.9686 12.9688V11.0312L12.0311 10.9688Z" fill="#067DD3"/>
<path d="M15.0311 4.96875H18.9686L19.0311 5.0625V6.9375L18.9999 7H14.9999L14.9686 6.96875V5.03125L15.0311 4.96875Z" fill="#067DD3"/>
<path d="M28.0311 7.96875H31.9686L32.0311 8.0625L31.9999 10H27.9999L27.9686 9.96875V8.03125L28.0311 7.96875Z" fill="#067DD3"/>
<path d="M42.0311 49.9688H45.9686L46.0311 50.1562L45.9999 52H41.9999L41.9686 51.9688V50.0312L42.0311 49.9688Z" fill="#067DD3"/>
<path d="M18.0311 49.9688H21.9686L22.0311 50.1562L21.9999 52H17.9999L17.9686 51.9375V50.0312L18.0311 49.9688Z" fill="#067DD3"/>
<path d="M10.0311 49.9688H11.9686L12.0311 50.0625L11.9999 52H9.99988L9.96863 51.9688V50.0312L10.0311 49.9688Z" fill="#067DD3"/>
<path d="M14.0311 49.9688H15.9686L16.0311 50.0625L15.9999 52H13.9999L13.9686 51.9062V50.0312L14.0311 49.9688Z" fill="#067DD3"/>
<path d="M47.0311 45.9688H48.9686L49.0311 46.0625L48.9999 48H46.9999L46.9686 47.9062V46.0312L47.0311 45.9688Z" fill="#067DD3"/>
<path d="M39.0311 45.9688H40.9686L41.0311 46.0625L40.9999 48H38.9999L38.9686 47.9062V46.0312L39.0311 45.9688Z" fill="#067DD3"/>
<path d="M35.0311 45.9688H36.9686L37.0311 46.0625L36.9999 48H34.9999L34.9686 47.9062V46.0312L35.0311 45.9688Z" fill="#067DD3"/>
<path d="M23.0311 45.9688H24.9686L25.0311 46.0625L24.9999 48H22.9999L22.9686 47.9062V46.0312L23.0311 45.9688Z" fill="#067DD3"/>
<path d="M19.0311 45.9688H20.9686L21.0311 46.0625L20.9999 48H18.9999L18.9686 47.9375V46.0312L19.0311 45.9688Z" fill="#067DD3"/>
<path d="M43.0311 45.9688H44.9686L45.0311 46.0625L44.9999 48H42.9999L42.9686 47.9062V46.0312L43.0311 45.9688Z" fill="#067DD3"/>
<path d="M31.0311 45.9688H32.9686L33.0311 46.0625L32.9999 48H30.9999L30.9686 47.9062V46.0312L31.0311 45.9688Z" fill="#067DD3"/>
<path d="M27.0311 45.9688H28.9686L29.0311 46.0625L28.9999 48H26.9999L26.9686 47.9062V46.0312L27.0311 45.9688Z" fill="#067DD3"/>
<path d="M48.0311 49.9688H49.9686L50.0311 50.0938L49.9999 52H47.9999L47.9686 51.9062V50.0312L48.0311 49.9688Z" fill="#067DD3"/>
<path d="M51.0311 45.9688H52.9686L53.0311 46.0625L52.9999 48H50.9999L50.9686 47.9062V46.0312L51.0311 45.9688Z" fill="#067DD3"/>
<path d="M52.0311 49.9688H53.9686L54.0311 50.1562L53.9999 52H51.9999L51.9686 51.9375V50.0312L52.0311 49.9688Z" fill="#067DD3"/>
</svg>
