<svg width="52" height="46" viewBox="0 0 52 46" fill="none" xmlns="http://www.w3.org/2000/svg">
<path d="M32.6786 30C35.3414 30 37.5 32.1586 37.5 34.8214V38.0399L37.4831 38.2724C36.8172 42.8285 32.7247 45.0194 25.8574 45.0194C19.0149 45.0194 14.8571 42.8536 13.9596 38.3498L13.9286 38.0357V34.8214C13.9286 32.1586 16.0872 30 18.75 30H32.6786ZM32.6786 33.2143H18.75C17.8624 33.2143 17.1429 33.9338 17.1429 34.8214V37.8651C17.7424 40.4374 20.4656 41.8051 25.8574 41.8051C31.249 41.8051 33.8499 40.4522 34.2857 37.9139V34.8214C34.2857 33.9338 33.5662 33.2143 32.6786 33.2143ZM34.8076 17.1405L46.6071 17.1429C49.2699 17.1429 51.4286 19.3015 51.4286 21.9643V25.1828L51.4117 25.4152C50.7458 29.9714 46.6533 32.1622 39.786 32.1622L39.1113 32.155C38.4791 30.6259 37.3181 29.3739 35.8572 28.6232C36.9604 28.8394 38.2673 28.9479 39.786 28.9479C45.1776 28.9479 47.7785 27.5951 48.2143 25.0568V21.9643C48.2143 21.0767 47.4947 20.3571 46.6071 20.3571H35.3571C35.3571 19.2292 35.1635 18.1465 34.8076 17.1405ZM4.82143 17.1429L16.621 17.1405C16.3244 17.9789 16.1405 18.8705 16.0874 19.7971L16.0714 20.3571H4.82143C3.93383 20.3571 3.21429 21.0767 3.21429 21.9643V25.0079C3.81384 27.5803 6.53706 28.9479 11.9288 28.9479C13.2618 28.9479 14.4243 28.8652 15.4256 28.7024C14.0311 29.4597 12.9256 30.6802 12.3136 32.1569L11.9288 32.1622C5.08631 32.1622 0.928503 29.9964 0.0309915 25.4927L0 25.1786V21.9643C0 19.3015 2.15863 17.1429 4.82143 17.1429ZM25.7143 12.8571C29.8564 12.8571 33.2143 16.215 33.2143 20.3571C33.2143 24.4993 29.8564 27.8571 25.7143 27.8571C21.5721 27.8571 18.2143 24.4993 18.2143 20.3571C18.2143 16.215 21.5721 12.8571 25.7143 12.8571ZM25.7143 16.0714C23.3474 16.0714 21.4286 17.9902 21.4286 20.3571C21.4286 22.7241 23.3474 24.6429 25.7143 24.6429C28.0812 24.6429 30 22.7241 30 20.3571C30 17.9902 28.0812 16.0714 25.7143 16.0714ZM39.6429 0C43.785 0 47.1429 3.35786 47.1429 7.5C47.1429 11.6421 43.785 15 39.6429 15C35.5007 15 32.1429 11.6421 32.1429 7.5C32.1429 3.35786 35.5007 0 39.6429 0ZM11.7857 0C15.9278 0 19.2857 3.35786 19.2857 7.5C19.2857 11.6421 15.9278 15 11.7857 15C7.64358 15 4.28571 11.6421 4.28571 7.5C4.28571 3.35786 7.64358 0 11.7857 0ZM39.6429 3.21429C37.2759 3.21429 35.3571 5.13307 35.3571 7.5C35.3571 9.86693 37.2759 11.7857 39.6429 11.7857C42.0098 11.7857 43.9286 9.86693 43.9286 7.5C43.9286 5.13307 42.0098 3.21429 39.6429 3.21429ZM11.7857 3.21429C9.41878 3.21429 7.5 5.13307 7.5 7.5C7.5 9.86693 9.41878 11.7857 11.7857 11.7857C14.1526 11.7857 16.0714 9.86693 16.0714 7.5C16.0714 5.13307 14.1526 3.21429 11.7857 3.21429Z" fill="#57578E"/>
</svg>
