<svg width="50" height="49" viewBox="0 0 50 49" fill="none" xmlns="http://www.w3.org/2000/svg">
<path d="M48.2138 0H1.7857C1.3121 0 0.857901 0.182727 0.523018 0.507984C0.188135 0.833241 0 1.27438 0 1.73437V34.6873C0 35.1473 0.188135 35.5884 0.523018 35.9137C0.857901 36.239 1.3121 36.4217 1.7857 36.4217H48.2138C48.6874 36.4217 49.1416 36.239 49.4765 35.9137C49.8114 35.5884 49.9995 35.1473 49.9995 34.6873V1.73437C49.9995 1.27438 49.8114 0.833241 49.4765 0.507984C49.1416 0.182727 48.6874 0 48.2138 0ZM46.4281 32.9529H3.57139V3.46873H46.4281V32.9529Z" fill="#57578E"/>
<path d="M28.8033 38.4855C28.4937 38.2762 28.1269 38.1614 27.7497 38.156H22.2498C21.8726 38.1614 21.5058 38.2762 21.1962 38.4855L11.4106 45.423C11.1018 45.6399 10.8726 45.9471 10.7564 46.2996C10.6402 46.6521 10.6432 47.0315 10.7649 47.3822C10.8866 47.733 11.1207 48.0367 11.4328 48.249C11.745 48.4613 12.1189 48.5711 12.4999 48.5622H37.4996C37.8775 48.5635 38.2461 48.4483 38.5523 48.2333C38.8586 48.0182 39.0867 47.7143 39.2038 47.3654C39.3209 47.0164 39.321 46.6403 39.2041 46.2913C39.0872 45.9423 38.8593 45.6382 38.5532 45.423L28.8033 38.4855ZM17.9463 45.0935L22.8391 41.6247H27.1604L32.1425 45.0935H17.9463Z" fill="#57578E"/>
<path d="M8.92852 29.4843H41.071C41.5446 29.4843 41.9988 29.3015 42.3337 28.9763C42.6686 28.651 42.8567 28.2099 42.8567 27.7499V15.6093C42.8567 15.1493 42.6686 14.7082 42.3337 14.3829C41.9988 14.0577 41.5446 13.875 41.071 13.875H35.714C35.2404 13.875 34.7862 14.0577 34.4513 14.3829C34.1164 14.7082 33.9283 15.1493 33.9283 15.6093V26.0155H32.1426V12.1406C32.1426 11.6806 31.9544 11.2395 31.6195 10.9142C31.2847 10.589 30.8305 10.4062 30.3569 10.4062H24.9998C24.5262 10.4062 24.072 10.589 23.7371 10.9142C23.4022 11.2395 23.2141 11.6806 23.2141 12.1406V26.0155H21.4284V8.67187C21.4284 8.21188 21.2403 7.77074 20.9054 7.44548C20.5705 7.12023 20.1163 6.9375 19.6427 6.9375H14.2856C13.812 6.9375 13.3578 7.12023 13.0229 7.44548C12.688 7.77074 12.4999 8.21188 12.4999 8.67187V26.0155H10.7142V13.875C10.7142 13.415 10.5261 12.9738 10.1912 12.6486C9.85631 12.3233 9.40211 12.1406 8.92852 12.1406C8.45492 12.1406 8.00072 12.3233 7.66584 12.6486C7.33096 12.9738 7.14282 13.415 7.14282 13.875V27.7499C7.14282 28.2099 7.33096 28.651 7.66584 28.9763C8.00072 29.3015 8.45492 29.4843 8.92852 29.4843ZM37.4997 17.3437H39.2853V26.0155H37.4997V17.3437ZM26.7855 13.875H28.5712V26.0155H26.7855V13.875ZM16.0713 10.4062H17.857V26.0155H16.0713V10.4062Z" fill="#57578E"/>
</svg>
