<svg width="51" height="49" viewBox="0 0 51 49" fill="none" xmlns="http://www.w3.org/2000/svg">
<path d="M50.1818 9.50141V13.7243C50.1812 14.284 49.9511 14.8207 49.542 15.2165C49.133 15.6124 48.5785 15.835 48 15.8357H31.8204C29.645 13.9121 26.9547 12.6189 24.0565 12.1036C22.2388 11.7789 20.3944 11.6149 18.546 11.6139C18.1827 11.6139 17.8186 11.6255 17.4545 11.6383V9.50141C17.4552 8.94162 17.6853 8.40494 18.0943 8.00911C18.5033 7.61328 19.0579 7.39062 19.6364 7.38998H48C48.5785 7.39062 49.133 7.61328 49.542 8.00911C49.9511 8.40494 50.1812 8.94162 50.1818 9.50141ZM48 17.9471H33.7958C35.4628 20.0783 36.5386 22.5868 36.921 25.234C37.6454 25.7171 38.2378 26.3632 38.6474 27.1167C39.057 27.8701 39.2716 28.7085 39.2727 29.5599V33.7828C39.2746 34.587 39.0847 35.3809 38.7177 36.1025C39.2749 37.263 39.4175 38.5699 39.123 39.8174C38.8285 41.0649 38.1136 42.1823 37.0909 42.9934V45.3956C37.0868 46.5415 36.6937 47.6542 35.9721 48.5627H43.7727C44.6037 48.5612 45.4031 48.2544 46.0093 47.7044C46.6156 47.1544 46.9834 46.4021 47.0385 45.5997L48.8881 17.8582C48.596 17.9171 48.2984 17.9469 48 17.9471ZM45.8182 1.05571C45.8182 0.917065 45.79 0.779769 45.7352 0.651668C45.6804 0.523567 45.6001 0.407172 45.4987 0.309132C45.3974 0.211093 45.2772 0.133332 45.1448 0.08029C45.0124 0.0272483 44.8705 -3.4028e-05 44.7273 2.03462e-06H40.3636C40.2744 -0.000169991 40.1854 0.0105671 40.0989 0.0319585L22.6444 4.25481C22.4084 4.31187 22.1989 4.44362 22.0492 4.62912C21.8995 4.81461 21.8182 5.0432 21.8182 5.27856H45.8182V1.05571ZM30.4426 36.5025C30.3547 36.3207 30.2151 36.1669 30.0401 36.0592C29.8651 35.9514 29.662 35.8942 29.4545 35.8942H18.5455C18.3381 35.8942 18.135 35.9514 17.96 36.0591C17.785 36.1669 17.6453 36.3206 17.5574 36.5024C17.4695 36.6841 17.4369 36.8864 17.4635 37.0854C17.4901 37.2845 17.5747 37.4721 17.7076 37.6262L23.1621 43.9605C23.2645 44.0793 23.3927 44.1748 23.5375 44.2404C23.6822 44.3059 23.8401 44.3399 24 44.3399C24.1599 44.3399 24.3178 44.3059 24.4625 44.2404C24.6073 44.1748 24.7355 44.0793 24.8379 43.9605L30.2924 37.6262C30.4252 37.4721 30.5098 37.2845 30.5364 37.0855C30.563 36.8865 30.5305 36.6842 30.4426 36.5025ZM34.3636 35.8942H32.5324C32.7217 36.4113 32.7694 36.967 32.6708 37.5072C32.5722 38.0474 32.3307 38.5537 31.9698 38.9768L30.0788 41.1728H34.3636C35.087 41.1728 35.7807 40.8947 36.2921 40.3997C36.8036 39.9048 37.0909 39.2335 37.0909 38.5335C37.0909 37.8335 36.8036 37.1622 36.2921 36.6672C35.7807 36.1723 35.087 35.8942 34.3636 35.8942ZM16.0312 38.9778C15.6701 38.5547 15.4283 38.0483 15.3296 37.5079C15.2308 36.9675 15.2784 36.4115 15.4677 35.8942H2.72727C2.00396 35.8942 1.31026 36.1723 0.7988 36.6672C0.287337 37.1622 0 37.8335 0 38.5335C0 39.2335 0.287337 39.9048 0.7988 40.3997C1.31026 40.8947 2.00396 41.1728 2.72727 41.1728H17.9216L16.0312 38.9778ZM28.2606 43.2842L26.5142 45.3121C26.2071 45.6686 25.8229 45.9554 25.3886 46.1523C24.9543 46.3491 24.4806 46.4512 24.0011 46.4513C23.5215 46.4514 23.0478 46.3495 22.6134 46.1528C22.179 45.9562 21.7946 45.6695 21.4874 45.3132L19.74 43.2842H2.18182V45.3956C2.18182 46.2356 2.52662 47.0412 3.14038 47.6351C3.75413 48.2291 4.58656 48.5627 5.45455 48.5627H31.6364C32.5043 48.5627 33.3368 48.2291 33.9505 47.6351C34.5643 47.0412 34.9091 46.2356 34.9091 45.3956V43.2842H28.2606ZM36 29.5599H1.09091C0.801582 29.5599 0.524105 29.6712 0.31952 29.8691C0.114935 30.0671 0 30.3356 0 30.6156V32.7271C0 33.0071 0.114935 33.2756 0.31952 33.4736C0.524105 33.6715 0.801582 33.7828 1.09091 33.7828H36C36.2893 33.7828 36.5668 33.6715 36.7714 33.4736C36.976 33.2756 37.0909 33.0071 37.0909 32.7271V30.6156C37.0909 30.3356 36.976 30.0671 36.7714 29.8691C36.5668 29.6712 36.2893 29.5599 36 29.5599ZM34.9091 27.4485H2.18182C2.18182 23.8086 3.67597 20.3178 6.33558 17.744C8.99518 15.1702 12.6024 13.7243 16.3636 13.7243H20.7273C24.4885 13.7243 28.0957 15.1702 30.7553 17.744C33.4149 20.3178 34.9091 23.8086 34.9091 27.4485ZM12 22.6978C12 22.3846 11.904 22.0784 11.7242 21.818C11.5444 21.5576 11.2889 21.3546 10.9898 21.2348C10.6908 21.1149 10.3618 21.0836 10.0444 21.1447C9.72697 21.2058 9.4354 21.3566 9.20655 21.5781C8.9777 21.7995 8.82185 22.0817 8.75871 22.3889C8.69558 22.696 8.72798 23.0144 8.85183 23.3038C8.97569 23.5932 9.18542 23.8405 9.45452 24.0145C9.72362 24.1885 10.04 24.2814 10.3636 24.2814C10.7975 24.2809 11.2134 24.1139 11.5202 23.817C11.827 23.5202 11.9995 23.1176 12 22.6978ZM16.3636 19.5307C16.3636 19.2175 16.2677 18.9113 16.0879 18.6509C15.9081 18.3905 15.6525 18.1875 15.3535 18.0676C15.0545 17.9478 14.7255 17.9164 14.408 17.9775C14.0906 18.0386 13.799 18.1895 13.5702 18.4109C13.3413 18.6324 13.1855 18.9145 13.1224 19.2217C13.0592 19.5289 13.0916 19.8473 13.2155 20.1367C13.3393 20.426 13.5491 20.6733 13.8182 20.8474C14.0873 21.0214 14.4036 21.1142 14.7273 21.1142C15.1611 21.1138 15.5771 20.9468 15.8838 20.6499C16.1906 20.353 16.3632 19.9505 16.3636 19.5307ZM20.1818 22.6978C20.1818 22.3846 20.0858 22.0784 19.906 21.818C19.7262 21.5576 19.4707 21.3546 19.1717 21.2348C18.8727 21.1149 18.5436 21.0836 18.2262 21.1447C17.9088 21.2058 17.6172 21.3566 17.3884 21.5781C17.1595 21.7995 17.0037 22.0817 16.9405 22.3889C16.8774 22.696 16.9098 23.0144 17.0337 23.3038C17.1575 23.5932 17.3672 23.8405 17.6363 24.0145C17.9054 24.1885 18.2218 24.2814 18.5455 24.2814C18.9793 24.2809 19.3952 24.1139 19.702 23.817C20.0088 23.5202 20.1813 23.1176 20.1818 22.6978ZM24 19.5307C24 19.2175 23.904 18.9113 23.7242 18.6509C23.5444 18.3905 23.2889 18.1875 22.9898 18.0676C22.6908 17.9478 22.3618 17.9164 22.0444 17.9775C21.727 18.0386 21.4354 18.1895 21.2066 18.4109C20.9777 18.6324 20.8219 18.9145 20.7587 19.2217C20.6956 19.5289 20.728 19.8473 20.8518 20.1367C20.9757 20.426 21.1854 20.6733 21.4545 20.8474C21.7236 21.0214 22.04 21.1142 22.3636 21.1142C22.7975 21.1138 23.2134 20.9468 23.5202 20.6499C23.827 20.353 23.9995 19.9505 24 19.5307ZM28.3636 22.6978C28.3636 22.3846 28.2677 22.0784 28.0879 21.818C27.9081 21.5576 27.6525 21.3546 27.3535 21.2348C27.0545 21.1149 26.7255 21.0836 26.408 21.1447C26.0906 21.2058 25.799 21.3566 25.5702 21.5781C25.3413 21.7995 25.1855 22.0817 25.1224 22.3889C25.0592 22.696 25.0916 23.0144 25.2155 23.3038C25.3393 23.5932 25.5491 23.8405 25.8182 24.0145C26.0873 24.1885 26.4036 24.2814 26.7273 24.2814C27.1611 24.2809 27.5771 24.1139 27.8838 23.817C28.1906 23.5202 28.3632 23.1176 28.3636 22.6978Z" fill="#57578E"/>
</svg>
