<svg width="50" height="52" viewBox="0 0 50 52" fill="none" xmlns="http://www.w3.org/2000/svg">
<path d="M41.4062 35.3867H25.7812V39.3042H41.4062V35.3867Z" fill="#57578E"/>
<path d="M21.0938 45.5721H1.5625V49.4896H21.0938V45.5721Z" fill="#57578E"/>
<path d="M33.5984 15.7992C34.8928 15.7992 35.9421 14.7469 35.9421 13.4488C35.9421 12.1506 34.8928 11.0983 33.5984 11.0983C32.304 11.0983 31.2546 12.1506 31.2546 13.4488C31.2546 14.7469 32.304 15.7992 33.5984 15.7992Z" fill="#57578E"/>
<path d="M18.75 24.4178H48.4375V2.47986H18.75V24.4178ZM44.5312 4.83035H46.0938V6.39734H44.5312V4.83035ZM41.4062 4.83035H42.9688V6.39734H41.4062V4.83035ZM25.8289 12.5825L28.3431 11.897C28.4531 11.5255 28.6022 11.1668 28.788 10.827L27.4904 8.55555L28.7097 7.33272L30.9747 8.63398C31.3136 8.44765 31.6713 8.29808 32.0417 8.18781L32.7253 5.66634C33.2994 5.60261 33.8788 5.60263 34.4529 5.66639L35.1364 8.18789C35.5068 8.29815 35.8645 8.4477 36.2033 8.63401L38.4683 7.33271L39.6876 8.55558L38.3901 10.827C38.5758 11.1668 38.725 11.5255 38.8349 11.8971L41.3492 12.5826C41.4127 13.1583 41.4127 13.7393 41.3492 14.3151L38.8349 15.0007C38.725 15.3722 38.5758 15.7309 38.3901 16.0707L39.6876 18.3421L38.4683 19.5649L36.2033 18.2637C35.8645 18.45 35.5068 18.5996 35.1363 18.7098L34.4528 21.2313C33.8787 21.295 33.2992 21.295 32.7252 21.2313L32.0417 18.7098C31.6712 18.5995 31.3136 18.45 30.9747 18.2637L28.7097 19.5649L27.4905 18.3421L28.788 16.0707C28.6022 15.7308 28.4531 15.3721 28.3431 15.0006L25.8289 14.315C25.7654 13.7392 25.7654 13.1582 25.8289 12.5825Z" fill="#57578E"/>
<path d="M11.7188 22.8507C10.0191 22.8507 8.35756 23.3562 6.94432 24.3032C5.53109 25.2502 4.4296 26.5962 3.77916 28.171C3.12872 29.7458 2.95854 31.4787 3.29013 33.1506C3.62172 34.8224 4.4402 36.358 5.64206 37.5634C6.84391 38.7687 8.37517 39.5895 10.0422 39.922C11.7092 40.2546 13.4371 40.0839 15.0074 39.4316C16.5777 38.7793 17.9199 37.6746 18.8642 36.2573C19.8085 34.84 20.3125 33.1737 20.3125 31.4692C20.3125 29.1834 19.4071 26.9913 17.7955 25.375C16.1838 23.7587 13.998 22.8507 11.7188 22.8507ZM11.7188 33.8197C11.2552 33.8197 10.8021 33.6818 10.4166 33.4235C10.0312 33.1653 9.7308 32.7982 9.55341 32.3687C9.37602 31.9392 9.3296 31.4666 9.42004 31.0106C9.51047 30.5547 9.73369 30.1359 10.0615 29.8071C10.3893 29.4784 10.8069 29.2545 11.2615 29.1638C11.7162 29.0732 12.1874 29.1197 12.6157 29.2976C13.0439 29.4755 13.41 29.7768 13.6675 30.1633C13.925 30.5498 14.0625 31.0043 14.0625 31.4692C14.0625 32.0926 13.8156 32.6904 13.376 33.1312C12.9365 33.572 12.3404 33.8197 11.7188 33.8197Z" fill="#57578E"/>
<path d="M3.90625 38.5208H2.34375V44.0052H3.90625V38.5208Z" fill="#57578E"/>
<path d="M20.3125 38.5208H18.75V44.0052H20.3125V38.5208Z" fill="#57578E"/>
<path d="M17.1875 40.8712H15.625V44.0052H17.1875V40.8712Z" fill="#57578E"/>
<path d="M7.03125 40.8712H5.46875V44.0052H7.03125V40.8712Z" fill="#57578E"/>
<path d="M10.1562 42.4382H8.59375V44.0052H10.1562V42.4382Z" fill="#57578E"/>
<path d="M14.0625 42.4382H12.5V44.0052H14.0625V42.4382Z" fill="#57578E"/>
<path d="M42.3216 41.14L41.9336 41.5292L43.8744 43.4612L46.4372 40.8911C45.8388 40.4224 45.0903 40.1891 44.3325 40.2349C43.5746 40.2808 42.8595 40.6026 42.3216 41.14Z" fill="#57578E"/>
<path d="M44.4287 44.0131L46.3693 45.9448L46.7409 45.5722C47.2767 45.0328 47.5976 44.3157 47.6434 43.5557C47.6891 42.7958 47.4565 42.0452 46.9893 41.4451L44.4287 44.0131Z" fill="#57578E"/>
<path d="M40.1118 43.3561C39.5258 43.9438 39.1965 44.741 39.1965 45.5721C39.1965 46.4033 39.5258 47.2005 40.1118 47.7882C40.6979 48.376 41.4927 48.7061 42.3215 48.7061C43.1503 48.7061 43.9452 48.376 44.5312 47.7882L45.7789 46.537L41.3431 42.1213L40.1118 43.3561Z" fill="#57578E"/>
<path d="M35.9375 28.3352H32.0312V34.6032H35.9375V28.3352Z" fill="#57578E"/>
<path d="M18.75 25.2713C19.3201 25.9214 19.7981 26.6471 20.1706 27.4281H48.4375V25.2013H18.75V25.2713Z" fill="#57578E"/>
</svg>
