<svg width="36" height="36" viewBox="0 0 36 36" fill="none" xmlns="http://www.w3.org/2000/svg">
<path d="M29.6941 35.8199C28.4837 35.8187 27.3008 35.4576 26.295 34.7822C25.2892 34.1068 24.5058 33.1474 24.0436 32.0255C23.5815 30.9035 23.4615 29.6693 23.6988 28.479C23.9362 27.2887 24.5201 26.1956 25.3768 25.3381C26.2336 24.4806 27.3246 23.8971 28.512 23.6614C29.6994 23.4258 30.9298 23.5485 32.0476 24.0142C33.1655 24.4798 34.1205 25.2674 34.792 26.2774C35.4635 27.2874 35.8213 28.4744 35.8201 29.6883C35.8217 30.495 35.6642 31.294 35.3568 32.0394C35.0493 32.7848 34.5979 33.462 34.0286 34.0318C33.4593 34.6016 32.7832 35.053 32.0394 35.3598C31.2955 35.6667 30.4984 35.8231 29.6941 35.8199ZM30.2401 28.2141C30.0892 28.2015 29.9392 28.2467 29.8201 28.3404C29.4841 28.5691 29.1481 28.7977 28.8181 29.0384C28.6987 29.1372 28.5919 29.2504 28.5001 29.3754C28.4758 29.4042 28.4618 29.4404 28.4604 29.4781C28.459 29.5158 28.4703 29.5529 28.4924 29.5834C28.5145 29.6139 28.5462 29.6361 28.5825 29.6464C28.6187 29.6567 28.6573 29.6545 28.6921 29.6402C28.7761 29.6402 28.8541 29.58 28.9321 29.5499C29.0101 29.5198 29.0761 29.4777 29.1541 29.4536C29.2321 29.4296 29.3221 29.4536 29.3221 29.58C29.325 29.6301 29.325 29.6803 29.3221 29.7304C29.0901 30.6972 28.8541 31.664 28.6141 32.6307C28.5764 32.7519 28.5829 32.8825 28.6324 32.9993C28.6818 33.1162 28.771 33.2116 28.8841 33.2686C28.9946 33.3228 29.1178 33.3459 29.2404 33.3353C29.363 33.3247 29.4804 33.2808 29.5801 33.2084C29.9041 32.9978 30.2221 32.7812 30.5281 32.5465C30.6854 32.4117 30.8301 32.2627 30.9601 32.1012C30.9796 32.0775 30.9903 32.0477 30.9903 32.017C30.9903 31.9862 30.9796 31.9565 30.9601 31.9327C30.9416 31.9034 30.9136 31.8814 30.8808 31.8705C30.848 31.8595 30.8124 31.8603 30.7801 31.8726C30.7021 31.8923 30.6258 31.9184 30.5521 31.9508L30.2881 32.0711C30.1861 32.1072 30.1321 32.0711 30.1381 31.9568C30.1442 31.8778 30.1562 31.7993 30.1741 31.7221C30.3961 30.8195 30.6121 29.917 30.8341 29.0144C30.8666 28.9214 30.8759 28.8219 30.8611 28.7245C30.8463 28.6271 30.8079 28.5349 30.7492 28.4559C30.6906 28.3768 30.6135 28.3135 30.5247 28.2713C30.4359 28.2292 30.3382 28.2095 30.2401 28.2141ZM30.8821 26.9565C30.8777 26.8252 30.8456 26.6963 30.7878 26.5784C30.7301 26.4605 30.648 26.3563 30.547 26.2727C30.446 26.189 30.3284 26.1279 30.202 26.0933C30.0757 26.0587 29.9434 26.0514 29.8141 26.0719C29.6805 26.0859 29.5525 26.1326 29.441 26.2077C29.3296 26.2828 29.2382 26.3842 29.1749 26.5029C29.1115 26.6217 29.0782 26.7541 29.0777 26.8888C29.0772 27.0235 29.1096 27.1562 29.1721 27.2754C29.2567 27.4668 29.4039 27.6236 29.5893 27.7199C29.7747 27.8161 29.9874 27.8461 30.1921 27.8049C30.3904 27.7606 30.5674 27.6489 30.6931 27.4889C30.8188 27.3288 30.8856 27.1301 30.8821 26.9264V26.9565Z" fill="#57578E"/>
<path d="M11.01 21.9802C11.1776 21.5015 11.2746 21.0008 11.298 20.4939C11.3982 19.6974 11.325 18.8885 11.0834 18.1231C10.8418 17.3577 10.4376 16.6539 9.89866 16.0602C9.35973 15.4666 8.69886 14.9971 7.9616 14.6843C7.22433 14.3714 6.42819 14.2226 5.62805 14.248C5.12451 14.2705 4.62425 14.341 4.13405 14.4586C3.88205 14.4586 3.87605 14.8257 3.99605 14.952L6.99605 18.1412C7.05505 18.1974 7.10203 18.2651 7.13414 18.3401C7.16624 18.4151 7.1828 18.4958 7.1828 18.5774C7.1828 18.6591 7.16624 18.7398 7.13414 18.8148C7.10203 18.8898 7.05505 18.9575 6.99605 19.0137L4.83005 21.0716C4.78711 21.1301 4.73108 21.1776 4.66646 21.2103C4.60184 21.2431 4.53045 21.2602 4.45805 21.2602C4.38565 21.2602 4.31426 21.2431 4.24964 21.2103C4.18502 21.1776 4.12898 21.1301 4.08605 21.0716L1.08605 17.7621C0.846049 17.6297 0.594049 17.6237 0.588049 17.8704C0.42557 18.3505 0.328689 18.8505 0.300049 19.3567C0.3065 20.1382 0.470053 20.9105 0.780927 21.6272C1.0918 22.3439 1.54361 22.9904 2.10934 23.528C2.67506 24.0655 3.34308 24.4832 4.07344 24.7559C4.80381 25.0286 5.58151 25.1508 6.36005 25.1152C6.86523 25.1128 7.36778 25.0419 7.85405 24.9046L14.724 32.1554C15.1482 32.5346 15.6927 32.7505 16.2607 32.7649C16.8288 32.7792 17.3834 32.5909 17.826 32.2336C18.0515 32.063 18.2299 31.8375 18.3443 31.5785C18.4587 31.3195 18.5055 31.0355 18.48 30.7534C18.4861 30.1921 18.2704 29.6513 17.88 29.2491L11.01 21.9802Z" fill="#57578E"/>
<path d="M35.2501 6.97319C34.8956 5.71272 34.2825 4.54041 33.4501 3.53131C32.4829 2.37789 31.216 1.51564 29.7901 1.04017C29.0392 0.787953 28.2585 0.636211 27.4681 0.588875C26.2688 0.497491 25.0644 0.680613 23.9461 1.12441C22.6965 1.63665 21.5726 2.41474 20.6521 3.40495C20.2801 3.79006 19.9441 4.20525 19.5781 4.6084L19.4941 4.50611C18.951 3.78102 18.3247 3.12261 17.6281 2.54448C16.8652 1.90736 16.0012 1.40294 15.0721 1.0522C13.9722 0.644656 12.7965 0.48443 11.6281 0.582858C10.4805 0.65972 9.35915 0.962321 8.32806 1.47341C6.586 2.35634 5.20491 3.82012 4.42206 5.61329C3.82846 6.94071 3.49831 8.37137 3.45006 9.82537C3.41541 10.5868 3.46572 11.3497 3.60006 12.0999H3.75006C4.35283 11.9601 4.96773 11.8795 5.58606 11.8592H5.70006C6.8209 11.8449 7.93209 12.0684 8.96071 12.5151C9.98933 12.9618 10.9121 13.6216 11.6685 14.4513C12.425 15.2809 12.9979 16.2615 13.3497 17.3289C13.7016 18.3962 13.8244 19.5261 13.7101 20.6444C13.7101 20.849 13.6801 21.0536 13.6561 21.2461L19.6501 27.6124L19.7041 27.6786L20.9641 29.0084C21.1391 26.789 22.1417 24.7174 23.7719 23.2063C25.4021 21.6952 27.5402 20.8556 29.7601 20.855C30.1031 20.8557 30.4458 20.8778 30.7861 20.9212C31.2361 20.3857 31.6801 19.8441 32.0941 19.2785C33.0495 18.0282 33.8682 16.6786 34.5361 15.2529C35.1241 14.0284 35.5072 12.7151 35.6701 11.3658C35.8138 9.88812 35.6712 8.39652 35.2501 6.97319Z" fill="#57578E"/>
</svg>
