<svg width="64" height="64" viewBox="0 0 64 64" fill="none" xmlns="http://www.w3.org/2000/svg">
<path d="M20.64 0.960205H23.4L24.32 1.00021L24.72 1.24021L24.96 1.60021L25 1.84021V15.9602H25.96V5.80021L26.16 5.40021L26.32 5.20021L26.64 5.00021L26.76 4.96021H30.96L31.32 5.00021L31.64 5.20021L31.92 5.52021L32 5.84021L32.04 15.9602H44.2L43.8 15.4402L43.24 14.6002L42.76 13.6802L42.48 13.0002L42.24 12.1602L42.04 11.1602L42 10.8402V9.08021L42.16 8.08021L42.44 7.12021L42.68 6.48021L43.04 5.68021L43.48 4.96021L43.8 4.52021L44.32 3.88021L45 3.20021L45.4 2.88021L46 2.44021L46.84 1.96021L47.52 1.64021L48.4 1.32021L49.2 1.12021L49.96 1.00021H52L52.96 1.16021L53.72 1.36021L54.56 1.68021L55.4 2.08021L56.16 2.56021L56.72 3.00021L57.2 3.44021L57.52 3.72021L57.88 4.12021L58.28 4.64021L58.8 5.44021L59.24 6.28021L59.56 7.12021L59.76 7.80021L59.92 8.64021L60 9.32021V10.7202L59.84 11.8002L59.6 12.7202L59.32 13.4802L58.96 14.2402L58.48 15.0402L58.12 15.5202L57.76 15.9602H59.2L60 16.0802L60.76 16.3602L61.24 16.6402L61.64 16.9602L62.12 17.4402L62.52 18.0402L62.8 18.6402L62.96 19.2402L63 19.5602V50.4802L62.88 51.0802L62.72 51.5202L62.4 52.1602L62 52.6802L61.52 53.1602L60.92 53.5602L60.28 53.8402L59.8 53.9602L59.52 54.0002H38.4L38.64 54.6402L39.64 57.6402L39.72 57.9602H42.84L43.32 58.0002L43.56 58.1202L43.88 58.4402L44 58.7202L44.04 60.9602L54.28 61.0002L54.6 61.1602L54.92 61.5202L55 61.7602V62.2402L54.8 62.6402L54.48 62.9202L54.28 63.0002H9.75996L9.43996 62.8802L9.23996 62.7202L9.03996 62.4002L8.95996 62.0802L8.99996 61.7202L9.19996 61.3202L9.51996 61.0802L9.71996 61.0002H19.96V58.9602L20.04 58.6002L20.28 58.2402L20.56 58.0402L20.92 57.9602H24.28L24.32 57.7602L24.8 56.3202L25.4 54.4802L25.56 54.0002H4.63996L4.07996 53.9202L3.43996 53.7202L2.83996 53.4002L2.35996 53.0402L1.83996 52.5202L1.39996 51.8402L1.15996 51.2402L0.999961 50.5602L0.959961 49.6402V19.9602L1.03996 19.1602L1.23996 18.5202L1.55996 17.8802L1.87996 17.4402L2.31996 16.9602L2.79996 16.6002L3.23996 16.3602L3.71996 16.1602L4.35996 16.0002L4.75996 15.9602H11.96V8.80021L12.2 8.32021L12.48 8.08021L12.64 8.00021H17.28L17.6 8.16021L17.8 8.36021L17.96 8.60021L18 8.72021V15.9602H18.96V1.84021L19.12 1.44021L19.36 1.16021L19.64 1.00021L20.64 0.960205ZM21.04 3.00021L21 3.04021V25.9602H22.96V3.04021L22.8 3.00021H21.04ZM52.04 3.08021L52 3.12021V8.96021L52.04 9.00021H57.28L57.88 8.96021L57.84 8.56021L57.6 7.72021L57.36 7.08021L56.96 6.32021L56.56 5.76021L56.12 5.24021L55.64 4.76021L55.2 4.40021L54.6 4.00021L53.76 3.56021L52.68 3.20021L52.16 3.08021H52.04ZM49.88 3.08021L48.88 3.32021L48.04 3.64021L47.32 4.04021L46.8 4.40021L46.36 4.76021L45.6 5.52021L45.12 6.20021L44.72 6.88021L44.4 7.64021L44.16 8.48021L44 9.56021V10.4802L44.16 11.5202L44.4 12.3602L44.72 13.0802L45.12 13.8002L45.36 14.1202L45.52 14.0802L45.88 13.6802L49.76 9.80021L49.96 9.64021L50 9.56021V3.12021L49.88 3.08021ZM28 7.00021V25.9602H29.96V7.00021H28ZM14.04 10.0002L14 10.0402V25.9602H15.96V10.0402L15.56 10.0002H14.04ZM51.36 11.0002L51.08 11.3202L46.84 15.5602L47.16 15.8402L47.76 16.2002L48.6 16.5602L49.4 16.8002L50.44 16.9602L51.12 17.0002L52.44 16.8402L53.4 16.5602L54.12 16.2402L54.72 15.9202L55.28 15.5202L55.76 15.0802L55.84 15.0402V14.9602L56 14.8802V14.8002H56.08L56.36 14.4802L56.76 13.9602L57.12 13.3602L57.52 12.5202L57.76 11.7602L57.88 11.2802V11.0002H51.36ZM18 18.0002V25.9602L18.04 26.0002H18.72L18.96 25.9602V18.0002H18ZM25 18.0002V25.9602H25.96V18.0002H25ZM4.79996 18.0002L4.31996 18.1202L3.83996 18.3602L3.47996 18.6802L3.19996 19.1202L3.03996 19.5602L2.99996 19.7602V46.0002L23.44 46.0402L60.96 46.0002L61 19.8802L60.84 19.2402L60.6 18.8002L60.32 18.4802L59.88 18.2002L59.36 18.0402L59.2 18.0002H55.12L54.32 18.3602L53.36 18.6802L52.4 18.8802L51.8 18.9602H50.12L49.16 18.8002L48.24 18.5602L47.12 18.1202L46.84 18.0002H32V25.9602L32.84 26.0002L32.96 25.9602L33 19.8402L33.16 19.4402L33.32 19.2402L33.64 19.0402L34 19.0002H37.76L38.32 19.0402L38.6 19.2002L38.8 19.4002L38.92 19.6002L38.96 19.7602V27.2002L38.88 27.4402L38.64 27.7602L38.32 27.9602H5.79996L5.43996 27.8402L5.11996 27.4802L5.03996 27.2802L4.99996 26.9602V19.8802L5.11996 19.5202L5.27996 19.2802L5.67996 19.0402L6.55996 19.0002H9.75996L10.32 19.0402L10.6 19.2002L10.88 19.5202L10.96 19.7602L11 25.9602H11.96V18.0002H4.79996ZM6.99996 21.0002V26.0002L8.95996 25.9602V21.0402L8.91996 21.0002H6.99996ZM35 21.0002V25.9602H36.96V21.0402L36.92 21.0002H35ZM2.99996 48.0002V50.1202L3.07996 50.6002L3.35996 51.1602L3.75996 51.5602L4.15996 51.8002L4.67996 51.9602L4.91996 52.0002H57.72L59.28 51.9602L59.72 51.8402L60.12 51.6402L60.48 51.3202L60.76 50.9202L60.92 50.5202L60.96 50.3202V48.0402L45.56 48.0002H2.99996ZM27.76 54.0002L27.6 54.3202L27.12 55.7602L26.64 57.1602L26.4 57.8802V58.0002L37.56 57.9602L37.48 57.6002L37 56.1602L36.52 54.7602L36.28 54.0402L36.24 54.0002H27.76ZM22 60.0002V60.9602L22.04 61.0002H41.96L42 60.0402L41.96 60.0002H22Z" fill="#067DD3"/>
<path d="M4.35996 16H10.04L10.68 16.12V16.16L11.68 16.28L11.8 16.48L11.76 16.84L11.88 16.88H12V16.96H12.08L12.16 17.2H12.24L12.32 17.4L12.28 17.52L12.2 17.44L11.88 17.32L11.64 17.16V17.08L11.48 17L11.44 16.96L11.12 16.92L11.04 16.88H10.64L10.56 16.92H10.28L9.95996 16.8L9.75996 16.76L9.47996 16.72L9.11996 16.68L9.15996 16.52L9.03996 16.56L8.91996 16.68H8.75996L8.79996 16.88L8.83996 16.96L9.47996 17.04L10.04 17.08L11 17.12L11.48 17.28L11.52 17.4L11.76 17.48L11.8 17.56L11.68 17.68L11.92 17.84V17.96L5.11996 18L4.43996 18.12L3.95996 18.32L3.55996 18.64L3.27996 19.04L3.07996 19.56L3.03996 19.76L2.99996 46H23.28L30.72 46.04H33.12L33.24 46.08L33.44 46.04H39.6L40 46.08L40.84 46.12L41.52 46.2L41.72 46.32L41.68 46.44L41.48 46.56L41.36 46.68L41.16 46.64L41.08 46.6L41 46.64V46.92L41.24 47.04L41.08 47.08L40.6 46.88L40.04 46.72L39.8 46.52L39.64 46.68L39.56 46.72L39.6 46.88L39.76 46.96L40.08 47.04L40.56 47.2L41.2 47.36L41.72 47.52L41.84 47.64V47.72L42 47.8L41.88 47.84V47.92L42.28 47.96V48H2.99996L3.03996 50.12L3.11996 50.6L3.39996 51.16L3.75996 51.52L4.15996 51.76L4.67996 51.92L4.91996 51.96H10.76L43.84 52L44.16 52.12L44.72 52.16L45.88 52.2L46.4 52.24L46.48 52.36L46.72 52.48V52.6L46.92 52.68L47 52.76V52.92L46.72 52.88L46.44 52.8L45.84 52.68L45.76 52.56L45.6 52.64L45.48 52.44L44.88 52.36L45.04 52.6L45.08 52.8L45.68 52.92L45.8 53.04L46.04 53.12L46.16 53.28V53.52L45.88 53.64L45.56 53.68L46.36 53.64L46.2 53.72L45.56 53.84L45.52 53.88L45.84 53.92L49 53.96V54H38.4L38.64 54.64L39.64 57.64L39.72 57.96H42.84L43.32 58L43.56 58.12L43.88 58.44L44 58.72L44.04 60.96L54.28 61L54.6 61.16L54.92 61.52L55 61.76V62.24L54.8 62.64L54.48 62.92L54.28 63H9.75996L9.43996 62.88L9.23996 62.72L9.03996 62.4L8.95996 62.08L8.99996 61.72L9.19996 61.32L9.51996 61.08L9.71996 61H19.96V58.96L20.04 58.6L20.28 58.24L20.56 58.04L20.92 57.96H24.28L24.32 57.76L24.8 56.32L25.4 54.48L25.56 54H4.63996L4.07996 53.92L3.43996 53.72L2.83996 53.4L2.35996 53.04L1.83996 52.52L1.39996 51.84L1.15996 51.24L0.999961 50.56L0.959961 49.64V19.96L1.03996 19.16L1.23996 18.52L1.55996 17.88L1.87996 17.44L2.31996 16.96L2.79996 16.6L3.23996 16.36L3.71996 16.16L4.35996 16ZM27.76 54L27.6 54.32L27.12 55.76L26.64 57.16L26.4 57.88V58L37.56 57.96L37.48 57.6L37 56.16L36.52 54.76L36.28 54.04L36.24 54H27.76ZM22 60V60.96L22.04 61H41.96L42 60.04L41.96 60H22Z" fill="#067DD3"/>
<path d="M20.6398 0.960205H23.3998L24.3198 1.00021L24.7198 1.24021L24.9598 1.60021L24.9998 1.84021V15.9602H25.9598V11.5602L25.9998 9.6402H26.0398L26.0798 13.9602L26.1998 14.2802L26.2398 14.2002L26.3198 14.1602V13.9602L26.4798 13.8802L26.5598 13.8002L26.5998 13.8402V14.2002L26.7598 14.1602V14.0802L26.9198 14.0402L26.9598 14.2002H27.0398L27.1598 14.1602L27.2798 14.2002L27.3598 14.1602L27.4798 13.6802L27.5198 13.2802H27.6398L27.7598 11.0802L27.8398 10.8002L27.9198 10.8802L27.9598 11.2002L27.9998 14.7202V25.9602H29.9598V13.4402H29.9998L30.0398 16.8802V19.4402L30.1198 19.4802L30.0798 19.5602H30.1598L30.1998 19.2402L30.2798 19.1202L30.3598 18.9202L30.4798 18.9602L30.5198 19.0402L30.5998 18.5602L30.7198 18.6802V18.9202H30.7998L30.8798 18.7202L31.0398 18.6402L31.1998 18.7202L31.2398 18.8002L31.3998 18.7602L31.5198 18.3202H31.6398L31.6798 18.2402L31.8798 18.0402H31.9598L31.9998 18.3202V25.9602H32.9598V19.8402L33.1198 19.4402L33.3198 19.2002L33.6398 19.0002L33.9998 18.9602H37.7598L38.3198 19.0002L38.5998 19.1602L38.7998 19.3602L38.9598 19.6002L38.9998 19.7602V27.2002L38.9198 27.4402L38.6798 27.7602L38.4798 27.9202L38.3198 28.0002H5.79977L5.43977 27.8802L5.15977 27.6002L4.99977 27.2802L4.95977 26.9602V19.8802L5.07977 19.5202L5.27977 19.2402L5.67977 19.0002L6.55977 18.9602H9.75977L10.3198 19.0002L10.5998 19.1602L10.8798 19.4402L10.9998 19.7602V25.9602H11.9598V18.0002H5.11977V17.9602H11.9198L11.8798 17.8402L11.6398 17.6802L11.7598 17.5202L11.5198 17.4002L11.3998 17.2802L10.9998 17.1602L9.91977 17.1202L9.15977 17.0402L8.83977 17.0002L8.71977 16.7602L8.87977 16.6002L8.95977 16.6402L9.03977 16.5202L9.27977 16.4802L9.11977 16.6802H9.63977L9.91977 16.7202L9.99977 16.8002L10.2798 16.8802H10.5598L10.6798 16.8402H11.0798L11.1198 16.8802L11.4398 16.9202L11.6398 17.0802V17.1602L11.8398 17.2402L12.0398 17.3602L12.2398 17.4402V17.3202V17.2002H12.1598L12.0798 17.0802V16.9602H11.9998V16.8802L11.7998 16.9202L11.7198 16.8402L11.7598 16.4402L11.6798 16.3202L10.6398 16.2002L10.5198 16.1202L10.0398 16.0402L4.75977 16.0002V15.9602H11.9598V8.8002L12.1998 8.3202L12.4798 8.0802L12.6398 8.00021H17.2798L17.5998 8.1602L17.7998 8.3602L17.9598 8.6002L17.9998 8.7202V15.9602H18.9598V1.84021L19.1198 1.44021L19.3598 1.16021L19.6398 1.00021L20.6398 0.960205ZM21.0398 3.00021L20.9998 3.04021V25.9602H22.9598V3.04021L22.7998 3.00021H21.0398ZM14.0398 10.0002L13.9998 10.0402V25.9602H15.9598V10.0402L15.5598 10.0002H14.0398ZM17.9998 18.0002V25.9602L18.0398 26.0002H18.7198L18.9598 25.9602V18.0002H17.9998ZM24.9998 18.0002V25.9602H25.9598V18.0002H24.9998ZM6.99977 21.0002V26.0002L8.95977 25.9602V21.0402L8.91977 21.0002H6.99977ZM34.9998 21.0002V25.9602H36.9598V21.0402L36.9198 21.0002H34.9998Z" fill="#067DD3"/>
<path d="M4.35996 16H10.04L10.68 16.12V16.16L11.68 16.28L11.8 16.48L11.76 16.84L11.88 16.88H12V16.96H12.08L12.16 17.2H12.24L12.32 17.4L12.28 17.52L12.2 17.44L11.88 17.32L11.64 17.16V17.08L11.48 17L11.44 16.96L11.12 16.92L11.04 16.88H10.64L10.56 16.92H10.28L9.95996 16.8L9.75996 16.76L9.47996 16.72L9.11996 16.68L9.15996 16.52L9.03996 16.56L8.91996 16.68H8.75996L8.79996 16.88L8.83996 16.96L9.47996 17.04L10.04 17.08L11 17.12L11.48 17.28L11.52 17.4L11.76 17.48L11.8 17.56L11.68 17.68L11.92 17.84V17.96L5.11996 18L4.43996 18.12L3.95996 18.32L3.55996 18.64L3.27996 19.04L3.07996 19.56L3.03996 19.76L2.99996 46H23.28L30.72 46.04H33.12L33.24 46.08L33.44 46.04H39.6L40 46.08L40.84 46.12L41.52 46.2L41.72 46.32L41.68 46.44L41.48 46.56L41.36 46.68L41.16 46.64L41.08 46.6L41 46.64V46.92L41.24 47.04L41.08 47.08L40.6 46.88L40.04 46.72L39.8 46.52L39.64 46.68L39.56 46.72L39.6 46.88L39.76 46.96L40.08 47.04L40.56 47.2L41.2 47.36L41.72 47.52L41.84 47.64V47.72L42 47.8L41.88 47.84V47.92L42.28 47.96V48H2.99996L3.03996 50.12L3.11996 50.6L3.39996 51.16L3.75996 51.52L4.15996 51.76L4.67996 51.92L4.91996 51.96H10.76L19.24 52L20.08 52.12L21 52.2L21.16 52.24L21.2 52.36L20.84 52.52L20.8 52.8L20.88 52.92L21 52.96L21.44 53V53.08L21.8 53.16L22.28 53.28L23 53.4L23.76 53.56L23.88 53.6V53.68L24.12 53.76L24.36 53.92L25.4 53.96V54H4.63996L4.07996 53.92L3.43996 53.72L2.83996 53.4L2.35996 53.04L1.83996 52.52L1.39996 51.84L1.15996 51.24L0.999961 50.56L0.959961 49.64V19.96L1.03996 19.16L1.23996 18.52L1.55996 17.88L1.87996 17.44L2.31996 16.96L2.79996 16.6L3.23996 16.36L3.71996 16.16L4.35996 16Z" fill="#067DD3"/>
<path d="M39.84 29.9602L40.56 30.0002L41.2 30.2002L41.76 30.5202L42.24 30.9602L42.52 31.3202L42.84 31.9602L43 32.3602L43.32 32.5602L44.36 33.1602L45.24 33.6802L46.28 34.2802L47.24 34.8402L48.12 35.3602L49.08 35.9202L50.12 36.5202L51.28 37.2002L52.12 37.6802L53 38.2002L53.4 38.4402L53.72 37.9602L54.04 37.6402L54.56 37.3202L55 37.1202L55.44 37.0002L55.72 36.9602H56.24L56.88 37.0802L57.52 37.3602L57.96 37.6802L58.36 38.0802L58.64 38.5202L58.88 39.0402L59 39.5202V40.4802L58.84 41.0402L58.56 41.6002L58.28 42.0002L57.88 42.4002L57.44 42.6802L56.8 42.9202L56.44 43.0002H55.64L55.16 42.9202L54.52 42.6402L54.12 42.3602L53.72 42.0002L53.48 41.6802L53.16 41.0802L53.04 40.6802L52.64 40.4002L51.6 39.8002L49.56 38.6002L48.52 38.0002L47.92 37.6402L46.88 37.0402L44.56 35.6802L43.52 35.0802L42.68 34.6002L42.56 34.5602L42.44 34.8002L42 35.2802L41.56 35.6002L40.96 35.8802L40.44 36.0002H39.56L39.04 35.8802L38.4 35.5602L37.92 35.2002L37.56 34.8002L37.52 34.7202L37.36 34.7602L36.64 35.3202L35.88 35.8802L35.2 36.4002L34.08 37.2402L33.64 37.5602L33.12 37.9602L29.92 40.3602L29.16 40.9202L28.52 41.4002L28 41.8002L27.24 42.3602L27 42.5602L26.76 43.2402L26.48 43.7202L26.16 44.1202L25.8 44.4402L25.24 44.7602L24.8 44.9202L24.48 45.0002L23.92 45.0402L23.28 44.9602L22.64 44.7202L22.2 44.4402L21.72 44.0002L21.48 43.6802L21.16 43.0402L21.08 42.7202L20.84 42.6402L18.36 41.6002L16.84 40.9602L15.28 40.3202L13.84 39.7202L12.04 38.9602L10.84 38.4802L10.64 38.4402L10.36 38.8802L9.99996 39.2802L9.47996 39.6402L9.03996 39.8402L8.39996 40.0002H7.51996L6.91996 39.8402L6.35996 39.5602L5.91996 39.2002L5.63996 38.9202L5.35996 38.4802L5.07996 37.8402L4.95996 37.2002V36.7602L5.07996 36.1202L5.35996 35.4802L5.63996 35.0802L5.99996 34.6802L6.51996 34.3202L6.95996 34.1202L7.39996 34.0002H8.55996L9.19996 34.2002L9.63996 34.4402L9.99996 34.7202L10.32 35.0402L10.68 35.6002L10.96 36.2802L11.76 36.6002L13.28 37.2402L14.44 37.7202L16.08 38.4002L17.6 39.0402L18.96 39.6002L20.6 40.2802L21.32 40.5602L21.64 40.0802L22 39.6802L22.4 39.4002L22.88 39.1602L23.52 39.0002H24.48L25.08 39.1602L25.64 39.4402L26.04 39.7602L26.4 40.1602L26.48 40.2802L26.64 40.2002L27.92 39.2402L28.68 38.6802L29.4 38.1202L30.92 37.0002L31.64 36.4402L32.4 35.8802L36.56 32.7602L36.92 32.4802L37.04 32.2802L37.28 31.6402L37.6 31.1202L37.96 30.7202L38.28 30.4802L38.68 30.2402L39.4 30.0002L39.84 29.9602ZM39.84 32.0002L39.44 32.1602L39.2 32.3602L39.04 32.6802L39 32.8402V33.1602L39.16 33.5602L39.44 33.8402L39.76 33.9602H40.24L40.64 33.7602L40.88 33.4402L40.96 33.2402V32.7202L40.76 32.3202L40.4 32.0802L40.12 32.0002H39.84ZM7.87996 36.0002L7.47996 36.1202L7.19996 36.3602L7.03996 36.6802L6.99996 36.8002V37.2002L7.19996 37.6002L7.51996 37.8802L7.75996 37.9602H8.23996L8.63996 37.7602L8.87996 37.4802L8.95996 37.2402V36.7202L8.79996 36.4002L8.47996 36.1202L8.07996 36.0002H7.87996ZM55.84 39.0002L55.44 39.1602L55.24 39.3602L55.08 39.6002L55 39.8802L55.04 40.2802L55.2 40.6002L55.48 40.8402L55.76 40.9602H56.2L56.56 40.8002L56.76 40.6002L56.92 40.3602L57 40.0402L56.96 39.7202L56.8 39.4002L56.48 39.1202L56.12 39.0002H55.84ZM23.84 41.0002L23.48 41.1202L23.24 41.3202L23.08 41.6002L23 41.8402V42.1202L23.12 42.4802L23.36 42.7602L23.76 42.9602H24.24L24.56 42.8002L24.76 42.6402L24.96 42.2402L25 41.8802L24.84 41.4802L24.56 41.1602L24.28 41.0402L23.84 41.0002Z" fill="#067DD3"/>
<path d="M58.08 16H59.52L60.12 16.12L60.76 16.36L61.24 16.64L61.64 16.96L62.12 17.44L62.52 18.04L62.8 18.64L62.96 19.24L63 19.56V50.48L62.88 51.08L62.72 51.52L62.4 52.16L62 52.68L61.52 53.16L60.92 53.56L60.28 53.84L59.8 53.96L59.52 54H49L45.84 53.96L45.4 53.92L45.56 53.8L46.2 53.68L45.52 53.72H45.32L45.44 53.64L45.92 53.6L46.16 53.52L46.08 53.24L46.04 53.12L45.72 53.04L45.68 52.92L45.28 52.88L45.04 52.8L44.96 52.56L44.84 52.32L45.48 52.4L45.64 52.6L45.8 52.52L45.84 52.64L46.44 52.76L47 52.92L46.92 52.72L46.72 52.6L46.68 52.48L46.28 52.28L45.88 52.24L44.72 52.2L44.16 52.16L43.84 52.04L17.96 52V51.96H57.72L59.28 51.92L59.72 51.8L60.12 51.6L60.44 51.32L60.72 50.92L60.88 50.52L60.92 50.32L60.96 48.04H45.56L42.28 48L41.88 47.92V47.84L41.96 47.8L41.76 47.6L41.52 47.48L40.64 47.28L40.4 47.16L40.12 47.12L40 47.04L39.72 46.96L39.56 46.88L39.52 46.72L39.68 46.6H39.76L39.8 46.48L40.04 46.68L40.6 46.84L41.08 47.04L40.96 46.92V46.64L41.12 46.56L41.24 46.64L41.4 46.6L41.56 46.44H41.68V46.32L41.44 46.24L40.84 46.16L39.76 46.12L39.6 46.08H33.44L33.16 46.12L33 46.08H30.72L23.44 46.04V46H60.96V19.88L60.8 19.24L60.56 18.8L60.32 18.52L59.88 18.24L59.36 18.08L59.2 18.04L57.64 17.96L57.28 17.88L57.36 17.76L57.6 17.72L57.76 17.64L57.96 17.6V17.56L57.6 17.52V17.48H57.84L57.8 17.36L58.4 17.32L59.24 17.36H59.28L59.24 17.24H59.68V17L59.2 16.76L59 16.6L58.52 16.52L58.2 16.24L58.08 16.04V16Z" fill="#067DD3"/>
<path d="M7.39996 34H8.55996L9.19996 34.2L9.63996 34.44L9.99996 34.72L10.32 35.04L10.68 35.6L10.96 36.28L11.76 36.6L13.28 37.24L14.44 37.72L16.08 38.4L17.6 39.04L18.96 39.6L20.6 40.28L21.32 40.56L21.64 40.08L22 39.68L22.4 39.4L22.88 39.16L23.52 39H24.48L25.08 39.16L25.64 39.44L26.04 39.76L26.4 40.16L26.48 40.28L26.64 40.2L27.92 39.24L28.68 38.68L29.4 38.12L29.88 37.76L30.16 37.64L30.64 37.28L31.04 37L31.4 36.88H31.68L31.88 37.2L32.04 37.36L31.8 37.4V37.48L32.16 37.56L32.4 37.6V37.68L31.64 38.04L30.96 38.12L31.36 38.24L31.76 38.2L31.8 38.36L31.76 38.72L31.48 39.2L31.04 39.52L29.92 40.36L29.16 40.92L28.52 41.4L28 41.8L27.24 42.36L27 42.56L26.76 43.24L26.48 43.72L26.16 44.12L25.8 44.44L25.24 44.76L24.8 44.92L24.48 45L23.92 45.04L23.28 44.96L22.64 44.72L22.2 44.44L21.72 44L21.48 43.68L21.16 43.04L21.08 42.72L20.84 42.64L18.36 41.6L16.84 40.96L15.28 40.32L13.84 39.72L12.04 38.96L10.84 38.48L10.64 38.44L10.36 38.88L9.99996 39.28L9.47996 39.64L9.03996 39.84L8.39996 40H7.51996L6.91996 39.84L6.35996 39.56L5.91996 39.2L5.63996 38.92L5.35996 38.48L5.07996 37.84L4.95996 37.2V36.76L5.07996 36.12L5.35996 35.48L5.63996 35.08L5.99996 34.68L6.51996 34.32L6.95996 34.12L7.39996 34ZM7.87996 36L7.47996 36.12L7.19996 36.36L7.03996 36.68L6.99996 36.8V37.2L7.19996 37.6L7.51996 37.88L7.75996 37.96H8.23996L8.63996 37.76L8.87996 37.48L8.95996 37.24V36.72L8.79996 36.4L8.47996 36.12L8.07996 36H7.87996ZM23.84 41L23.48 41.12L23.24 41.32L23.08 41.6L23 41.84V42.12L23.12 42.48L23.36 42.76L23.76 42.96H24.24L24.56 42.8L24.76 42.64L24.96 42.24L25 41.88L24.84 41.48L24.56 41.16L24.28 41.04L23.84 41Z" fill="#067DD3"/>
<path d="M12.04 18.1602L12.24 18.2802L12.32 18.2002L12.44 18.4802L12.6 19.1202L12.76 19.2802L12.88 19.4402L13.08 19.4802L13.28 19.7602L13.36 19.8002L13.48 20.1202L13.6 20.7202L13.72 21.5202L13.8 22.4402L13.84 22.0802H13.88L13.92 22.4802L13.96 23.2402L14 25.9602H16V21.0002L16.04 20.4802H16.12V21.0402L16.08 21.2002V22.9202L16.12 22.7602L16.16 22.0802L16.24 21.9202H16.32L16.6 23.0402L16.68 23.4802L16.88 24.0002L16.96 24.2002L17.36 24.6402V24.8802H17.44L17.56 25.0802L17.8 25.9202L18 26.0002L18.6 25.9602L18.96 26.0002L19.16 26.0402V26.5202H19.24L19.36 26.6402L19.64 26.8402L20.04 27.0402L20.48 27.3202L20.8 27.4802L21 27.6002L21.12 27.6402V27.7202L20.84 27.8802L21.28 27.8402H21.92L22.6 27.7602L22.52 27.9202L22.56 28.0002H5.79996L5.43996 27.8802L5.15996 27.6002L4.99996 27.2802L4.95996 26.9602V19.8802L5.07996 19.5202L5.27996 19.2402L5.67996 19.0002L6.55996 18.9602H9.75996L10.32 19.0002L10.6 19.1602L10.88 19.4402L11 19.7602V25.9602H11.96L12 18.2802L12.04 18.1602ZM6.99996 21.0002V26.0002L8.95996 25.9602V21.0402L8.91996 21.0002H6.99996Z" fill="#067DD3"/>
<path d="M49.9598 1H51.9998L52.9598 1.16L53.7198 1.36L54.5598 1.68L55.3998 2.08L56.1598 2.56L56.7198 3L57.1998 3.44L57.5198 3.72L57.8798 4.12L58.2798 4.64L58.7998 5.44L59.2398 6.28L59.5598 7.12L59.7598 7.8L59.9198 8.64L59.9998 9.32V10.72L59.8398 11.8L59.5998 12.72L59.3198 13.48L58.9598 14.24L58.4798 15.04L58.1198 15.52L57.9198 15.76L57.6798 15.68L57.6398 15.52L57.2798 15.44L57.0798 15.24V15.16L56.9198 15.08L56.7198 14.96H56.4398L56.2798 15.12V15L56.3998 14.88L56.4398 14.68L56.8798 14.08L57.0798 13.72L57.1998 13.48L57.2398 13.32L57.4398 12.72L57.5598 12.28L57.7998 11.44L57.8798 11L56.8798 10.96L54.1998 10.88L52.9998 10.8H52.1198V10.72L52.0398 10.68L52.2798 10.6L52.0398 10.52L52.1198 10.44L51.9598 10.36L52.3598 10.24L52.0398 10.2L52.1198 10.12L51.9198 10.16L51.7198 10.24L51.5598 10.2L51.6798 10.08H51.7598L51.6798 9.84L51.3998 9.6V9.28L51.2398 9.32L50.8798 9.28L50.7998 9.32L50.9198 8.96L50.6798 9.08L50.4798 9.36V9.44L50.5998 9.48L50.5198 9.6L50.3598 9.56L50.2398 9.2L50.1998 8.72L50.1598 8.44L50.0798 7.96L50.0398 6.76L49.9998 3.36L49.9598 3.12L49.1598 3.28L48.3198 3.56L47.6798 3.88L46.9598 4.32L46.3998 4.76L45.8798 5.28L45.7998 5.24L45.8798 5.12H45.9598L45.9998 4.96L46.2798 4.52L46.3998 4.44H46.5598L46.6398 4.28L46.8798 4L46.8398 3.92L46.5598 4.08L46.4398 4.04L45.9998 4.4L45.9198 4.44L45.8798 4.36L45.6398 4.52L45.7598 4.12L45.8798 3.8L45.7598 3.88H45.6398L45.5998 3.96V3.72L45.5598 3.6L45.2798 3.64L45.1998 3.52L45.7198 2.88L45.8398 2.84V2.76H45.9198L45.9998 2.6L46.3598 2.28L46.5198 2.2L46.6798 2.04L47.5198 1.64L48.3998 1.32L49.1998 1.12L49.9598 1ZM52.0398 3.08L51.9998 3.12V8.96L52.0398 9H57.2798L57.8798 8.96L57.8398 8.56L57.5998 7.72L57.3598 7.08L56.9598 6.32L56.5598 5.76L56.1198 5.24L55.6398 4.76L55.1998 4.4L54.5998 4L53.7598 3.56L52.6798 3.2L52.1598 3.08H52.0398Z" fill="#067DD3"/>
<path d="M24.8 57.28L24.96 57.32L25.16 57.48L25.44 57.44L25.56 57.52L25.6 57.72H25.68L25.84 57.88L25.92 58.2L26.12 58.32L26.4 58.36L26.52 58.52V58.64H26.6V58.72H26.68L26.8 58.92L27 59L27.36 59.16L27.68 59.32L28.16 59.48L28.32 59.56L28.28 59.72L27.76 59.92L27.12 60H22L22.04 60.96L27.8 61L28.72 61.04L29.56 61.12L29.84 61.24L30.12 61.4L30.04 61.56L30.08 61.92L30.4 62.08L31 62.2L31.16 62.28L32 62.48L32.2 62.68L32 62.8L31.52 62.88L30.92 62.92L30.72 62.96V63H9.75996L9.43996 62.88L9.23996 62.72L9.03996 62.4L8.95996 62.08L8.99996 61.72L9.19996 61.32L9.51996 61.08L9.71996 61H19.96V58.96L20.04 58.6L20.28 58.24L20.56 58.04L20.92 57.96H24.28L24.32 57.76L24.56 57.72L24.64 57.56L24.8 57.28Z" fill="#067DD3"/>
<path d="M4.52002 46H23.28L30.72 46.04H33.12L33.24 46.08L33.44 46.04H39.6L40 46.08L40.84 46.12L41.52 46.2L41.72 46.32L41.68 46.44L41.48 46.56L41.36 46.68L41.16 46.64L41.08 46.6L41 46.64V46.92L41.24 47.04L41.08 47.08L40.6 46.88L40.04 46.72L39.8 46.52L39.64 46.68L39.56 46.72L39.6 46.88L39.76 46.96L40.08 47.04L40.56 47.2L41.2 47.36L41.72 47.52L41.84 47.64V47.72L42 47.8L41.88 47.84V47.92L42.28 47.96V48H18.24L18.04 47.88L18 47.8L18.12 47.72L17.96 47.64L16.96 47.48L16.48 47.4L16.12 47.28L15.76 47.2L15.08 47L14.92 46.92L14.88 46.76L14.96 46.64L14.8 46.52L15.16 46.4L15.56 46.28L15.6 46.2L15.2 46.16L15.08 46.12L13.8 46.08L4.52002 46.04V46Z" fill="#067DD3"/>
<path d="M4.35996 16H10.04L10.68 16.12V16.16L11.68 16.28L11.8 16.48L11.76 16.84L11.88 16.88H12V16.96H12.08L12.16 17.2H12.24L12.32 17.4L12.28 17.52L12.2 17.44L11.88 17.32L11.64 17.16V17.08L11.48 17L11.44 16.96L11.12 16.92L11.04 16.88H10.64L10.56 16.92H10.28L9.95996 16.8L9.75996 16.76L9.47996 16.72L9.11996 16.68L9.15996 16.52L9.03996 16.56L8.91996 16.68H8.75996L8.79996 16.88L8.83996 16.96L9.47996 17.04L10.04 17.08L11 17.12L11.48 17.28L11.52 17.4L11.76 17.48L11.8 17.56L11.68 17.68L11.92 17.84V17.96L5.11996 18L4.43996 18.12L3.95996 18.32L3.55996 18.64L3.27996 19.04L3.07996 19.56L3.03996 19.76L2.99996 31.8L2.95996 34.44H2.91996L2.87996 34.12L2.91996 33.96H2.83996L2.71996 33.72L2.63996 33.48L2.55996 33.12L2.51996 32.88H2.43996L2.23996 32.68L2.11996 32.52L2.03996 32.32H1.95996L1.79996 32.16L1.75996 31.96L1.51996 31.92L1.35996 31.72L1.39996 31.56H1.31996V31.92L1.19996 33L1.15996 33.48L1.11996 33.64L1.15996 33.76L1.11996 33.84L1.07996 34.44L1.03996 35.36L0.999961 49.64H0.959961V19.96L1.03996 19.16L1.23996 18.52L1.55996 17.88L1.87996 17.44L2.31996 16.96L2.79996 16.6L3.23996 16.36L3.71996 16.16L4.35996 16Z" fill="#067DD3"/>
<path d="M62.8 47.48H62.84L62.96 48.96L62.88 49L62.84 48.84L62.88 49.36L63 49.8V50.48L62.88 51.08L62.72 51.52L62.4 52.16L62 52.68L61.52 53.16L60.92 53.56L60.28 53.84L59.8 53.96L59.52 54H49L45.84 53.96L45.4 53.92L45.56 53.8L46.2 53.68L45.52 53.72H45.32L45.44 53.64L45.92 53.6L46.16 53.52L46.08 53.24L46.04 53.12L45.72 53.04L45.68 52.92L45.28 52.88L45.04 52.8L44.96 52.56L44.84 52.32L45.48 52.4L45.64 52.6L45.8 52.52L45.84 52.64L46.44 52.76L47 52.92L46.92 52.72L46.72 52.6L46.68 52.48L46.28 52.28L45.88 52.24L44.72 52.2L44.16 52.16L43.84 52.04L17.96 52V51.96H57.72L59.28 51.92L59.72 51.8L60.12 51.6L60.44 51.32L60.72 50.92L60.88 50.52L60.96 50.16L61 49.44L61.16 49.48V49.56H61.28L61.32 49.4L61.52 49.44L61.56 49.28V49.72L61.8 49.6L62.24 49.64L62.28 49.48H62.36V49.56H62.48V49.32L62.56 49.28L62.6 48.6L62.64 48.76H62.72V48.52L62.8 48.6V47.48Z" fill="#067DD3"/>
<path d="M23.4399 46H60.9599L60.8399 46.08L59.9599 46.12H58.6399L57.9199 46.24H57.2399L57.2799 46.28H57.5199L57.4799 46.4H57.8399V46.48L58.1599 46.56L58.1199 46.64L57.9599 46.68L58.0799 46.76L58.2399 46.72V46.88L58.1199 46.96L58.1599 47.16L58.3199 47.12H58.6399V47.2L58.9199 47.24L58.7999 47.36L58.9199 47.72L58.7999 47.8L58.9999 47.84V47.92L59.3599 47.88H60.9999L61.0799 48.04L61.0399 48.2H60.9999V48H42.2799L41.8799 47.92V47.84L41.9599 47.8L41.7599 47.6L41.5199 47.48L40.6399 47.28L40.3999 47.16L40.1199 47.12L39.9999 47.04L39.7199 46.96L39.5599 46.88L39.5199 46.72L39.6799 46.6H39.7599L39.7999 46.48L40.0399 46.68L40.5999 46.84L41.0799 47.04L40.9599 46.92V46.64L41.1199 46.56L41.2399 46.64L41.3999 46.6L41.5599 46.44H41.6799V46.32L41.4399 46.24L40.8399 46.16L39.7599 46.12L39.5999 46.08H33.4399L33.1599 46.12L32.9999 46.08H30.7199L23.4399 46.04V46Z" fill="#067DD3"/>
<path d="M20.64 0.960205H23.4L24.32 1.00021L24.72 1.24021L24.96 1.60021L25 1.84021V5.1202L24.96 8.3602L24.84 8.7202L24.8 8.8002L24.76 9.4002L24.68 9.84021L24.64 10.4802L24.56 10.5602L24.52 10.7602L24.44 10.8402L24.36 11.2002L24.28 11.3602L24.08 11.4002V11.4802H23.88V11.4002L23.56 11.3602L23.52 11.4402V11.0802L23.36 11.2402L23.32 11.5202H23.28L23.24 11.2802H23.16V10.9202L23.08 10.2002V9.4802L23.04 8.8402L23 7.96021L22.96 3.04021H21.04L20.96 3.28021L20.92 3.68021L20.84 3.8002V4.1602L20.92 4.3202V5.00021H20.88L20.84 5.5602L20.76 5.6402L20.72 6.2802H20.68L20.64 6.04021L20.56 6.36021L20.48 6.92021L20.4 7.2002L20.28 7.44021L19.96 7.48021L19.64 7.44021L19.6 7.2002L19.44 7.3202L19.36 7.0802L19.24 7.48021L19.12 7.40021L19.16 7.04021L19.12 6.8402L19.16 6.7602H19.08L19.04 6.88021L19 6.8402L18.96 6.5602V1.84021L19.12 1.44021L19.36 1.16021L19.64 1.00021L20.64 0.960205Z" fill="#067DD3"/>
<path d="M49.2 19.9602H55.76L56.32 20.0002L56.6 20.1602L56.88 20.4802L57 20.7602V21.2002L56.88 21.5202L56.6 21.8402L56.4 21.9602L56.24 22.0002L47.4 22.0402L43.6 25.8402L43.28 26.0002H42.72L42.4 25.8402L42.12 25.5202L42 25.2802L41.96 24.9602L42.04 24.5602L42.32 24.2002L46.28 20.2402L46.68 20.0002L49.2 19.9602Z" fill="#067DD3"/>
<path d="M55.7197 36.9602H56.2397L56.8797 37.0802L57.5197 37.3602L57.9597 37.6802L58.3597 38.0802L58.6397 38.5202L58.8797 39.0402L58.9997 39.5202V40.4802L58.8397 41.0402L58.5597 41.6002L58.2797 42.0002L57.8797 42.4002L57.4397 42.6802L56.7997 42.9202L56.4397 43.0002H55.6397L55.4397 42.9202L55.1997 42.7602L55.0397 42.5602L54.6797 42.3202L54.5997 42.1202H54.5197V42.0002L54.3997 41.9602L54.2397 41.8002H54.0397L53.7597 41.4002L53.5597 41.0002L53.3597 40.8002L53.1997 40.4402L52.8797 40.2402L52.3597 39.8002V39.7202L52.1997 39.6402L51.9997 39.5202L51.8797 39.1602L51.8397 39.0002L51.4797 38.7202L51.5597 38.6802L51.9197 38.8402L52.1197 38.8802L52.2397 38.9202L52.2797 38.8002L52.5197 38.7602L52.4397 38.4802L52.7197 38.4402L52.9997 38.5602H53.3997L53.4397 38.4002L53.7197 37.9602L54.0397 37.6402L54.5597 37.3202L54.9997 37.1202L55.4397 37.0002L55.7197 36.9602ZM55.8397 39.0002L55.4397 39.1602L55.2397 39.3602L55.0797 39.6002L54.9997 39.8802L55.0397 40.2802L55.1997 40.6002L55.4797 40.8402L55.7597 40.9602H56.1997L56.5597 40.8002L56.7597 40.6002L56.9197 40.3602L56.9997 40.0402L56.9597 39.7202L56.7997 39.4002L56.4797 39.1202L56.1197 39.0002H55.8397Z" fill="#067DD3"/>
<path d="M6.71996 28.9602H16.24L17.28 29.0002L17.6 29.1602L17.88 29.4802L18 29.7602V30.2002L17.88 30.5202L17.6 30.8402L17.28 31.0002H5.75996L5.43996 30.8802L5.15996 30.6002L4.99996 30.2802L4.95996 29.8802L5.07996 29.5202L5.31996 29.2002L5.67996 29.0002L6.71996 28.9602Z" fill="#067DD3"/>
<path d="M33.8799 18.9602H37.7599L38.3199 19.0002L38.5999 19.1602L38.7999 19.3602L38.9599 19.6002L38.9999 19.7602V26.4402H38.9599V23.5602H38.8399L38.7999 24.2002L38.7599 24.3202L38.7199 25.2402H38.6799L38.5999 24.8002L38.4799 25.2002L38.0799 25.2802V25.5602L37.9599 25.6002H37.6799L37.7199 25.2802L37.5599 25.2402L37.3199 25.2002V25.6802L37.4399 25.8402L37.3999 25.9602L37.2399 25.9202V25.8402L37.0799 25.8002V25.0802L37.0399 25.0402L36.9999 24.2402V21.0402H34.9599L34.8399 21.0802V21.1602L34.5999 21.2402L34.2399 21.5202L34.1599 21.7202H33.9999V21.8002L33.9199 21.8402L33.8399 22.1202L33.7199 22.0002V21.9202L33.5599 22.0802L33.3599 22.6002L33.2799 22.5602V22.4802H33.1999L33.1599 22.0002V20.0002H33.2399L33.3599 19.6002L33.5599 19.2002L33.6799 19.0402V19.0002L33.8799 18.9602Z" fill="#067DD3"/>
<path d="M41.4 42.9602H47.84L48.28 43.0002L48.6 43.1602L48.8 43.3602L48.96 43.6002L49 43.7202V44.2802L48.8 44.6402L48.48 44.9202L48.32 45.0002L48.04 45.0402H41.08L40.6 44.9602L40.36 44.8002L40.08 44.4802L39.96 44.1602V43.8402L40.12 43.4402L40.32 43.2002L40.68 43.0002L41.4 42.9602Z" fill="#067DD3"/>
<path d="M6.51996 48.9602H11.52L12.32 49.0002L12.6 49.1602L12.88 49.4802L13 49.7602V50.2402L12.8 50.6402L12.52 50.8802L12.24 51.0002H5.75996L5.43996 50.8802L5.11996 50.5602L4.99996 50.2802L4.95996 49.9202L5.07996 49.5202L5.31996 49.2002L5.67996 49.0002L6.51996 48.9602Z" fill="#067DD3"/>
<path d="M44.68 40H48.28L48.68 40.2L48.92 40.52L49 40.72V41.28L48.84 41.6L48.52 41.92L48.32 42L47.84 42.04H45.08L44.72 42L44.4 41.84L44.08 41.48L43.96 41.16V40.8L44.2 40.32L44.52 40.08L44.68 40Z" fill="#067DD3"/>
<path d="M5.47975 36.6399L5.87975 36.7199L6.11975 36.9999L6.15975 37.1599H6.35975L6.47975 37.4799L6.55975 37.9199L6.47975 38.0399L6.55975 38.0799L6.51975 38.1199L6.63975 38.2399L6.67975 38.3199L6.91975 38.3999L6.95975 38.5199L7.23975 38.6399L7.35975 38.7999L7.67975 38.8799L8.03975 38.9999H9.07975L9.55975 39.0799L9.67975 39.1599L9.55975 39.5199L9.31975 39.7199L8.79975 39.9199L8.39975 39.9999H7.51975V39.9199L7.31975 39.8799L6.95975 39.7999L6.79975 39.6799L6.43975 39.4799L6.19975 39.3199V39.2399L6.07975 39.1999L5.79975 38.8399L5.55975 38.3999L5.43975 38.2399V38.1599H5.35975L5.23975 37.8799L5.15975 37.6799L5.11975 37.3599L5.31975 36.8799L5.47975 36.6399Z" fill="#067DD3"/>
<path d="M19.88 28.9602H20.64L21.28 29.0002L21.6 29.1602L21.88 29.4402L22 29.7202V30.2402L21.8 30.6402L21.48 30.9202L21.24 31.0002L20.68 31.0402H20.16L19.64 30.9602L19.36 30.8002L19.08 30.4802L18.96 30.1202L19 29.6802L19.24 29.2802L19.56 29.0402L19.88 28.9602Z" fill="#067DD3"/>
<path d="M15.2399 48.9602H15.7599L16.3199 49.0002L16.6399 49.2002L16.8799 49.4802L16.9999 49.7602V50.2402L16.7999 50.6402L16.5199 50.8802L16.1999 51.0002H14.7599L14.4399 50.8802L14.1599 50.6002L13.9999 50.2802V49.7202L14.1999 49.3202L14.5599 49.0402L14.6799 49.0002L15.2399 48.9602Z" fill="#067DD3"/>
<path d="M58.0799 16H59.5199L60.1199 16.12L60.3199 16.2V16.28L60.5199 16.36L60.9199 16.64L61.0399 16.72V16.8L61.2399 16.88L61.3599 16.96V17.04L61.4799 17.08L61.5999 17.24V17.32L61.7599 17.4L62.0799 17.76L62.3999 18.24L62.5599 18.64L62.6399 18.92L62.5999 19.2L62.4799 19.24L62.4399 19.08L62.3999 18.72L62.2399 18.64L62.1199 18.68L61.9599 18.4L61.9199 18.16L61.5599 17.72V17.6L61.3999 17.52L61.1999 17.56L61.1199 17.64H61.0399L60.9999 17.68L60.8399 17.64L60.7199 17.56L60.1199 17.52L59.7999 17.64H59.5199L59.1599 17.52L58.4799 17.48L58.6399 17.56L58.9999 17.6L59.1999 17.72L59.2799 17.84L59.4799 17.88L59.5599 17.84H59.8399V17.88L59.5199 17.96L59.4799 18H58.1999L57.6399 17.96L57.2799 17.88L57.3599 17.76L57.5999 17.72L57.7599 17.64L57.9599 17.6V17.56L57.5999 17.52V17.48H57.8399L57.7999 17.36L58.3999 17.32L59.2399 17.36H59.2799L59.2399 17.24H59.6799V17L59.1999 16.76L58.9999 16.6L58.5199 16.52L58.1999 16.24L58.0799 16.04V16Z" fill="#067DD3"/>
<path d="M23.4399 46H56.8799V46.04L49.0799 46.08L48.9599 46.16L48.8799 46.08H48.2799L46.9599 46.04V46.12H46.4399L46.3599 46.04L46.3199 46.12H45.9599L45.6799 46.16H42.7999L42.3999 46.12V46.04L42.2799 46.12L41.5599 46.08H33.4399L33.1599 46.12L32.9999 46.08H30.7199L23.4399 46.04V46Z" fill="#067DD3"/>
<path d="M36.52 32.9602L36.64 33.0002L36.72 33.2402H36.6V33.4002L36.16 33.4802L36.08 33.7202L35.76 33.8002L35.44 33.9602L35.32 34.0802L35.08 34.2002H35V34.2802L34.68 34.4402L34.12 34.8002L33.52 35.2002L33.48 35.3202L33.12 35.4402L33.04 35.6802L32.64 35.9202L32.48 36.0002L32.36 36.1202L32.2 36.1602L32.16 36.2402L31.96 36.3602L31.84 36.4802H31.76V36.5602L31.56 36.6802L31.4 36.8402L30.84 37.1602L30.28 37.6002L30.04 37.7602L29.96 37.7202L30.64 37.2002L31.28 36.7202L32.12 36.0802L32.88 35.5202L34.32 34.4402L35.16 33.8002L35.44 33.6002L35.6 33.5602L36.24 33.0802L36.52 32.9602Z" fill="#067DD3"/>
<path d="M12 8.67993H12.04L12.08 8.99993L12.16 9.07993L12.2 9.31993V11.2399L12.16 11.9199L12.12 12.1999V12.7199L12.08 12.9199L12.12 13.7599L12.04 14.8399L12 15.7199H11.96V8.79993L12 8.67993Z" fill="#067DD3"/>
<path d="M17.88 19.8L17.96 19.88L18 21V25.96L17.88 25.92L17.72 25.6L17.6 25L17.56 24.44L17.52 24.04L17.6 24.08L17.72 24.44H17.76L17.88 25.24L17.92 25.28V22.72L17.88 20.4V19.8Z" fill="#067DD3"/>
<path d="M41.3999 42.9602H47.8399V43.0002L47.1599 43.0402V43.1602H46.6799L46.0799 43.0802V43.1602L45.6799 43.1202H44.3599L44.0399 43.0802H42.7999L42.6799 43.0402L41.3999 43.0802L41.1599 43.0402V43.0002L41.3999 42.9602Z" fill="#067DD3"/>
<path d="M47.1599 52H52.3199L52.5599 52.08V52.16H49.1199L48.3599 52.12H47.6399L47.1599 52.04V52Z" fill="#067DD3"/>
<path d="M51.2398 53.8H51.7598L51.9598 53.84L52.1598 53.8L53.5198 53.92V53.96H52.5598L50.1198 54H48.9998L47.5598 53.96V53.92L48.2398 53.84L48.3198 53.88H48.6398L49.1598 53.84H49.4798H49.6398H50.6398L51.2398 53.8Z" fill="#067DD3"/>
<path d="M53.6 61H54.28L54.6 61.16L54.92 61.52L55 61.76V62.24L54.8 62.64L54.52 62.88L54.56 62.68L54.48 62.64L54.64 62.24V61.96L54.6 61.72L54.68 61.76L54.76 61.92L54.68 61.56L54.44 61.24L54.28 61.12L54.12 61.08L53.6 61.04V61Z" fill="#067DD3"/>
<path d="M31.9598 12.3601H31.9998V15.9601L31.8398 15.9201L31.7598 15.7601V14.7601L31.7998 14.2401L31.8798 14.1201L31.9198 14.2001L31.9598 12.3601Z" fill="#067DD3"/>
<path d="M61.8397 18.5601L61.9997 18.6401L62.0397 18.7601L62.1597 18.7201L62.1997 18.8001V19.0401H62.1197L62.1597 19.3201L62.0797 19.6801L61.9997 19.9201L61.8797 19.8801L61.7997 19.6001L61.7197 19.4401V19.3201H61.7997L61.6797 18.9601L61.7997 18.6001L61.8397 18.5601Z" fill="#067DD3"/>
<path d="M20.4799 26.3999L20.5999 26.4399L20.8399 26.9199L21.0799 27.0799L22.2799 27.3599L22.5599 27.4799L22.3999 27.5199L21.9599 27.3999L21.3999 27.3199L21.3199 27.2799L20.9199 27.2399L20.6399 27.1199L20.4399 26.8799V26.6799L20.3999 26.7199L20.3199 26.6399L20.2799 26.4799L20.4799 26.3999Z" fill="#067DD3"/>
<path d="M28.92 38.48H29L28.92 38.72L28.72 38.92L28.24 39.16L28.12 39.36L27.84 39.6L27.64 39.72H27.52V39.8L27.24 39.96L26.88 40.08L27.08 39.88L27.76 39.36L28.52 38.8L28.92 38.48Z" fill="#067DD3"/>
<path d="M38.2799 19.0398L38.4799 19.0798L38.7599 19.2798L38.9599 19.5998L38.9999 19.7598V21.1198L38.9199 20.9598L38.7999 20.5998V19.8798L38.6799 19.5598L38.5599 19.3598V19.2798H38.4799L38.2799 19.0398Z" fill="#067DD3"/>
<path d="M17.52 24.0398L17.6 24.0798L17.72 24.4398H17.76L17.88 25.2398L17.96 25.5598V25.9598L17.8 25.7998L17.64 25.2798L17.56 24.5598L17.52 24.0398Z" fill="#067DD3"/>
<path d="M61.3198 19.4399L61.4798 19.5199V20.1199L61.4398 20.1999L61.3998 20.9199L61.1998 20.8399V20.5999L61.1198 20.3599L61.2398 19.9999V19.6799L61.3198 19.4399Z" fill="#067DD3"/>
<path d="M13.1198 18.52L13.3198 18.6L13.4798 18.68L13.6798 19.6L13.7598 20.36L13.7998 20.92V21.32H13.7598L13.5598 19.72L13.4398 19.08L13.3198 19.04L13.2798 18.84L13.1998 18.8V18.72L13.1198 18.68V18.52Z" fill="#067DD3"/>
<path d="M54.9998 39.7598L55.0398 39.8798L55.0798 40.2798L55.2398 40.5998L55.4798 40.7998L55.7598 40.9198H56.1998L56.5198 40.8398L56.3998 40.9598L55.9998 41.1598L55.7598 41.1198L55.3598 40.9598L55.1598 40.6398V40.5598L54.9598 40.4798L54.8798 40.3998L54.8398 40.1998L54.9998 39.7598Z" fill="#067DD3"/>
<path d="M16.1599 49L16.3999 49.04L16.6399 49.2L16.8799 49.48L16.9999 49.76V50.24L16.7999 50.64L16.7199 50.68L16.7599 50.52L16.8399 50.36V49.92L16.6799 49.64L16.6399 49.48L16.4399 49.28V49.2H16.3599L16.2399 49.08L16.1599 49Z" fill="#067DD3"/>
<path d="M12 12.9199H12.08L12.12 13.7599L12.04 14.8399L12 15.7199H11.96V12.9999L12 12.9199Z" fill="#067DD3"/>
<path d="M58.44 41.6399L58.48 41.7199L58.24 42.0399L57.88 42.3999L57.44 42.6799L56.8 42.9199L56.56 42.9599L56.52 42.8799L57.04 42.7199L57.4 42.5599L57.8 42.3199L57.96 42.1199L58.28 41.8399L58.44 41.6399Z" fill="#067DD3"/>
<path d="M21.7197 29.7598L21.9597 29.9598L21.9197 30.1598H21.9997L21.8797 30.5198L21.5997 30.8398L21.4797 30.8798L21.5597 30.7198L21.6397 30.6398L21.7197 30.2798V29.7598Z" fill="#067DD3"/>
<path d="M19.8398 25.5601L19.9598 25.6801L19.9998 25.8801H20.0798L20.2398 26.1201V26.2001H19.9998L19.7998 26.0801L19.7598 25.8001L19.8398 25.5601Z" fill="#067DD3"/>
<path d="M44.6801 40H44.8401L44.8001 40.24L44.8401 40.32L44.7201 40.44L44.4001 40.4L44.3201 40.28L44.5201 40.08L44.6801 40Z" fill="#067DD3"/>
<path d="M10.3998 19.0398L10.6398 19.1998L10.9198 19.5198L10.9998 19.7598V20.5198H10.9598L10.9198 19.8798L10.6798 19.4798V19.3998H10.5998L10.5598 19.2398L10.3998 19.1198V19.0398Z" fill="#067DD3"/>
<path d="M24.8398 24.0801L24.9198 24.2001V25.2801L24.9998 25.6401L24.9598 25.8001V25.7201L24.8398 25.6801V24.0801Z" fill="#067DD3"/>
<path d="M39.8398 29.9602H40.1598L40.3998 30.0002L40.3598 30.0802H40.2798L40.2398 30.2402L39.7998 30.2002L39.7598 30.0402H39.8398V29.9602Z" fill="#067DD3"/>
<path d="M3.83993 16.1199L3.95993 16.1599L3.87993 16.2399L3.43993 16.4399L3.15993 16.5199L2.99993 16.5599V16.6399L2.79993 16.6799V16.5999L3.23993 16.3599L3.71993 16.1599L3.83993 16.1199Z" fill="#067DD3"/>
<path d="M42.9598 47.8L43.2798 47.84L43.4798 47.92L43.8398 47.96V48H42.9198L42.7198 47.96L42.7598 47.88L42.9598 47.8Z" fill="#067DD3"/>
<path d="M41.3999 42.9602H42.7199L42.6799 43.0402L41.3999 43.0802L41.1599 43.0402V43.0002L41.3999 42.9602Z" fill="#067DD3"/>
<path d="M45.04 42.9602H45.8L45.72 43.1202H45L44.96 43.0402H45.04V42.9602Z" fill="#067DD3"/>
<path d="M41.24 47.0801L41.56 47.1201L42.28 47.3601L42.48 47.4401V47.4801H42.2L41.96 47.3601L41.36 47.2001L41.24 47.0801Z" fill="#067DD3"/>
<path d="M62.7999 48.7598L62.8799 48.7998L62.9599 49.0398L62.9999 49.0798V49.7998H62.9599L62.8399 49.3598L62.7999 48.7598Z" fill="#067DD3"/>
<path d="M37.2 25.28H37.24L37.32 25.68L37.44 25.84L37.4 25.96L37.24 25.92V25.84L37.08 25.8V25.56H37.16L37.2 25.28Z" fill="#067DD3"/>
<path d="M53.6 61H54.28L54.6 61.16L54.84 61.4L54.8 61.48L54.52 61.24L54.12 61.08L53.6 61.04V61Z" fill="#067DD3"/>
<path d="M40.6798 43H41.0798V43.04L40.5998 43.16L40.4798 43.24H40.3598L40.2798 43.4H40.1998L40.1198 43.64L40.0398 43.68L40.1198 43.44L40.3198 43.2L40.6798 43Z" fill="#067DD3"/>
<path d="M61.0399 21.0398L61.1999 21.0798L61.2399 21.1998L61.1999 21.4798L61.0399 21.6798L60.9999 21.2398L61.0399 21.0398Z" fill="#067DD3"/>
<path d="M60.9598 17.72L61.0398 17.88L61.0798 17.92V18.12L60.9198 18.2L60.8398 17.92L60.9198 17.76L60.9598 17.72Z" fill="#067DD3"/>
<path d="M12.7199 8.16016V8.28016V8.32016L12.8399 8.36016L12.7599 8.44016L12.3999 8.40016L12.3599 8.28016L12.4399 8.20016H12.6799L12.7199 8.16016Z" fill="#067DD3"/>
<path d="M2.71979 16.6399L2.75979 16.7599L2.23979 17.1599L2.11979 17.2799L2.03979 17.2399L2.39979 16.8799L2.71979 16.6399Z" fill="#067DD3"/>
<path d="M19.0398 24.6799H19.1198L19.1998 24.9199L19.0798 25.2799H19.0398V24.6799Z" fill="#067DD3"/>
<path d="M51.9598 10.0801H52.2798L52.1198 10.1601H52.0398L51.9998 10.2801L51.7598 10.3201L51.8398 10.2801L51.9198 10.1201L51.9598 10.0801Z" fill="#067DD3"/>
<path d="M21.7198 29.3201L21.9198 29.5201L21.9998 29.7201V29.9201L21.9598 29.8001L21.8798 29.7601L21.7598 29.4401L21.7198 29.3201Z" fill="#067DD3"/>
<path d="M14.48 49.0801V49.2001L14.08 49.6001L14.16 49.4001L14.32 49.2001L14.48 49.0801Z" fill="#067DD3"/>
<path d="M39.9999 44.2H40.0799L40.2799 44.6V44.72L40.0799 44.48L39.9999 44.32V44.2Z" fill="#067DD3"/>
<path d="M36.3598 33.4399L36.4398 33.5599L36.4798 33.7599L36.1998 33.6399L36.3598 33.4399Z" fill="#067DD3"/>
</svg>
