<svg width="64" height="64" viewBox="0 0 64 64" fill="none" xmlns="http://www.w3.org/2000/svg">
<g clip-path="url(#clip0_61_1408)">
<path d="M1.93738 0.53125H61.9999L62.3749 0.59375L62.8436 0.78125L63.1874 1.03125L63.3749 1.1875L63.6561 1.5625L63.8436 1.9375L63.9374 2.28125L63.9686 2.75V42L63.9374 45.9375L63.7811 46.4062L63.5624 46.75L63.2499 47.0938L62.8124 47.375L62.3749 47.5312L62.0624 47.5938L61.1249 47.625H43.4374L43.4061 54.0938H45.9374L46.6249 54.1875L47.1249 54.3438L47.6561 54.5938L48.0936 54.9062L48.4061 55.1875L48.6874 55.4688L49.0311 55.9688L49.3124 56.5625L49.4686 57.1562L49.4999 57.375L49.5311 57.9062V62.5938L49.4999 62.9062L49.3124 63.2188L49.1561 63.3438L48.9686 63.4062L48.7499 63.4375H15.1249L14.8436 63.3438L14.6561 63.1875L14.4999 62.9375L14.4686 62.8125V57.5312L14.5624 56.9375L14.7186 56.4688L14.9686 55.9688L15.2186 55.5938L15.5624 55.1875L15.9061 54.875L16.3749 54.5625L16.9061 54.3125L17.4686 54.1562L17.9999 54.0938H20.5624L20.5311 47.625H2.53113L1.87488 47.5938L1.46863 47.5L0.968628 47.25L0.687378 47.0312L0.437378 46.7812L0.218628 46.4375L0.0623779 46.0938L-0.00012207 45.875V2.28125L0.187378 1.78125L0.437378 1.375L0.562378 1.21875H0.624878L0.656128 1.125L1.03113 0.84375L1.43738 0.65625L1.93738 0.53125ZM2.87488 2L1.99988 2.03125L1.71863 2.1875L1.59363 2.34375L1.49988 2.5625V36.9688H5.37488L5.40613 36.875V6.4375L5.43738 6.09375L5.62488 5.78125L5.93738 5.625H57.8124L58.0936 5.75L58.2811 6L58.3436 6.25L58.3749 36.9688H62.4374L62.4686 5.15625V2.59375L62.3749 2.34375L62.2186 2.1875L62.0311 2.0625L61.9374 2.03125L2.87488 2ZM6.93738 7.0625L6.90613 7.09375L6.87488 32.9688V36.9375L6.90613 36.9688H56.8436L56.8749 36.9375V7.09375L56.8436 7.0625H6.93738ZM62.3436 38.3125L1.49988 38.3438V45.5L1.62488 45.75L1.84363 45.9062L2.03113 45.9688L2.28113 46H61.7186L62.0311 45.9375L62.2811 45.7812L62.4061 45.625L62.4686 45.3438V38.375L62.4374 38.3125H62.3436ZM22.1249 47.4688L22.0624 47.5V53.9375L22.0936 53.9688H41.9061V47.4688H37.1249L37.0624 47.5L37.0311 51.25L36.9061 51.5L36.6874 51.6875L36.4999 51.75H27.4686L27.2186 51.625L27.0311 51.4062L26.9374 51.125L26.9061 47.4688H22.1249ZM28.4686 47.4688L28.4061 47.5V50.2812L28.4374 50.3125H35.5624V47.5L35.5311 47.4688H28.4686ZM17.9999 55.4688L17.6249 55.5312L17.2186 55.6875L16.8749 55.9062L16.5624 56.1875L16.3124 56.5L16.0936 56.9375L15.9999 57.25L15.9686 57.4688V61.8125H47.9999L48.0311 61.7812V57.625L47.9686 57.1875L47.8436 56.8125L47.6561 56.4688L47.4061 56.1562L47.1249 55.9062L46.6874 55.6562L46.2186 55.5L45.9999 55.4688H17.9999Z" fill="#067DD3"/>
<path d="M62.4999 5.15625H62.5311L62.5624 15.0312L62.5936 15.375H62.6561L62.6249 15.1562H62.6874L62.7499 15.5312L62.7811 16.25L62.8124 16.625L62.8436 17.5L62.8749 17.5938V18.1875L62.8436 18.2812L62.9061 18.4688L62.9374 18.8125L63.0311 18.9688L62.9999 19.0938L63.0936 19.1875H63.0311L62.9999 19.3125L63.1874 19.3438L63.2186 19.5312L63.2811 19.7812L63.2499 19.8125L63.3749 19.875L63.5311 19.9062L63.4999 20.0938L63.5624 20.25L63.4686 20.3125L63.3749 20.3438L63.4686 20.4062V20.5L63.5936 20.5312L63.6249 20.5938H63.5311L63.6874 20.6875V20.7812V20.9062L63.7186 20.8438L63.8124 20.875V20.9375H63.9374L63.9686 19.8438H63.9999L64.0311 42L63.9999 45.9375L63.8436 46.4062L63.6249 46.75L63.3124 47.0938L62.8749 47.375L62.4374 47.5312L62.1249 47.5938L61.1874 47.625H43.4999L43.4686 54.0938H45.9999L46.6874 54.1875L47.1874 54.3438L47.7186 54.5938L48.1561 54.9062L48.4686 55.1875L48.7499 55.4688L49.0936 55.9688L49.3749 56.5625L49.5311 57.1562L49.5624 57.375L49.5936 57.9062V62.5938L49.5624 62.9062L49.3749 63.2188L49.2186 63.3438L49.0311 63.4062L48.8124 63.4375H15.1874L14.9061 63.3438L14.7186 63.1875L14.5624 62.9375L14.5311 62.8125V57.5312L14.6249 56.9375L14.7811 56.4688L15.0311 55.9688L15.2811 55.5938L15.6249 55.1875L15.9686 54.875L16.4374 54.5625L16.9686 54.3125L17.5311 54.1562L18.0624 54.0938H20.6249L20.5936 47.625H2.59363V47.5938L14.5936 47.5625L13.0624 47.5312L10.7499 47.5L9.37488 47.4688H8.90613L8.06238 47.4375L8.18738 47.3438H8.46863L8.81238 47.3125L9.59363 47.2812L9.78113 47.3125L9.84363 47.2812H10.1249H10.2186H10.9686L11.2811 47.25H11.5311L11.8436 47.2188L11.9999 47.1875L12.1249 47.1562H11.8436L11.7499 47.0938L11.8436 47.0625L11.9061 46.9688L11.9999 47V47.0625L12.0936 47L12.1249 46.9062L11.8749 46.9375L11.5624 46.875L11.2499 46.8438L11.1561 46.8125L11.1874 46.6875L11.3124 46.6562L11.4374 46.6875V46.625L11.1561 46.6562L10.9999 46.625L10.7186 46.5938L10.0311 46.5625L9.78113 46.5312L8.28113 46.4688L8.03113 46.4375L7.21863 46.4062L6.46863 46.3438L6.31238 46.3125L6.37488 46.2812V46.2188L6.49988 46.1562V46.125L61.7811 46.0938L62.0936 46.0312L62.3436 45.875L62.4374 45.75L62.4999 45.4688V38.4375L62.4061 38.4688H1.56238V38.4375L30.9374 38.4062L29.7186 38.3438L29.1561 38.3125V38.25L29.5311 38.2188L30.0624 38.1875H30.6874L31.1561 38.1562H31.8749L32.0624 38.125H32.1561L32.1249 38.0625L31.9686 38.0312L31.9374 38.0938L31.7811 37.9375H31.8749V38H32.0311V37.9375L32.1874 37.9062L32.5311 37.875V37.9375L32.6561 37.875L32.6874 37.8125L32.1561 37.7188L32.1249 37.625H32.0624V37.5625L32.2811 37.5312L32.2499 37.4688L31.9374 37.4375L31.7811 37.5V37.4375H31.5624L31.4374 37.375H30.8124L30.0624 37.3125L27.9999 37.25H26.9999L26.4999 37.2188L26.3749 37.25L26.1561 37.2188L25.3124 37.1875V37.1562L25.8124 37.125L26.5936 37.0938L28.0936 37.0625H29.3124L30.2811 37.0312L30.6874 37L31.6249 36.9688L56.9061 36.9375L56.9374 36.9062L56.9999 21.4688L57.0311 18.4375H57.0936L57.0624 18.25H57.1249V17.9375L57.1561 17.9062V17.7188L57.2186 17.8438L57.2499 18.0625L57.2811 18.6875V19.0312L57.3124 19.2812L57.2811 19.4688L57.3124 19.5312L57.3436 19.7812V20.3438L57.3124 20.4688L57.3436 20.5625V21.0312L57.3749 21.2188V21.5312L57.4686 22.1875V22.5312L57.5311 22.6875L57.4999 22.875H57.5936V23.0938L57.6249 23.2188H57.5624L57.5311 23.375L57.5936 23.4688L57.6249 23.75L57.6874 23.7812V23.8438H57.6249L57.6561 24.125L57.7186 24.1875V24.4062L57.7811 24.3125L57.8436 24.4062L57.8124 24.5L57.8749 24.625V24.7188L57.8436 24.9375L57.9374 25.0312L57.9061 25.2188L57.9686 25.375L58.0624 25.4062L57.9999 25.5312L58.0936 25.6875V25.7812H58.1561L58.1249 26L58.1874 26.125L58.1561 26.1562L58.2499 26.25L58.3749 26.2812L58.4061 6.25H58.4374V36.9688H62.4999V5.15625ZM22.1874 47.5938L22.1249 47.625V54.0625L22.1561 54.0938H41.9686V47.5938H37.1874L37.1249 47.625L37.0936 51.375L36.9686 51.625L36.7499 51.8125L36.5624 51.875H27.5311L27.2811 51.75L27.0936 51.5312L26.9999 51.25L26.9686 47.5938H22.1874ZM28.5311 47.5938L28.4686 47.625V50.4062L28.4999 50.4375H35.6249V47.625L35.5936 47.5938H28.5311ZM18.0624 55.5938L17.6874 55.6562L17.2811 55.8125L16.9374 56.0312L16.6249 56.3125L16.3749 56.625L16.1561 57.0625L16.0624 57.375L16.0311 57.5938V61.9375H48.0624L48.0936 61.9062V57.75L48.0311 57.3125L47.9061 56.9375L47.7186 56.5938L47.4686 56.2812L47.1874 56.0312L46.7499 55.7812L46.2811 55.625L46.0624 55.5938H18.0624Z" fill="#067DD3"/>
<path d="M1.93738 0.53125H61.9999L62.3749 0.59375L62.8436 0.78125L63.1874 1.03125L63.3749 1.1875L63.6561 1.5625L63.8436 1.9375L63.9374 2.28125L63.9686 2.75V5.5L63.9374 19.8438L63.9061 21L63.8749 20.9375H63.7499L63.6874 20.875L63.6249 20.9062L63.5936 20.75V20.6875L63.4061 20.5938L63.5311 20.5625L63.3749 20.5V20.4062L63.2811 20.3125L63.4686 20.25L63.4061 20.0938L63.4374 19.9688L63.4686 19.9062H63.2811L63.1561 19.7812V19.6875L63.1249 19.4062V19.3438L63.0311 19.375L62.9374 19.3125L62.9999 19.1562L62.9061 19.0625H62.9686L62.8749 18.8438L62.8436 18.6875L62.7811 18.3438L62.7499 18.25L62.7811 18.1875V17.5312L62.7499 17.5L62.7186 16.625L62.6561 15.75L62.6249 15.1562H62.5624L62.5936 15.375H62.5311L62.4686 15.0312L62.4374 2.59375L62.3436 2.34375L62.3124 2.25L61.9374 2.0625L2.87488 2.03125L1.99988 2.0625L1.71863 2.21875L1.56238 2.46875L1.53113 2.5625L1.49988 32.9375H1.46863L1.43738 23.1875L1.40613 20.375L1.37488 20H1.28113L1.31238 20.2812L1.24988 20.4375L1.28113 20.5938L1.18738 20.6562L1.09363 20.5312V20.3438L1.06238 20.25V19.8125L0.968628 19.7188V19.6562L0.812378 19.75H0.624878L0.687378 19.5312L0.562378 19.375L0.499878 19.1875L0.531128 18.9688L0.593628 18.7188L0.499878 18.6875V18.625H0.437378L0.374878 18.375H0.468628L0.406128 18.1562L0.218628 18.0938L0.156128 18.3125L0.0936279 18.8438L0.0623779 18.9062H-0.00012207V2.28125L0.187378 1.78125L0.437378 1.375L0.562378 1.21875H0.624878L0.656128 1.125L1.03113 0.84375L1.43738 0.65625L1.93738 0.53125Z" fill="#067DD3"/>
<path d="M5.93738 5.59375H57.8124L58.0936 5.71875L58.2811 5.9375L58.3436 6.09375V26.3125L58.1561 26.25H58.0624V26.125H58.1249L58.0311 26V25.8125V25.7812L57.9999 25.625L57.9374 25.5938V25.5L57.9686 25.4062L57.8436 25.2812L57.8124 25.125H57.8749V25.0312L57.7811 25L57.7499 24.7812L57.7811 24.6875L57.8124 24.6562L57.7499 24.625L57.7186 24.4375L57.6874 24.5312L57.6249 24.4062V24.2188L57.5624 24.125V23.8438V23.75L57.4999 23.5625L57.5311 23.4688L57.4686 23.4375L57.4374 23.3125L57.4999 23.2188H57.5624V23.125L57.4999 23.0938L57.5311 22.875H57.4374V22.625L57.3749 22.5312V22.1875L57.2811 21.5312V21.1875L57.2499 21V20.5625L57.2186 20.4375L57.2499 20.3125V19.75L57.2186 19.5L57.1874 19.4375L57.2186 19.1875L57.1874 18.875V18.5312L57.1561 18L57.1249 17.9062L57.0936 18.1875L57.0624 18.25H56.9999L57.0311 18.4375L56.9999 18.5938L56.9686 21.4688L56.9374 29.7188L56.9061 36.9062H56.8749L56.8436 7.09375H6.87488V14.2188L6.81238 14.5938V14.9062L6.84363 15L6.81238 15.1875L6.84363 15.25L6.81238 15.5L6.84363 15.625L6.81238 15.7188L6.84363 15.875L6.78113 16.0625V16.375L6.81238 16.5L6.78113 16.6562L6.71863 16.8125L6.62488 16.7812L6.59363 16.625L6.62488 16.5H6.56238L6.53113 16.4375L6.43738 16.375L6.53113 16.2812L6.56238 16.125L6.43738 16.0938L6.40613 16.2188H6.21863L6.18738 16.1562L6.34363 16.0312H6.46863L6.49988 15.9688L6.40613 15.9375L6.28113 15.7812L6.06238 15.75L5.99988 15.6875L5.93738 15.375L6.03113 15.3125L6.06238 15.1875H5.99988L5.93738 14.9062L5.90613 14.5V14.4062H5.84363V14.125L5.81238 13.8125L5.74988 13.5938V13.2188L5.68738 12.6875H5.74988L5.71863 12.4688V12.1562L5.68738 12.0625V11.7188L5.65613 11.4375L5.62488 11L5.56238 10.9688L5.53113 10.9375L5.49988 10.625L5.46863 10.5625L5.43738 18.1875H5.40613L5.37488 7.40625V6.4375L5.40613 6.09375L5.59363 5.78125L5.84363 5.625L5.93738 5.59375Z" fill="#067DD3"/>
<path d="M31.1249 12.1562H32.6249L33.5936 12.2812L34.3124 12.4375L35.0624 12.6562L35.9374 13L36.6249 13.3438L37.2811 13.75L37.8124 14.125L38.3436 14.5625L38.7499 14.9375L39.1561 15.3438L39.4374 15.6875L39.7499 16.0625L40.1874 16.6875L40.5311 17.2812L40.7811 17.7812L41.0624 18.4062L41.3749 19.3438L41.5624 20.1562L41.6874 21L41.7186 21.3438V22.625L41.6561 23.2812L41.5311 24L41.3436 24.7812L41.0624 25.5938L40.7811 26.25L40.4374 26.9062L40.1249 27.4062L39.7499 27.9375L39.4686 28.2812L39.1249 28.6875L38.4374 29.375L38.0936 29.6562L37.5624 30.0625L36.9374 30.4688L36.2499 30.8438L35.7186 31.0938L34.9686 31.375L34.1874 31.5938L33.3749 31.75L32.5936 31.8438H31.0936L30.4999 31.7812L29.6561 31.625L28.9374 31.4375L28.1561 31.1562L27.3436 30.7812L26.7811 30.4688L26.1249 30.0312L25.7186 29.7188L25.3124 29.375L24.8436 28.9375L24.3749 28.4375L24.0311 28L23.6874 27.5312L23.2811 26.875L22.8749 26.0938L22.5624 25.3125L22.3436 24.625L22.1561 23.8125L22.0624 23.2188L21.9999 22.5312V21.4688L22.0936 20.5938L22.2186 19.875L22.4374 19.0625L22.7186 18.2812L23.0624 17.5312L23.4999 16.75L23.9374 16.125L24.3436 15.625L24.6249 15.3125L24.8124 15.0938H24.8749L24.9374 14.9688L25.1874 14.75L25.4061 14.5312L25.8436 14.1875L26.3436 13.8125L27.1249 13.3438L27.6561 13.0625L28.2499 12.8125L28.9374 12.5625L29.9374 12.3125L30.7811 12.1875L31.1249 12.1562ZM31.7186 13.625L30.8124 13.6875L29.9374 13.8438L29.1874 14.0625L28.5311 14.3125L27.7186 14.7188L27.0936 15.125L26.7186 15.4062L26.3749 15.6875L25.8749 16.1562L25.4686 16.5938L25.1561 17L24.8436 17.4375L24.4999 18.0312L24.2499 18.5312L23.9999 19.125L23.7499 19.9375L23.5936 20.6562L23.4999 21.5312V22.5L23.6249 23.5312L23.8124 24.3125L24.0624 25.0625L24.4061 25.8125L24.7186 26.375L24.9686 26.75L25.3436 27.25L25.7186 27.6875L26.2499 28.2188L26.5936 28.5L27.1249 28.9062L27.7811 29.3125L28.5311 29.6875L29.2811 29.9688L29.9374 30.1562L30.5936 30.2812L31.1249 30.3438L32.0624 30.375L32.6561 30.3438L33.4686 30.2188L34.2499 30.0312L35.1249 29.7188L35.8436 29.375L36.5624 28.9375L37.0936 28.5312L37.5311 28.1562L37.7811 27.9375L37.9999 27.6875L38.3436 27.3125L38.7186 26.8125L39.0624 26.2812L39.2499 25.9688L39.6249 25.1562L39.8436 24.5312L40.0311 23.8438L40.1561 23.1562L40.2186 22.5625V21.4375L40.1249 20.625L39.9686 19.9062L39.7186 19.0938L39.4374 18.4375L39.0624 17.7188L38.6874 17.1562L38.3124 16.6562L37.9374 16.25L37.4061 15.7188L36.9686 15.375L36.5936 15.0938L35.9999 14.7188L35.4686 14.4375L34.8749 14.1875L34.1249 13.9375L33.4686 13.7812L32.8749 13.6875L31.9374 13.625H31.7186Z" fill="#067DD3"/>
<path d="M4.81238 0.53125H61.9999L62.3749 0.59375L62.8436 0.78125L63.1874 1.03125L63.3749 1.1875L63.6561 1.5625L63.8436 1.9375L63.9374 2.28125L63.9686 2.75V5.5L63.9374 19.8438L63.9061 21L63.8749 20.9375H63.7499L63.6874 20.875L63.6249 20.9062L63.5936 20.75V20.6875L63.4061 20.5938L63.5311 20.5625L63.3749 20.5V20.4062L63.2811 20.3125L63.4686 20.25L63.4061 20.0938L63.4374 19.9688L63.4686 19.9062H63.2811L63.1561 19.7812V19.6875L63.1249 19.4062V19.3438L63.0311 19.375L62.9374 19.3125L62.9999 19.1562L62.9061 19.0625H62.9686L62.8749 18.8438L62.8436 18.6875L62.7811 18.3438L62.7499 18.25L62.7811 18.1875V17.5312L62.7499 17.5L62.7186 16.625L62.6561 15.75L62.6249 15.1562H62.5624L62.5936 15.375H62.5311L62.4686 15.0312L62.4374 2.59375L62.3436 2.34375L62.3124 2.25L61.9374 2.0625L3.03113 2.03125V2L33.4999 1.96875L33.4061 1.9375L33.2499 1.96875L33.2186 1.875L33.1249 1.90625V1.84375L32.9999 1.875L32.8436 1.90625V1.84375H32.7499V1.78125H33.1874L33.9686 1.71875L34.4374 1.75V1.6875L34.5624 1.65625L34.7186 1.75L34.7811 1.625H34.8436V1.6875L34.9999 1.625L35.1249 1.65625L35.1561 1.71875H35.2186V1.65625L35.4061 1.625H36.1249L36.1561 1.65625L36.2499 1.59375L36.3436 1.625L36.3749 1.5625L36.5624 1.59375L36.6561 1.5625V1.625L36.8124 1.5L36.8749 1.40625H36.9686V1.34375H37.0624L37.0936 1.5L37.0311 1.5625L37.1874 1.59375L37.2499 1.53125V1.4375L37.3436 1.34375L37.4999 1.375L37.5936 1.53125V1.59375H37.7811V1.5H37.6561L37.6249 1.4375H37.6874V1.375L37.8124 1.34375L37.9374 1.375L37.9686 1.3125L38.1249 1.4375H38.3124L38.4061 1.3125L38.6561 1.34375H38.6874V1.25L38.8749 1.21875L38.7811 1.1875V1.125H38.6249L38.4999 1.03125L38.3436 1.0625L38.2499 1.09375L37.7811 0.9375V1L37.6874 1.03125L37.5936 0.9375L37.1874 0.90625L37.0936 0.9375V0.8125H37.4686L37.7186 0.84375L37.9999 0.8125H38.2499L38.2811 0.78125L39.1874 0.71875H39.3749L39.4061 0.65625H39.7499L39.9061 0.625V0.6875L40.0311 0.625L41.7499 0.59375L4.81238 0.5625V0.53125Z" fill="#067DD3"/>
<path d="M14.1561 15.9375H14.4374L14.7499 16.0625L15.2186 16.5L15.3749 16.6562V16.7188H15.4374V16.7812H15.4999L15.7186 17.0312L19.5311 20.8438V20.9062H19.5936V20.9688H19.6561L19.8749 21.2188L20.4061 21.75L20.5311 22L20.5624 22.1875L20.4686 22.5312L20.1874 22.875L17.1249 25.9375L16.9686 26.125H16.9061L16.8436 26.25H16.7811L16.7186 26.375L14.8749 28.2188L14.6249 28.375L14.4999 28.4062H14.0936L13.7811 28.25L13.6249 28.0625L13.5311 27.8125L13.4999 25.0938H9.71863L9.37488 25.0312L9.12488 24.8438L8.99988 24.6875L8.90613 24.375V19.9688L8.99988 19.6875L9.21863 19.4375L9.46863 19.3125L13.4999 19.2812L13.5311 16.5L13.6561 16.25L13.9061 16.0312L14.1561 15.9375ZM15.0624 18.5312L15.0311 20.1875L14.9061 20.5L14.7186 20.6562L14.2186 20.7812L13.7499 20.8125H10.4061V23.5625L10.4374 23.5938H14.1874L14.6249 23.6875L14.8436 23.8125L14.9686 24L15.0311 24.2188L15.0624 25.8438L15.3124 25.6562L15.4374 25.5312V25.4688L15.5624 25.4062L15.7811 25.1875L15.9374 25L16.1561 24.8125L16.3124 24.625L16.5311 24.4375L16.6874 24.25L16.9061 24.0625L17.0624 23.875L17.2811 23.6875L17.4374 23.5L17.6561 23.3125L17.8124 23.125L17.9999 22.9688L18.2186 22.7188L18.4374 22.5L18.6561 22.3125V22.25L18.7499 22.2188L18.5624 22L15.0936 18.5312H15.0624Z" fill="#067DD3"/>
<path d="M49.3436 15.9375L49.6249 15.9688L49.9374 16.125L50.1249 16.3438L50.1874 16.5L50.2186 19.2812L54.2186 19.3125L54.4686 19.4062L54.6874 19.625L54.8124 19.9062V24.4375L54.7186 24.6875L54.5624 24.9062L54.3436 25.0312L54.2186 25.0625L53.0311 25.0938H50.2186L50.1874 27.875L50.0624 28.125L49.8124 28.3438L49.5936 28.4062H49.2811L49.0311 28.3125L48.7186 28.0312L43.3436 22.6562L43.2186 22.4375L43.1874 22.3125V22.0312L43.3436 21.7188L48.9686 16.0938L49.2186 15.9688L49.3436 15.9375ZM48.6561 18.5625L48.4061 18.7812L47.0311 20.1562L46.8436 20.375L46.6561 20.5312L46.4999 20.7188L46.2811 20.9062L46.1249 21.0938L45.9061 21.2812L45.7499 21.4688L45.4999 21.6875L45.0311 22.1562L45.0936 22.2812L48.6561 25.8438H48.7186V24.25L48.8124 23.9375L48.9374 23.7812L49.2186 23.6562L49.5311 23.5938H53.2811L53.3124 23.5625V20.8125H49.9374L49.4686 20.7812L49.0936 20.6875L48.9061 20.5625L48.7811 20.375L48.7186 20.125V18.5625H48.6561Z" fill="#067DD3"/>
<path d="M5.93738 5.59375H29.9686V5.625L28.8749 5.65625L28.7186 5.6875L27.4686 5.71875L25.6561 5.8125H26.2186L27.1561 5.84375L27.4061 5.875L27.4999 5.84375L27.6561 5.90625H27.8124L27.9686 5.96875L28.4374 6.0625L28.4999 6.09375L28.4686 6.1875L28.1874 6.15625L28.2499 6.3125L28.3436 6.40625L28.1561 6.375L27.8436 6.40625H27.7499L27.6874 6.53125H27.6249L27.5936 6.4375L27.4374 6.40625L27.3749 6.65625L27.2186 6.625V6.46875L27.0624 6.5625H26.9686V6.5L26.7499 6.6875L26.5624 6.65625L26.5936 6.5625L26.5624 6.5L26.5311 6.65625L26.0624 6.71875L25.6874 6.6875L25.6249 6.71875L25.3436 6.6875L25.2499 6.75V6.6875L24.9686 6.71875V6.78125L24.9061 6.75L24.9374 6.6875L24.4374 6.75H23.9999L23.5936 6.8125V6.90625H23.9999V6.96875H24.0624V6.90625H24.3436L24.6561 6.96875L24.8124 6.9375L24.9999 6.96875L25.3436 7L25.4374 6.9375L25.4686 7H26.4999L26.6249 7.03125L26.6561 6.9375L26.7499 7L27.0311 7.03125V7.0625L6.87488 7.09375V14.2188L6.81238 14.5938V14.9062L6.84363 15L6.81238 15.1875L6.84363 15.25L6.81238 15.5L6.84363 15.625L6.81238 15.7188L6.84363 15.875L6.78113 16.0625V16.375L6.81238 16.5L6.78113 16.6562L6.71863 16.8125L6.62488 16.7812L6.59363 16.625L6.62488 16.5H6.56238L6.53113 16.4375L6.43738 16.375L6.53113 16.2812L6.56238 16.125L6.43738 16.0938L6.40613 16.2188H6.21863L6.18738 16.1562L6.34363 16.0312H6.46863L6.49988 15.9688L6.40613 15.9375L6.28113 15.7812L6.06238 15.75L5.99988 15.6875L5.93738 15.375L6.03113 15.3125L6.06238 15.1875H5.99988L5.93738 14.9062L5.90613 14.5V14.4062H5.84363V14.125L5.81238 13.8125L5.74988 13.5938V13.2188L5.68738 12.6875H5.74988L5.71863 12.4688V12.1562L5.68738 12.0625V11.7188L5.65613 11.4375L5.62488 11L5.56238 10.9688L5.53113 10.9375L5.49988 10.625L5.46863 10.5625L5.43738 18.1875H5.40613L5.37488 7.40625V6.4375L5.40613 6.09375L5.59363 5.78125L5.84363 5.625L5.93738 5.59375Z" fill="#067DD3"/>
<path d="M31.8436 16.5L32.1874 16.5625L32.4374 16.7188L32.5936 17L32.6249 17.1875V17.5938L32.9686 17.6562L33.3749 17.8125L33.7186 18.0312L34.0311 18.2812V18.3438H34.0936L34.3749 18.7188L34.5936 19.1562L34.7499 19.6875V20.125L34.5936 20.375L34.4061 20.5312L34.2499 20.5938L33.9374 20.625L33.6561 20.5625L33.4061 20.375L33.2811 20.125L33.1249 19.625L32.9374 19.3438L32.6561 19.1562L32.3436 19.0625H31.7499L31.3749 19.1875L31.0311 19.4062L30.8436 19.6875L30.7811 19.875V20.25L30.9374 20.625L31.1561 20.8125L31.4999 20.9688L32.0936 21.1562L32.9061 21.4062L33.4061 21.6562L33.7499 21.9062L33.9999 22.1562L34.2186 22.5L34.3749 22.9375L34.4374 23.2188V24.0938L34.3124 24.5938L34.1561 24.9688L33.8749 25.375L33.5936 25.6562L33.2811 25.875L32.7811 26.0938L32.6561 26.1562V26.5625L32.5936 26.9688L32.4374 27.2812L32.2499 27.4375L32.0311 27.5H31.6561L31.4374 27.4062L31.2811 27.25L31.1561 27L31.0936 26.5312V26.2188L30.5936 26.0625L30.0936 25.8125L29.7499 25.5312L29.4686 25.25L29.2186 24.8438L29.0624 24.5L28.9999 24.2188V23.7812L29.1249 23.4688L29.2499 23.3125L29.4686 23.1875L29.5936 23.1562H29.9686L30.2186 23.2812L30.3749 23.5625L30.6249 24.2188L30.8436 24.5L31.2186 24.6875L31.5624 24.75H31.9686L32.3436 24.625L32.6874 24.4062L32.8749 24.1875L32.9686 23.9688L32.9999 23.6562L32.9374 23.375L32.7811 23.0938L32.4999 22.9062L31.9686 22.7188L31.0311 22.4375L30.5624 22.25L30.2186 22.0625L29.9061 21.8125L29.6874 21.5625L29.4686 21.1875L29.3124 20.6562L29.2811 20.4375V19.75L29.3749 19.3125L29.5311 18.9062L29.7811 18.5312L30.1249 18.1562L30.5936 17.8438L31.0624 17.6562L31.0936 17.625L31.1249 17.0625L31.2499 16.7812L31.4686 16.5938L31.6249 16.5312L31.8436 16.5Z" fill="#067DD3"/>
<path d="M28.5936 41.5312H34.9999L35.3436 41.5625L35.5936 41.7188L35.7811 42L35.8124 42.0938V42.4688L35.6874 42.75L35.4374 42.9688L35.1874 43.0312H28.4686L28.2186 42.9375L27.9999 42.6875L27.9061 42.4375V42.125L27.9999 41.875L28.1561 41.6875L28.4061 41.5625L28.5936 41.5312Z" fill="#067DD3"/>
<path d="M49.3749 41.5H50.1249L50.9374 41.5312L51.1874 41.5938L51.3749 41.7188L51.5311 41.9062L51.5936 42.0938V42.5L51.4686 42.75L51.2186 42.9688L50.9686 43.0312L50.4999 43.0625H49.0936L48.6249 42.9688L48.4374 42.875L48.2499 42.7188L48.1249 42.4062V42.1875L48.2186 41.9062L48.3749 41.75L48.5936 41.625L48.9374 41.5312L49.3749 41.5Z" fill="#067DD3"/>
<path d="M56.4999 41.5H57.2499L58.0624 41.5312L58.3124 41.5938L58.4999 41.7188L58.6249 41.875L58.7186 42.0938V42.5L58.5936 42.75L58.3436 42.9688L58.0936 43.0312L57.5936 43.0625H56.2186L55.7499 42.9688L55.4999 42.8438L55.3436 42.6562L55.2499 42.4062V42.1875L55.3436 41.9062L55.4999 41.75L55.7186 41.625L56.0624 41.5312L56.4999 41.5Z" fill="#067DD3"/>
<path d="M45.7811 24.9688H45.8436L45.9686 25.0938V25.1562L46.0936 25.2188L46.2811 25.375L46.3436 25.4062V25.5L46.4686 25.5312V25.5938L46.5936 25.625V25.6875L46.7186 25.75V25.8125H46.8124V25.875H46.8749V25.9375H46.9374V26H46.9999V26.0625L47.2499 26.1875V26.25L47.3436 26.2812V26.3438L47.5311 26.4062L47.5936 26.5625H47.6561L47.6874 26.625H47.7499V26.6875L47.9686 26.75L48.2186 26.875V27.0625L48.4061 27.0938L48.4686 27.125V27.2188L48.6874 27.2812L48.7811 27.375L48.9999 27.4688V27.5312H49.0624V27.5938H49.1249L49.1561 27.8125V27.875L49.3436 27.9062L49.4686 28.0312L49.5624 28.0938L49.6874 28.0312L49.8124 28.0625V28L50.0311 27.875L50.1249 27.8438L50.1874 27.7188L50.1561 27.9688L50.0311 28.1562L49.8124 28.3438L49.5936 28.4062H49.2811L49.0311 28.3125L48.7186 28.0312L45.7186 25.0312L45.7811 24.9688Z" fill="#067DD3"/>
<path d="M14.7811 16.9062H14.9999L15.1561 17V17.0625L15.2811 17.125L15.4374 17.3438V17.4062L15.5624 17.4375L15.7499 17.7188L15.8436 17.8125L15.9061 17.9375L15.7499 17.9688L15.6874 18.0938H15.6249L15.5624 18.2188L15.3436 18.2812L15.1561 18.375L15.0624 18.4062L14.9999 18.4688V18.5625H14.9061L14.8436 18.4688L14.7499 18.4375L14.7186 18.5L14.6249 18.4062L14.4686 18.125L14.3124 18.0938V17.9375L14.4374 17.9062L14.4061 17.75V17.5625L14.5311 17.5L14.6249 17.4375L14.6561 17.3125L14.7499 17.2188H14.8124L14.8436 17.1562H14.9999L14.8436 17L14.7499 17.0938H14.6561V17L14.7811 16.9688V16.9062Z" fill="#067DD3"/>
<path d="M56.8749 7.15625H56.9061L56.9374 21.0625L56.9686 21.3438V22.375L56.9374 29.2812L56.9061 36.9062H56.8749V7.15625Z" fill="#067DD3"/>
<path d="M36.3436 5.59375H40.4061V5.625L40.0311 5.65625L38.9999 5.6875L38.6561 5.71875H37.3749L37.3436 5.78125L36.5624 5.8125H36.1249L36.1874 5.90625H35.9999L35.9686 5.84375L35.9999 5.75L35.6561 5.78125L33.6561 5.75L33.6874 5.6875L34.5624 5.65625V5.625H35.1249H35.1561L36.3436 5.59375Z" fill="#067DD3"/>
<path d="M0.281128 46.375L0.468628 46.4688V46.5312L0.593628 46.5938L0.656128 46.7188L0.749878 46.75V46.8125L0.874878 46.875L0.999878 46.9688V47.0312L1.12488 47L1.28113 47.1562H1.37488L1.40613 47.2188L1.65613 47.3125L1.96863 47.4375L2.06238 47.5938L1.68738 47.5625L1.24988 47.4062L0.906128 47.2188L0.531128 46.875L0.281128 46.5625L0.249878 46.4688L0.281128 46.375Z" fill="#067DD3"/>
<path d="M49.4061 0.59375H51.3749V0.65625L50.4061 0.6875L50.2186 0.71875L49.9374 0.6875L49.5936 0.71875H49.3436L49.0624 0.6875L48.9061 0.65625L48.8749 0.71875H48.5936L48.2499 0.6875L48.2186 0.71875H47.8749L47.5311 0.6875L47.2186 0.71875L47.0936 0.6875L47.1249 0.625L49.4061 0.59375Z" fill="#067DD3"/>
<path d="M37.5624 5.84375H38.1561L38.5936 5.90625H39.0936L39.1561 5.9375H39.3749L39.3124 6.03125L38.7186 6.0625L38.5936 6.09375L38.4686 6.03125H38.3749V6.125L38.2499 6.0625L38.0936 6.03125L37.9686 6.0625L37.8124 6.03125L37.7499 6.15625L37.6249 6.09375L37.5311 5.9375L37.5624 5.84375Z" fill="#067DD3"/>
<path d="M48.7499 20.3125H48.8436L48.9686 20.4688L49.1249 20.625L49.1561 20.7188L48.9686 20.6562L48.7811 20.4375L48.7499 20.3125Z" fill="#067DD3"/>
<path d="M32.2186 38L32.6561 38.0312L32.6249 38.125L32.3124 38.1562L32.1561 38.0938V38.0312L32.2186 38Z" fill="#067DD3"/>
<path d="M53.3436 21.4375L53.4061 21.5312L53.4374 22.0312L53.3436 22.0625V21.4375Z" fill="#067DD3"/>
<path d="M14.8436 18.1875L14.9374 18.2188V18.375L14.8749 18.4062L14.7186 18.3438L14.7811 18.2188L14.8436 18.1875Z" fill="#067DD3"/>
<path d="M37.1561 5.875H37.4061L37.4686 5.9375L37.4374 6.0625L37.2811 6.03125L37.2499 5.9375L37.1561 5.875Z" fill="#067DD3"/>
<path d="M36.9999 5.84375L37.1249 5.875V6V6.0625H36.9999L36.9686 5.9375L36.9061 5.90625L36.9999 5.84375Z" fill="#067DD3"/>
<path d="M31.7499 37.5625H31.9374V37.625H31.9999V37.6875H31.7811L31.7186 37.6562L31.7499 37.5625Z" fill="#067DD3"/>
<path d="M36.3436 5.84375L36.4999 5.875V5.9375H36.4374V6H36.4999L36.4686 6.125L36.3749 6.03125L36.3436 5.9375L36.2811 5.875L36.3436 5.84375Z" fill="#067DD3"/>
</g>
<defs>
<clipPath id="clip0_61_1408">
<rect width="64" height="64" fill="white"/>
</clipPath>
</defs>
</svg>
