<svg width="40" height="40" viewBox="0 0 40 40" fill="none" xmlns="http://www.w3.org/2000/svg">
<g clip-path="url(#clip0_85_83)">
<path d="M31.1112 33.3333H17.7779V24.4444H15.5556V33.3333H8.88897V24.4444H6.66675V33.3333C6.66675 33.9227 6.90087 34.4879 7.31762 34.9047C7.73437 35.3214 8.2996 35.5556 8.88897 35.5556H31.1112C31.7006 35.5556 32.2658 35.3214 32.6825 34.9047C33.0993 34.4879 33.3334 33.9227 33.3334 33.3333V24.4444H31.1112V33.3333Z" fill="#067dd3"/>
<path d="M37.5444 14.7444L33.0111 5.67778C32.8271 5.30754 32.5435 4.99597 32.1921 4.77809C31.8408 4.56021 31.4356 4.44466 31.0222 4.44444H8.97774C8.56431 4.44466 8.15914 4.56021 7.80779 4.77809C7.45644 4.99597 7.17283 5.30754 6.98885 5.67778L2.45552 14.7444C2.30074 15.055 2.22083 15.3975 2.22219 15.7444V19.1667C2.22117 19.6859 2.402 20.1891 2.7333 20.5889C3.22292 21.1501 3.82763 21.5994 4.50633 21.9062C5.18504 22.2129 5.92183 22.37 6.66663 22.3667C7.88193 22.3686 9.06016 21.9483 9.99996 21.1778C10.9397 21.9487 12.1177 22.3701 13.3333 22.3701C14.5489 22.3701 15.7268 21.9487 16.6666 21.1778C17.6064 21.9487 18.7844 22.3701 20 22.3701C21.2155 22.3701 22.3935 21.9487 23.3333 21.1778C24.2731 21.9487 25.4511 22.3701 26.6666 22.3701C27.8822 22.3701 29.0602 21.9487 30 21.1778C31.049 22.0391 32.3912 22.4602 33.7443 22.3525C35.0974 22.2447 36.356 21.6165 37.2555 20.6C37.5908 20.2017 37.7756 19.6984 37.7777 19.1778V15.7444C37.7791 15.3975 37.6992 15.055 37.5444 14.7444ZM16.6666 16V17.6889L15.7555 18.8889C15.4758 19.2701 15.1103 19.5801 14.6885 19.7938C14.2667 20.0075 13.8006 20.1188 13.3277 20.1188C12.8549 20.1188 12.3888 20.0075 11.967 19.7938C11.5452 19.5801 11.1797 19.2701 10.9 18.8889L9.99996 17.6444V16L12.8777 6.66666H17.7777L16.6666 16ZM30 17.6444L29.1 18.8889C28.8203 19.2701 28.4547 19.5801 28.033 19.7938C27.6112 20.0075 27.145 20.1188 26.6722 20.1188C26.1994 20.1188 25.7332 20.0075 25.3114 19.7938C24.8896 19.5801 24.5241 19.2701 24.2444 18.8889L23.3333 17.6444V16L22.2222 6.66666H27.1666L30 16V17.6444Z" fill="#067dd3"/>
</g>
<defs>
<clipPath id="clip0_85_83">
<rect width="40" height="40" fill="white"/>
</clipPath>
</defs>
</svg>
