<svg width="40" height="40" viewBox="0 0 40 40" fill="none" xmlns="http://www.w3.org/2000/svg">
<path d="M11.875 19.7457V15.2233" stroke="#57578E" stroke-width="0.9375" stroke-linecap="round" stroke-linejoin="round"/>
<path d="M9.61377 17.4845H14.1361" stroke="#57578E" stroke-width="0.9375" stroke-linecap="round" stroke-linejoin="round"/>
<path d="M14.3223 11.4099V10.0659C14.3223 9.58177 13.9298 9.18927 13.4457 9.18927H10.3042C9.81999 9.18927 9.42749 9.58177 9.42749 10.0659V11.5416" stroke="#57578E" stroke-width="0.9375" stroke-linecap="round" stroke-linejoin="round"/>
<path d="M24.2028 23.1129L27.9973 28.8046C29.2348 30.6609 31.6448 31.3315 33.6632 30.3812C35.5523 29.4918 36.5833 27.4248 36.1527 25.3817C35.3326 21.4897 34.6784 17.8602 34.0089 15.3962C33.3042 12.8026 30.7726 10.9959 27.9387 10.9959C26.2287 10.9959 24.6792 11.6716 23.5324 12.7656H16.4675C15.3206 11.6716 13.7712 10.9959 12.0612 10.9959C9.22733 10.9959 6.69566 12.8027 5.99099 15.3962C5.32149 17.8602 4.66733 21.4897 3.84716 25.3817C3.41658 27.4248 4.44758 29.4918 6.33666 30.3812C8.35508 31.3315 10.7651 30.6609 12.0026 28.8046L15.7971 23.1129H24.2028Z" stroke="#57578E" stroke-width="0.9375" stroke-linecap="round" stroke-linejoin="round"/>
<path d="M25.6775 11.4099V10.0659C25.6775 9.58177 26.07 9.18927 26.5542 9.18927H29.6957C30.1798 9.18927 30.5723 9.58177 30.5723 10.0659V11.5416" stroke="#57578E" stroke-width="0.9375" stroke-linecap="round" stroke-linejoin="round"/>
<path d="M25.8584 18.1095C26.2036 18.1095 26.4834 17.8297 26.4834 17.4845C26.4834 17.1393 26.2036 16.8595 25.8584 16.8595C25.5132 16.8595 25.2334 17.1393 25.2334 17.4845C25.2334 17.8297 25.5132 18.1095 25.8584 18.1095Z" fill="#57578E"/>
<path d="M30.3862 18.1095C30.7314 18.1095 31.0112 17.8297 31.0112 17.4845C31.0112 17.1393 30.7314 16.8595 30.3862 16.8595C30.0411 16.8595 29.7612 17.1393 29.7612 17.4845C29.7612 17.8297 30.0411 18.1095 30.3862 18.1095Z" fill="#57578E"/>
<path d="M28.125 15.8483C28.4702 15.8483 28.75 15.5684 28.75 15.2233C28.75 14.8781 28.4702 14.5983 28.125 14.5983C27.7798 14.5983 27.5 14.8781 27.5 15.2233C27.5 15.5684 27.7798 15.8483 28.125 15.8483Z" fill="#57578E"/>
<path d="M28.1251 20.3998C28.4864 20.3998 28.7793 20.1069 28.7793 19.7457C28.7793 19.3844 28.4864 19.0915 28.1251 19.0915C27.7638 19.0915 27.4709 19.3844 27.4709 19.7457C27.4709 20.1069 27.7638 20.3998 28.1251 20.3998Z" fill="#57578E"/>
</svg>
