<svg width="40" height="40" viewBox="0 0 40 40" fill="none" xmlns="http://www.w3.org/2000/svg">
<path d="M3.90982 18.7502C3.54089 17.6443 3.33325 16.5336 3.33325 15.4341C3.33325 5.5825 12.5002 1.1044 19.9999 9.16462C27.4996 1.1044 36.6666 5.58218 36.6666 15.434C36.6666 16.5336 36.4589 17.6443 36.0901 18.7502H31.0601L30.8734 18.75C29.9639 18.7485 29.1561 18.7472 28.4211 19.0745C27.6859 19.4018 27.1464 20.0033 26.5388 20.6807L26.4141 20.8197L24.6986 22.7257C24.5709 22.8675 24.4666 22.9833 24.3744 23.0822C24.2871 22.9798 24.1879 22.8598 24.0668 22.7128L18.1481 15.5386C17.9154 15.2565 17.6666 14.9547 17.4233 14.7307C17.1398 14.4698 16.7208 14.1764 16.1349 14.1412C15.549 14.106 15.0978 14.3471 14.7852 14.5722C14.5167 14.7655 14.2335 15.0354 13.9689 15.2876L11.4195 17.7157C10.6332 18.4645 10.4691 18.5922 10.2975 18.6607C10.1259 18.7293 9.91909 18.7502 8.83325 18.7502H3.90982Z" fill="#57578E"/>
<path d="M5.00732 21.2502C7.30896 25.52 11.5505 29.5237 14.9362 32.2845C17.1561 34.0948 18.2661 35 20 35C21.7338 35 22.8438 34.0948 25.0638 32.2845C28.4495 29.5237 32.691 25.52 34.9926 21.2502H31.0601C29.8531 21.2502 29.6243 21.2753 29.4381 21.3583C29.2521 21.4412 29.0801 21.5945 28.2723 22.492L26.5143 24.4453C26.2511 24.738 25.9731 25.0472 25.7058 25.2713C25.3973 25.53 24.9378 25.8202 24.316 25.8068C23.6943 25.7933 23.248 25.484 22.9506 25.2123C22.6933 24.977 22.429 24.6563 22.179 24.353L16.2581 17.1762C16.1455 17.0398 16.054 16.9288 15.9731 16.8342C15.8816 16.9185 15.7774 17.0177 15.6493 17.1397L13.0224 19.6417C12.4291 20.2083 11.9027 20.7112 11.226 20.982C10.5493 21.2527 9.82134 21.2515 9.00087 21.2503L5.00732 21.2502Z" fill="#57578E"/>
</svg>
