<svg width="40" height="40" viewBox="0 0 40 40" fill="none" xmlns="http://www.w3.org/2000/svg">
<path fill-rule="evenodd" clip-rule="evenodd" d="M14.9085 3.75H25.0914C27.3708 3.74997 29.2079 3.74993 30.6529 3.9442C32.1531 4.1459 33.4161 4.57738 34.4194 5.58058C35.4226 6.58378 35.8541 7.8469 36.0557 9.34708C36.2499 10.792 36.2499 12.6292 36.2499 14.9086V23.42C36.2499 24.9175 36.2501 26.1662 36.1167 27.1575C35.9761 28.2038 35.6666 29.1485 34.9074 29.9075C34.1484 30.6667 33.2038 30.9762 32.1574 31.1168C31.1661 31.2502 29.9174 31.25 28.4199 31.25H11.5799C10.0825 31.25 8.83375 31.2502 7.84245 31.1168C6.79614 30.9762 5.85147 30.6667 5.09235 29.9075C4.33324 29.1485 4.02379 28.2038 3.8831 27.1575C3.74982 26.1662 3.74987 24.9175 3.74992 23.42V14.9086C3.74989 12.6292 3.74985 10.792 3.94412 9.34708C4.14582 7.8469 4.5773 6.58378 5.5805 5.58058C6.5837 4.57738 7.84682 4.1459 9.347 3.9442C10.792 3.74993 12.6292 3.74997 14.9085 3.75ZM9.68012 6.42192C8.45715 6.58633 7.80954 6.88708 7.34827 7.34835C6.887 7.80962 6.58625 8.45725 6.42183 9.6802C6.25257 10.9391 6.24992 12.6076 6.24992 15V23.3333C6.24992 24.94 6.25257 26.0193 6.36082 26.8243C6.46422 27.5935 6.64292 27.9227 6.86012 28.1398C7.0773 28.357 7.40647 28.5357 8.17557 28.6392C8.98063 28.7473 10.0599 28.75 11.6666 28.75H28.3333C29.9399 28.75 31.0193 28.7473 31.8243 28.6392C32.5934 28.5357 32.9226 28.357 33.1398 28.1398C33.3569 27.9227 33.5356 27.5935 33.6391 26.8243C33.7473 26.0193 33.7499 24.94 33.7499 23.3333V15C33.7499 12.6077 33.7473 10.9391 33.5781 9.6802C33.4136 8.45725 33.1129 7.80962 32.6516 7.34835C32.1903 6.88708 31.5428 6.58633 30.3198 6.42192C29.0608 6.25265 27.3923 6.25 24.9999 6.25H14.9999C12.6076 6.25 10.939 6.25265 9.68012 6.42192ZM13.7499 25C13.7499 24.3097 14.3096 23.75 14.9999 23.75H24.9999C25.6903 23.75 26.2499 24.3097 26.2499 25C26.2499 25.6903 25.6903 26.25 24.9999 26.25H14.9999C14.3096 26.25 13.7499 25.6903 13.7499 25ZM2.08325 35C2.08325 34.3097 2.6429 33.75 3.33325 33.75H36.6666C37.3569 33.75 37.9166 34.3097 37.9166 35C37.9166 35.6903 37.3569 36.25 36.6666 36.25H3.33325C2.6429 36.25 2.08325 35.6903 2.08325 35Z" fill="#067dd3"/>
</svg>
