<svg width="40" height="40" viewBox="0 0 40 40" fill="none" xmlns="http://www.w3.org/2000/svg">
<g clip-path="url(#clip0_75_2182)">
<path d="M15.3936 22.8819C16.4228 22.3842 17.2281 21.4694 17.5598 20.3173L17.8378 19.3522H20.1202H22.4025L22.6805 20.3173C23.0123 21.4697 23.818 22.3847 24.8475 22.8822C24.4922 23.3067 24.1023 23.7045 23.6814 24.0681C23.0423 24.6202 22.3177 25.1091 21.5278 25.5209C21.2327 25.6748 20.9231 25.8189 20.6048 25.9541C20.4786 25.8334 20.3084 25.7584 20.1202 25.7584C19.932 25.7584 19.762 25.8334 19.6358 25.9538C19.3178 25.8188 19.0084 25.6748 18.7134 25.5209C17.9236 25.1091 17.1989 24.6202 16.5598 24.0681C16.1391 23.7044 15.7491 23.3066 15.3936 22.8819ZM27.7284 24.4594C27.58 26.8611 26.5198 32.6489 20.1202 35.0189C13.7206 32.6489 12.6603 26.8612 12.5119 24.4594C12.4728 23.8283 12.972 23.2945 13.6042 23.2945C13.9931 23.2945 14.3708 23.237 14.7314 23.1342C15.1484 23.6545 15.6119 24.1405 16.1191 24.5784C16.7977 25.1645 17.5656 25.683 18.4017 26.1189C18.7305 26.2903 19.0758 26.4503 19.4309 26.5992C19.495 26.9216 19.7791 27.1647 20.1202 27.1647C20.4611 27.1647 20.7452 26.9219 20.8094 26.5997C21.165 26.4506 21.5106 26.2905 21.8397 26.1189C22.6758 25.6828 23.4437 25.1645 24.1223 24.5784C24.6294 24.1405 25.0928 23.6547 25.5097 23.1344C25.87 23.2369 26.2473 23.2944 26.6359 23.2944C27.2684 23.2944 27.7675 23.8281 27.7284 24.4594ZM21.1359 28.5502C21.1359 27.9892 20.6813 27.5345 20.1203 27.5345C19.5594 27.5345 19.1047 27.9892 19.1047 28.5502C19.1047 29.1111 19.5594 29.5658 20.1203 29.5658C20.6813 29.5658 21.1359 29.1111 21.1359 28.5502ZM0.3125 9.76562H39.6875V11.0156C39.6405 13.2278 38.2641 15.017 36.25 15.6334V36.6406H39.6875V39.4531H0.3125V36.6406H3.75V15.6369C1.81641 14.9691 0.3125 13.1528 0.3125 11.0156V9.76562ZM6.5625 15.6397V36.6406H33.4375V15.625C31.3706 15.0409 29.8509 13.1675 29.8509 10.9134C29.8509 12.5459 28.3463 15.827 24.9505 15.827C21.1922 15.827 20.0342 12.6403 20.0342 10.9134C20.0342 12.7658 18.5478 15.8306 15.1589 15.8306C11.2572 15.8306 10.2016 11.9256 10.2016 10.9134C10.2016 13.1867 8.65656 15.0728 6.5625 15.6397ZM34.8175 3.67188H34.8438V0.546875H5.3125V3.67188L0.3125 8.67188H39.6875L34.8175 3.67188Z" fill="#067dd3"/>
</g>
<defs>
<clipPath id="clip0_75_2182">
<rect width="40" height="40" fill="white"/>
</clipPath>
</defs>
</svg>
