<svg width="40" height="40" viewBox="0 0 40 40" fill="none" xmlns="http://www.w3.org/2000/svg">
<path d="M18.3333 17.5C18.3333 12.4374 22.4373 8.33334 27.4999 8.33334C32.5626 8.33334 36.6666 12.4374 36.6666 17.5C36.6666 22.5627 32.5626 26.6667 27.4999 26.6667C22.4373 26.6667 18.3333 22.5627 18.3333 17.5Z" stroke="#067dd3" stroke-width="2.5"/>
<path d="M27.5 33.3333V26.6667M27.5 33.3333H32.5M27.5 33.3333H22.5" stroke="#067dd3" stroke-width="2.5" stroke-linecap="round" stroke-linejoin="round"/>
<path d="M3.33325 18.3333V17.0833C2.6429 17.0833 2.08325 17.643 2.08325 18.3333H3.33325ZM13.3333 18.3333H14.5833C14.5833 17.643 14.0236 17.0833 13.3333 17.0833V18.3333ZM3.33325 19.5833H13.3333V17.0833H3.33325V19.5833ZM12.0833 18.3333V28.3333H14.5833V18.3333H12.0833ZM4.58325 28.3333V18.3333H2.08325V28.3333H4.58325ZM8.33325 32.0833C6.26218 32.0833 4.58325 30.4043 4.58325 28.3333H2.08325C2.08325 31.7852 4.88147 34.5833 8.33325 34.5833V32.0833ZM12.0833 28.3333C12.0833 30.4043 10.4043 32.0833 8.33325 32.0833V34.5833C11.785 34.5833 14.5833 31.7852 14.5833 28.3333H12.0833Z" fill="#067dd3"/>
<path d="M5 18.3333H11.6667V9.36331C11.6667 8.12434 10.3628 7.31851 9.25465 7.87259L5.92132 9.53926C5.35667 9.82158 5 10.3987 5 11.03V18.3333Z" stroke="#067dd3" stroke-width="2.5"/>
</svg>
