<svg width="40" height="40" viewBox="0 0 40 40" fill="none" xmlns="http://www.w3.org/2000/svg">
<path d="M33.625 29.25H28.0625C29.3125 28.125 30.1875 26.625 30.5 24.9375H30.8125C33.5625 24.9375 35.875 22.6875 35.875 19.875C35.875 17.125 33.625 14.8125 30.8125 14.8125H30.625V12.9375C30.625 11.8125 29.6875 10.875 28.5625 10.875H10.6875C9.5625 10.875 8.625 11.8125 8.625 12.9375V23.4375C8.625 25.75 9.625 27.8125 11.25 29.1875H5.6875C4.875 29.1875 4.1875 29.875 4.1875 30.6875C4.1875 34.1875 7.0625 37.0625 10.5625 37.0625H28.6875C32.1875 37.0625 35.0625 34.1875 35.0625 30.6875C35.0625 29.875 34.4375 29.25 33.625 29.25ZM30.75 17.3125C32.125 17.3125 33.3125 18.4375 33.3125 19.875C33.3125 21.3125 32.1875 22.4375 30.75 22.4375H30.625V17.375H30.75V17.3125ZM11.1875 13.4375H28.125V14.875V23.5C28.125 26.375 25.75 28.75 22.875 28.75H16.375C13.5 28.75 11.125 26.375 11.125 23.5V13.4375H11.1875ZM28.6875 34.5625H10.5625C8.75 34.5625 7.25 33.375 6.8125 31.6875H32.4375C32 33.375 30.5 34.5625 28.6875 34.5625Z" fill="#067dd3"/>
<path d="M18.0625 9.875C18.625 9.5 18.8125 8.875 18.5625 8.25C18.5625 8.1875 18.5 8.125 18.5 8.125C18.5 8.125 18.5 8.125 18.5 8.0625C18.6875 7.6875 18.875 7.3125 19.0625 6.9375C19.25 6.5 19.5 6.125 19.5625 5.625C19.6875 5 19.625 4.375 19.375 3.8125C19.25 3.5 19.125 3.25 18.8125 3.0625C18.5625 2.875 18.125 2.8125 17.875 2.9375C17.5625 3.0625 17.25 3.25 17.125 3.5C17 3.75 16.875 4.1875 17 4.4375C17.0625 4.5 17.0625 4.625 17.0625 4.6875C17.0625 4.75 17.0625 4.75 17.0625 4.8125C17.0625 4.875 17.0625 5 17.0625 5.0625C17.0625 5.125 17 5.25 17 5.3125V5.375C16.875 5.625 16.75 5.875 16.625 6.0625C16.4375 6.4375 16.125 6.875 16.0625 7.3125C15.875 8 16.0625 8.6875 16.3125 9.3125C16.625 10 17.5625 10.25 18.0625 9.875ZM17.1875 4.9375C17.125 4.9375 17.1875 5.125 17.1875 4.9375C17.125 4.875 17.125 4.875 17.1875 4.9375Z" fill="#067dd3"/>
<path d="M21.0625 9.5625C21.375 9.625 21.75 9.625 22 9.4375C22.25 9.25 22.5 9 22.5625 8.6875C22.625 8.4375 22.625 8.1875 22.5 7.9375V7.875C22.5625 7.75 22.625 7.6875 22.6875 7.5625C22.875 7.25 23 6.9375 23.125 6.625C23.3125 6.0625 23.3125 5.375 23.125 4.8125C23 4.5 22.875 4.25 22.5625 4.0625C22.3125 3.875 21.875 3.8125 21.625 3.9375C21.3125 4.0625 21 4.25 20.875 4.5C20.75 4.75 20.625 5.1875 20.75 5.4375C20.8125 5.5 20.8125 5.625 20.8125 5.6875C20.8125 5.75 20.8125 5.75 20.75 5.8125C20.5625 6.125 20.4375 6.4375 20.25 6.75C20.125 7.0625 20 7.3125 20 7.6875C20 8.125 20.125 8.5 20.3125 8.875C20.4375 9.25 20.75 9.5 21.0625 9.5625Z" fill="#067dd3"/>
</svg>
