<svg width="40" height="40" viewBox="0 0 40 40" fill="none" xmlns="http://www.w3.org/2000/svg">
<path d="M19.1562 30.9687V19.9375C19.1562 18.5312 20.2813 17.4062 21.6875 17.4062H29.3125C30.7188 17.4062 31.8438 18.5312 31.8438 19.9375V30.9687H19.1562Z" fill="#067dd3"/>
<path d="M31.875 36.625H19.1562V38.75H31.875V36.625Z" fill="#067dd3"/>
<path d="M31.875 31.6562H19.1562V35.9062H31.875V31.6562Z" fill="#067dd3"/>
<path d="M15.625 26C14.0625 26 12.8125 27.2812 12.8125 28.8125C12.8125 30.3438 14.0938 31.625 15.625 31.625V37.2813C15.625 38.0625 16.25 38.6875 17.0312 38.6875V39.75H18.4375V38.6875V37.625V28.8438C18.4375 27.2813 17.1562 26 15.625 26Z" fill="#067dd3"/>
<path d="M35.4062 26C33.8438 26 32.5938 27.2812 32.5938 28.8125V37.6563V38.7188V39.7813H34V38.7188C34.7812 38.7188 35.4062 38.0938 35.4062 37.3125V31.6563C36.9688 31.6563 38.2188 30.375 38.2188 28.8438C38.2188 27.3125 36.9688 26 35.4062 26Z" fill="#067dd3"/>
<path d="M11.0312 36.9688V11.5312H18.4375L17.0312 0.21875H2.90625L1.46875 11.5312H8.90625V36.9688H7.84375L7.125 39.7812H12.7812L12.0938 36.9688H11.0312Z" fill="#067dd3"/>
</svg>
