<svg width="40" height="40" viewBox="0 0 40 40" fill="none" xmlns="http://www.w3.org/2000/svg">
<path d="M9.2914 3.45671C9.72448 3.66486 9.99992 4.10283 9.99992 4.58335C9.99992 5.96641 10.5201 6.76271 11.1718 7.73246L11.2192 7.80291C11.7734 8.62631 12.4999 9.70566 12.4999 11.25C12.4999 12.8259 11.7046 14.216 10.4935 15.0409C10.8121 15.308 11.0945 15.6375 11.337 16.03C12.1299 17.3133 12.4999 19.2742 12.4999 22.0915C12.4999 24.945 12.1166 28.3717 11.4923 31.1073C11.1818 32.4677 10.7973 33.7225 10.3378 34.6657C10.1099 35.1333 9.83239 35.5902 9.48687 35.9475C9.14515 36.3007 8.61717 36.6748 7.91658 36.6748C7.216 36.6748 6.68802 36.3007 6.3463 35.9475C6.00079 35.5902 5.72329 35.1333 5.49539 34.6657C5.03587 33.7225 4.65135 32.4677 4.3409 31.1073C3.71654 28.3717 3.33325 24.945 3.33325 22.0915C3.33325 19.2742 3.70324 17.3133 4.49617 16.03C4.73872 15.6375 5.02104 15.308 5.33967 15.0409C4.12855 14.216 3.33325 12.8259 3.33325 11.25C3.33325 10.6363 3.33382 9.58148 3.97227 8.21946C4.59707 6.88653 5.78435 5.35501 7.96905 3.60726C8.34427 3.30708 8.85832 3.24856 9.2914 3.45671ZM5.83325 11.2479V11.25C5.83325 12.4006 6.76599 13.3333 7.91658 13.3333C9.06718 13.3333 9.99992 12.4006 9.99992 11.25C9.99992 10.5183 9.69188 10.0124 9.09682 9.12691L9.07645 9.0966C8.695 8.52911 8.24447 7.85886 7.92293 6.99593C7.01747 7.91665 6.51742 8.68 6.2359 9.28055C5.83325 10.1396 5.83325 10.7508 5.83325 11.2479ZM6.62297 17.3442C6.20945 18.0133 5.83325 19.3858 5.83325 22.0915C5.83325 24.7608 6.19615 28.0008 6.77822 30.551C7.07098 31.8338 7.40474 32.8767 7.74282 33.5707C7.80505 33.6983 7.86335 33.8057 7.91658 33.8948C7.96982 33.8057 8.02812 33.6983 8.09035 33.5707C8.42843 32.8767 8.76219 31.8338 9.05495 30.551C9.63702 28.0008 9.99992 24.7608 9.99992 22.0915C9.99992 19.3858 9.62372 18.0133 9.2102 17.3442C9.02203 17.0395 8.83523 16.8953 8.66833 16.8143C8.48862 16.7272 8.25105 16.6748 7.91658 16.6748C7.58212 16.6748 7.34455 16.7272 7.16484 16.8143C6.99794 16.8953 6.81113 17.0395 6.62297 17.3442Z" fill="#57578E"/>
<path d="M16.6666 24.8617C15.7694 24.7112 14.9127 24.4412 14.1134 24.0687C14.1484 23.3915 14.1666 22.7283 14.1666 22.0915C14.1666 21.7985 14.1628 21.511 14.155 21.2293C14.9068 21.7345 15.7552 22.1073 16.6666 22.3142V17.5C16.6666 16.1193 17.7858 15 19.1665 15H25.8332C25.8332 10.8579 22.4753 7.5 18.3332 7.5C16.6192 7.5 15.0395 8.07497 13.7764 9.04253C13.4439 8.12183 12.9686 7.41658 12.6379 6.9259L12.5708 6.8262C14.1996 5.67582 16.1875 5 18.3332 5C23.856 5 28.3332 9.47715 28.3332 15H34.1665C35.5473 15 36.6665 16.1193 36.6665 17.5V32.5C36.6665 33.8807 35.5473 35 34.1665 35H19.1665C17.7858 35 16.6666 33.8807 16.6666 32.5V24.8617ZM19.1665 24.9658V32.5H34.1665V17.5H28.0182C26.975 21.5533 23.4543 24.612 19.1665 24.9658ZM25.4065 17.5H19.1665V22.4542C22.065 22.1338 24.4657 20.1617 25.4065 17.5Z" fill="#57578E"/>
</svg>
